<svg width="609" height="548" viewBox="0 0 609 548" fill="none" xmlns="http://www.w3.org/2000/svg">
<path opacity="0.5" d="M4.41819 264.043C-7.27255 314.116 26.2005 353.042 45.4934 389.139C64.7863 425.236 95.9039 509.878 148.181 510.5C200.459 511.123 338.621 519.836 338.621 519.836C338.621 519.836 423.242 565.698 467.448 540.374C502.605 520.233 496.506 483.958 519.725 450.753C549.639 407.976 600.6 401.674 607.477 349.93C613.067 307.871 572.003 247.239 572.003 247.239L502.922 152.017C502.922 152.017 493.939 61.2855 454.378 26.9216C409.764 -11.8326 305.014 2.64922 305.014 2.64922C305.014 2.64922 215.99 29.9489 170.586 66.1307C128.017 100.053 140.713 129.612 82.8345 174.422C24.9558 219.233 14.9918 218.756 4.41819 264.043Z" fill="#EBEBF7"/>
<g opacity="0.3">
<path d="M440.268 94.7075C437.73 98.6784 435.286 110.39 431.831 113.675C422.318 123.565 416.051 106.014 408.32 109.097C395.841 114.073 400.79 130.239 396.225 136.967C390.093 146.116 371.39 154.076 369.201 163.613C365.767 177.844 378.737 189.504 370.676 206.068C368.643 210.129 366.177 215.155 368.957 218.519C377.694 217.12 385.094 219.598 393.49 221.108C401.411 222.876 416.024 221.901 420.389 213.444C423.385 207.34 419.582 197.379 418.148 191.166C423.902 183.871 437.069 192.554 443.503 183.535C452.736 170.592 437.12 156.777 436.911 146.007C436.76 138.167 457.969 135.411 465.495 131.431C477.556 125.055 488.676 97.5319 466.851 84.0337C457.337 78.15 445.342 86.7655 440.268 94.7075Z" fill="#4043AF"/>
<path d="M459.655 103.393C454.163 107.9 444.263 117.943 439.015 124.845M384.194 204.333C383.815 195.009 396.537 181.871 396.537 181.871M416.421 130.942C415.212 137.667 421.39 141.606 421.39 141.606M421.39 141.606C421.39 141.606 415.607 148.207 412.479 152.858C408.872 158.222 407.101 161.444 404.508 167.365M421.39 141.606C421.39 141.606 431.002 135.382 439.015 124.845M382.676 167.037C384.869 177.716 396.537 181.871 396.537 181.871M396.537 181.871C396.537 181.871 401.395 173.03 404.508 167.365M404.508 167.365C412.955 168.884 416.411 173.877 426.139 171.256M439.015 124.845C439.015 124.845 451.65 126.71 462.979 116.02" stroke="white" stroke-opacity="0.2" stroke-width="2" stroke-linecap="round" stroke-linejoin="round"/>
</g>
<path d="M36.7385 258.496C36.7385 258.496 26.4123 260.253 23.0324 248.678C23.0556 248.701 32.0748 246.22 36.7385 258.496Z" fill="#CEA6DC"/>
<path d="M34.6151 246.329C34.6151 246.329 27.6432 242.773 32.4373 235.873C32.4381 235.894 39.707 239.573 34.6151 246.329Z" fill="#CEA6DC"/>
<path d="M42.7624 276.507C42.7624 276.507 30.5976 279.21 25.0284 266.178C25.0284 266.224 35.2754 263.208 42.7624 276.507Z" fill="#CEA6DC"/>
<path d="M51.1005 295.086C51.1005 295.086 35.7677 302.107 25.7511 284.546C25.7511 284.546 38.7221 277.979 51.1005 295.086Z" fill="#CEA6DC"/>
<path d="M64.5559 316.674C64.5559 316.674 48.0776 324.264 39.2065 306.134C39.2297 306.157 52.4452 301.231 64.5559 316.674Z" fill="#CEA6DC"/>
<path d="M39.3107 267.964C39.3107 267.964 48.8162 265.423 46.3891 252.689C46.3891 252.689 36.7526 256.807 39.3107 267.964Z" fill="#CEA6DC"/>
<path d="M46.8031 286.553C46.8031 286.553 59.6489 281.672 55.3619 268.084C55.3619 268.084 42.6613 272.563 46.8031 286.553Z" fill="#CEA6DC"/>
<path d="M56.5031 304.654C56.5031 304.654 71.2202 300.63 66.8431 282.366C66.8431 282.366 51.7706 288.074 56.5031 304.654Z" fill="#CEA6DC"/>
<path d="M71.9013 325.824C71.9013 325.824 85.9922 317.863 76.5233 301.706C76.5233 301.706 63.8345 308.508 71.9013 325.824Z" fill="#CEA6DC"/>
<path d="M83.8672 338.207L82.3631 339.711C81.9 339.248 36.4246 292.431 32.1722 238.519L34.2323 238.358C38.4382 291.482 83.4273 337.721 83.8672 338.207Z" fill="#CEA6DC"/>
<path d="M55.4636 303.584C54.5118 304.536 52.9686 304.536 52.0168 303.584C51.0651 302.632 51.0651 301.089 52.0169 300.137C52.9687 299.185 54.5118 299.185 55.4636 300.137C56.4154 301.089 56.4154 302.632 55.4636 303.584Z" fill="#FF6231"/>
<path d="M66.7886 315.894C65.8368 316.846 64.2936 316.846 63.3418 315.894C62.39 314.942 62.39 313.399 63.3418 312.447C64.2936 311.495 65.8368 311.495 66.7886 312.447C67.7404 313.399 67.7404 314.942 66.7886 315.894Z" fill="#FF6231"/>
<path d="M52.2631 291.028C51.4472 291.844 50.1245 291.844 49.3087 291.028C48.4929 290.212 48.4929 288.889 49.3087 288.074C50.1245 287.258 51.4472 287.258 52.2631 288.074C53.0789 288.889 53.0789 290.212 52.2631 291.028Z" fill="#FF6231"/>
<path d="M37.2451 265.67C36.5653 266.349 35.463 266.349 34.7832 265.67C34.1033 264.99 34.1033 263.888 34.7832 263.208C35.463 262.528 36.5653 262.528 37.2451 263.208C37.925 263.888 37.925 264.99 37.2451 265.67Z" fill="#FF6231"/>
<path d="M390.835 102.3C390.835 102.3 387.197 94.6038 395.912 91.8511C395.899 91.8695 399.71 99.8698 390.835 102.3Z" fill="#4043AF"/>
<path d="M377.783 133.697C377.783 133.697 365.513 127.936 369.384 113.014C369.353 113.054 380.18 117.27 377.783 133.697Z" fill="#4043AF"/>
<path d="M372.608 155.235C372.608 155.235 354.74 151.085 357.793 129.307C357.793 129.307 373.326 132.278 372.608 155.235Z" fill="#FF6231"/>
<path d="M369.838 182.766C369.838 182.766 350.605 178.344 355.023 156.838C355.028 156.873 369.68 161.419 369.838 182.766Z" fill="#4043AF"/>
<path d="M374.582 145.032C374.582 145.032 388.886 149.372 394.23 134.824C394.23 134.824 380.318 130.235 374.582 145.032Z" fill="#4043AF"/>
<path d="M370.897 167.064C370.897 167.064 386.242 173.385 394.618 154.752C394.618 154.752 377.847 149.644 370.897 167.064Z" fill="#4043AF"/>
<path d="M370.077 195.527C370.077 195.527 387.5 198.043 390.092 177.838C390.092 177.838 374.646 175.257 370.077 195.527Z" fill="#FF6231"/>
<path d="M372.145 214.143L369.85 214.438C369.759 213.732 361.739 143.191 393.924 93.9533L395.805 95.1841C364.103 143.714 372.089 213.432 372.145 214.143Z" fill="#4043AF"/>
<path d="M370.714 165.452C369.261 165.638 367.933 164.612 367.746 163.16C367.56 161.708 368.586 160.379 370.038 160.193C371.49 160.006 372.819 161.032 373.005 162.485C373.192 163.937 372.166 165.265 370.714 165.452Z" fill="#FF6231"/>
<path d="M372.278 183.579C370.826 183.766 369.497 182.74 369.311 181.287C369.124 179.835 370.15 178.507 371.603 178.32C373.055 178.134 374.383 179.16 374.57 180.612C374.756 182.064 373.73 183.393 372.278 183.579Z" fill="#FF6231"/>
<path d="M376.307 152.515C375.062 152.675 373.923 151.795 373.763 150.55C373.604 149.306 374.483 148.167 375.728 148.007C376.973 147.847 378.111 148.727 378.271 149.971C378.431 151.216 377.552 152.355 376.307 152.515Z" fill="#FF6231"/>
<path d="M380.239 120.699C379.202 120.833 378.253 120.1 378.12 119.062C377.986 118.025 378.719 117.076 379.757 116.943C380.794 116.81 381.743 117.543 381.876 118.58C382.009 119.617 381.276 120.566 380.239 120.699Z" fill="#FF6231"/>
<path d="M387.14 115.762C386.103 115.895 385.154 115.162 385.02 114.125C384.887 113.088 385.62 112.139 386.657 112.005C387.695 111.872 388.644 112.605 388.777 113.642C388.91 114.68 388.177 115.629 387.14 115.762Z" fill="#FF6231"/>
<path d="M387.79 105.733C386.752 105.866 385.803 105.133 385.67 104.096C385.537 103.059 386.27 102.11 387.307 101.976C388.344 101.843 389.293 102.576 389.427 103.613C389.56 104.651 388.827 105.6 387.79 105.733Z" fill="#FF6231"/>
<path d="M384.998 110.338C383.961 110.472 383.012 109.739 382.879 108.701C382.746 107.664 383.479 106.715 384.516 106.582C385.553 106.449 386.502 107.182 386.635 108.219C386.769 109.256 386.036 110.205 384.998 110.338Z" fill="#FF6231"/>
<path d="M382.207 114.944C381.17 115.077 380.221 114.344 380.088 113.307C379.955 112.269 380.688 111.321 381.725 111.187C382.762 111.054 383.711 111.787 383.844 112.824C383.978 113.862 383.245 114.81 382.207 114.944Z" fill="#FF6231"/>
<path d="M385.335 120.531C384.298 120.664 383.349 119.931 383.216 118.894C383.083 117.857 383.815 116.908 384.853 116.774C385.89 116.641 386.839 117.374 386.972 118.411C387.105 119.449 386.373 120.398 385.335 120.531Z" fill="#FF6231"/>
<path d="M388.944 110.993C387.907 111.126 386.958 110.393 386.825 109.356C386.692 108.318 387.425 107.37 388.462 107.236C389.499 107.103 390.448 107.836 390.581 108.873C390.715 109.911 389.982 110.86 388.944 110.993Z" fill="#FF6231"/>
<path d="M391.899 105.401C390.862 105.534 389.913 104.801 389.78 103.764C389.647 102.727 390.379 101.778 391.417 101.644C392.454 101.511 393.403 102.244 393.536 103.281C393.669 104.319 392.937 105.268 391.899 105.401Z" fill="#FF6231"/>
<path opacity="0.3" d="M4.4077 264.613C-7.28678 314.735 13.3399 366.213 32.639 402.347C51.938 438.48 104.081 481.223 156.375 481.846C208.669 482.469 266.211 491.494 334.601 507.968C370.064 516.51 380.061 559.438 424.281 534.089C459.45 513.928 521.069 522.985 560.505 481.846C598.191 442.533 600.78 402.381 607.66 350.585C613.251 308.484 548.294 296.681 534.395 250.162C522.461 210.217 544.041 183.964 534.395 143.405C520.929 86.7827 494.505 51.7394 454.931 17.3411C410.302 -21.4517 367.856 25.3274 311.897 27.2542C256.515 29.1611 215.416 -8.96369 169.998 27.2542C127.415 61.2107 124.592 98.5496 66.6948 143.405C8.79759 188.26 14.9847 219.28 4.4077 264.613Z" stroke="#5437B2" stroke-width="2" stroke-linecap="round" stroke-dasharray="1 8"/>
<path d="M279.223 154.583C278.708 154.686 278.184 154.45 277.94 153.965C262.219 122.811 220.278 110.774 219.859 110.656C219.243 110.476 218.87 109.838 219.034 109.214C219.198 108.589 219.852 108.225 220.476 108.389C220.912 108.516 263.831 120.8 280.016 152.891C280.317 153.469 280.068 154.174 279.499 154.458C279.423 154.522 279.323 154.553 279.223 154.583Z" fill="#4043AF"/>
<path d="M226.21 110.208C226.21 110.208 224.64 81.9354 189.559 84.3077C188.71 84.3651 200.291 90.5179 199.403 90.6119C198.395 90.7187 190.747 85.0433 183.852 84.9284C176.957 84.8135 174.455 86.6944 169.002 88.3431C169.002 88.3431 179.241 91.634 190.28 106.245C195.54 113.201 205.235 116.017 209.683 115.756C214.132 115.495 218.382 112.626 218.382 112.626C218.991 112.536 214.514 116.605 215.096 116.461C221.558 114.859 226.21 110.208 226.21 110.208Z" fill="#CEA6DC"/>
<path d="M268.357 159.444C268.305 159.441 268.255 159.411 268.202 159.408C267.586 159.213 267.233 158.562 267.429 157.946C277.523 124.705 252.834 98.7554 252.576 98.4905C252.12 98.0299 252.127 97.2838 252.599 96.8417C253.072 96.3996 253.817 96.4067 254.247 96.8657C254.506 97.1306 280.154 124.083 269.638 158.633C269.486 159.187 268.928 159.532 268.357 159.444Z" fill="#4043AF"/>
<path d="M257.018 101.558C257.018 101.558 264.337 87.8033 252.512 77.3446C252.098 76.9778 255.371 85.9066 255.371 85.9066C255.371 85.9066 251.687 78.1135 249.473 75.8893C247.259 73.665 245.601 72.6949 242.702 71.5168C242.127 71.283 245.591 77.0994 244.977 76.8765C244.977 76.8765 242.375 72.5852 239.898 70.472C237.421 68.3588 231.969 68.1781 226.922 67.3849C226.922 67.3849 233.338 72.5348 235.543 85.979C238.364 103.024 257.018 101.558 257.018 101.558Z" fill="#FF6231"/>
<path d="M212.894 134.676C212.894 134.676 212.999 135.985 213.281 138.045C213.299 138.174 217.568 138.571 217.568 138.571C217.568 138.571 213.374 138.704 213.394 138.839C213.483 139.454 213.587 140.121 213.706 140.827C213.724 140.932 218.788 140.826 218.788 140.826C218.788 140.826 213.793 141.331 213.809 141.424C213.943 142.186 214.094 142.988 214.264 143.816C214.292 143.949 220.403 143.11 220.403 143.11C220.403 143.11 214.404 144.481 214.433 144.615C214.644 145.592 214.881 146.599 215.147 147.616C215.159 147.663 216.901 147.284 218.644 146.905L222.155 146.191C222.155 146.191 215.279 148.11 215.308 148.217C215.6 149.292 215.925 150.372 216.285 151.435C216.311 151.51 224.304 149.303 224.304 149.303C224.304 149.303 216.45 151.914 216.495 152.041C216.952 153.331 217.464 154.589 218.035 155.769C218.089 155.88 226.68 152.039 226.68 152.039C226.68 152.039 218.336 156.373 218.406 156.509C219.183 158 220.063 159.344 221.058 160.444C221.178 160.577 229.071 154.58 229.071 154.58C229.071 154.58 221.736 161.145 221.898 161.295C223.225 162.529 224.809 163.536 226.527 164.357C226.679 164.43 232.871 156.911 232.871 156.911C232.871 156.911 227.32 164.72 227.489 164.792C229.073 165.471 230.748 166.005 232.423 166.426C232.59 166.468 237.018 159.906 237.018 159.906C237.018 159.906 233.186 166.61 233.316 166.64C234.795 166.977 236.262 167.23 237.656 167.418C237.847 167.444 240.749 163.139 240.749 163.139C240.749 163.139 238.621 167.541 238.816 167.563C243.415 168.089 246.946 167.937 246.946 167.937C246.946 167.937 246.707 164.361 245.636 159.784C245.575 159.52 239.717 159.593 239.65 159.323C239.584 159.058 245.308 158.451 245.237 158.182C244.89 156.876 244.475 155.516 243.982 154.157C243.884 153.887 235.703 155.352 235.599 155.083C235.52 154.88 243.519 152.942 243.437 152.74C242.808 151.193 242.069 149.669 241.202 148.247C241.075 148.039 232.609 151.904 232.476 151.7C232.341 151.492 240.539 147.216 240.399 147.014C239.587 145.849 238.677 144.778 237.657 143.85C237.534 143.738 229.848 148.848 229.72 148.738C229.479 148.532 236.792 143.109 236.536 142.912C235.449 142.074 234.229 141.312 232.931 140.622C232.723 140.511 227.145 146.274 226.933 146.167C226.636 146.016 231.702 139.998 231.399 139.855C230.209 139.295 228.975 138.788 227.735 138.331C227.542 138.26 224.157 143.454 223.963 143.385C223.705 143.293 226.637 137.939 226.379 137.851C225.195 137.449 224.018 137.091 222.88 136.774C222.552 136.682 220.569 140.041 220.248 139.956C220.051 139.904 221.514 136.407 221.321 136.357C219.942 136.005 218.651 135.715 217.514 135.481C217.276 135.432 217.87 137.598 217.647 137.554C217.398 137.505 216.333 135.247 216.103 135.204C214.137 134.835 212.894 134.676 212.894 134.676Z" fill="#4043AF"/>
<path d="M469.483 209.911C462.062 202.865 451.315 201.54 441.082 201.43C430.5 201.316 415.507 201.294 399.428 201.707C368.929 202.49 345.469 205.621 335.302 189.963C325.136 174.306 343.592 128.899 335.302 98.6798C327.013 68.4606 318.098 36.3626 295.732 33.7008C273.366 31.039 265.546 50.9241 265.546 50.9241L269.494 99.4829C270.478 111.581 267.027 123.623 259.786 133.364L220.696 185.948C207.875 203.196 200.951 224.116 200.951 245.607V355.576C200.951 377.444 207.078 400.458 225.757 411.829C241.704 421.536 255.223 422.635 255.223 422.635H401.461C401.461 422.635 418.51 425.767 427.737 411.205C437.426 395.916 427.775 384.01 416.5 375C431.433 371.177 445.72 369.888 449.79 351.55C452.868 337.684 442.41 326.403 432 318.982C447.636 318.982 464.556 315.199 467.151 296.435C469.967 276.08 455.734 264.65 452.449 264.024C449.165 263.397 450.729 260.423 450.729 260.423C479.664 256.821 478.882 233.335 478.882 233.335C479.534 222.521 474.776 214.936 469.483 209.911Z" fill="#EEDCDC"/>
<path d="M428.423 424.657C428.14 425.1 427.607 425.313 427.087 425.152C393.746 414.855 355.976 436.705 355.601 436.924C355.043 437.243 354.325 437.069 353.989 436.518C353.653 435.966 353.845 435.243 354.396 434.907C354.789 434.681 393.416 412.3 427.755 422.912C428.38 423.097 428.715 423.765 428.524 424.372C428.518 424.471 428.471 424.564 428.423 424.657Z" fill="#CEA6DC"/>
<path d="M360.452 433.172C360.452 433.172 336.483 418.096 318.122 448.082C317.678 448.807 329.397 442.921 328.96 443.7C328.463 444.584 319.41 447.538 315.327 453.096C311.244 458.653 311.33 461.782 309.521 467.183C309.521 467.183 318.129 460.736 336.432 460.185C345.15 459.92 353.055 453.641 355.416 449.862C357.777 446.082 357.895 440.956 357.895 440.956C358.175 440.407 358.904 446.413 359.123 445.854C361.554 439.657 360.452 433.172 360.452 433.172Z" fill="#CEA6DC"/>
<path d="M424.5 422.68C424.478 422.727 424.432 422.763 424.409 422.81C423.999 423.311 423.265 423.397 422.764 422.988C395.624 401.302 362.377 414.627 362.035 414.77C361.439 415.023 360.748 414.74 360.512 414.137C360.277 413.535 360.56 412.844 361.145 412.615C361.487 412.473 396.021 398.628 424.221 421.19C424.679 421.536 424.793 422.182 424.5 422.68Z" fill="#CEA6DC"/>
<path d="M366.53 411.779C366.53 411.779 356.463 399.887 342.369 406.998C341.875 407.248 351.381 407.513 351.381 407.513C351.381 407.513 342.778 408.05 339.892 409.283C337.006 410.516 335.491 411.696 333.323 413.953C332.893 414.401 339.579 413.337 339.144 413.824C339.144 413.824 334.194 414.653 331.314 416.172C328.434 417.69 326.247 422.688 323.642 427.082C323.642 427.082 330.801 423.029 344.107 425.958C360.984 429.65 366.53 411.779 366.53 411.779Z" fill="#CEA6DC"/>
<path d="M424.5 422.68C424.331 422.976 424.014 423.188 423.641 423.243C407.513 425.37 397.426 436.405 397.329 436.518C396.895 437.007 396.159 437.035 395.67 436.602C395.181 436.168 395.146 435.415 395.586 434.944C396.02 434.454 406.323 423.146 423.338 420.917C423.973 420.827 424.568 421.281 424.658 421.916C424.682 422.202 424.618 422.461 424.5 422.68Z" fill="#CEA6DC"/>
<path d="M398.893 433.633C398.893 433.633 400.959 441.076 397.696 449.246C397.507 449.721 396.737 445.05 396.737 445.05C396.737 445.05 396.298 451.465 390.772 459.507C385.246 467.55 379.123 470.009 349.762 470.2C349.762 470.2 353.993 466.32 359.194 461.579C364.394 456.837 371.561 454.464 371.561 454.464C371.561 454.464 361.607 456.181 361.973 455.694C364.687 452.082 366.912 450.615 369.025 445.205C377.471 423.568 398.893 433.633 398.893 433.633Z" fill="#CEA6DC"/>
<rect x="67.9998" y="213" width="122" height="208" rx="20" fill="url(#paint0_linear_40_20)"/>
<path d="M103.935 214.5C114.935 218 139.135 216.9 141.935 216.5L146.435 203.5L103.935 214.5Z" fill="#31336E"/>
<path d="M136.619 293.095C137.079 285.048 137.914 277.757 138.577 274.249L127.252 273.89C127.789 278.647 126.215 292.769 128.273 300.988C130.094 308.259 134.029 311.721 137.228 300.779L136.619 293.095Z" fill="#F1C0C0"/>
<path d="M127.127 286.533C127.288 288.562 127.245 289.999 127.562 292.016C127.805 295.086 127.638 299.304 131.907 298.966C138.274 298.461 135.196 293.417 136.756 287.776C136.86 296.04 141.438 304.805 138.022 312.774C136.678 315.632 134.259 318.35 130.823 316.957C128.172 315.883 126.505 311.667 125.97 309.175C124.588 302.217 125.093 293.406 127.127 286.533Z" fill="#98ABFD"/>
<path d="M158.586 204.483C158.586 204.483 161.714 205.109 159.681 213.251C157.648 221.393 138.41 287.312 138.41 287.312L126.367 285.903C126.367 285.903 126.68 234.859 142.164 208.398C142.32 208.398 148.576 196.498 158.586 204.483Z" fill="#4043AF"/>
<path d="M160.307 208.241C160.307 208.241 159.368 196.968 143.102 196.498L153.738 234.233C153.738 234.076 160.307 213.565 160.307 208.241Z" fill="#31336E"/>
<path d="M163.132 122.226C163.531 114.346 165.591 106.493 164.948 98.6288C164.606 94.4437 163.618 90.5146 161.088 88.2102C154.681 82.4134 145.258 80.0414 137.817 85.0397C127.933 91.5961 125.392 104.67 122.577 116.192C120.808 123.432 118.285 130.838 114.935 134C107.424 141.056 94.9911 165.886 100.934 175.276C103.318 178.74 117.19 173.741 121.202 175.276C125.045 176.732 127.855 177.873 131.487 179.877L131.544 179.569C132.064 180.195 132.828 180.654 133.652 180.912C134.064 181.041 134.492 181.12 134.911 181.144C136.66 181.147 138.186 180.632 139.866 180.146C149.912 177.403 166.425 187.895 166.935 175.276C176.19 163.316 161.901 146.529 163.132 122.226Z" fill="#1D1B3E"/>
<path d="M130.935 177.271C130.935 177.271 130.935 187.593 137.712 188.651C140.392 189.048 164.192 189.313 169.867 188.254C171.758 187.857 174.122 187.196 174.753 185.608C175.068 184.814 174.91 183.887 174.753 183.093C174.438 181.77 174.122 180.314 172.861 179.256C171.128 177.8 168.921 177.8 166.714 177.535C164.98 177.271 163.247 177.006 161.355 176.741C155.366 175.815 149.219 175.153 143.071 175.021C139.761 175.021 133.457 174.624 130.935 177.271Z" fill="#09AB8D"/>
<path d="M147.297 181.684C147.297 181.684 145.889 176.047 145.733 175.734C144.794 170.097 144.794 164.46 145.576 158.824C146.202 154.283 147.14 149.742 148.548 145.202C149.799 141.287 152.927 127.978 160.278 133.145C162.155 134.398 162.781 136.433 163.093 138.469C164.032 147.237 158.088 176.83 158.088 176.83L147.297 181.684Z" fill="#09AB8D"/>
<path d="M137.121 123L120.124 125.67C119.575 138.552 118.479 151.59 116.011 164.157C115.326 167.613 114.64 171.226 113.133 174.368C111.762 177.195 109.843 179.238 108.061 181.437C106.416 183.479 104.908 185.678 103.4 187.877C101.892 190.077 100.521 192.433 99.1505 194.789C99.0134 195.103 96.6831 200.759 96.9572 200.759L154.668 205C154.668 205 147.402 194.632 148.636 184.264C149.184 180.18 150.144 176.253 151.103 172.326C152.611 166.042 154.256 159.759 156.038 153.475C156.587 151.433 157.135 149.391 157.683 147.349C158.232 145.621 158.78 143.893 158.917 142.008C159.054 139.966 158.369 138.08 157.957 136.195C157.409 133.839 156.45 131.483 154.393 130.226C148.91 127.241 143.153 124.728 137.121 123Z" fill="#F1C0C0"/>
<path d="M150.034 183.845C150.174 183.225 150.174 182.605 150.315 181.984C152.3 171.058 163.488 159.03 160 148.5C157.184 140 162.704 137.488 159.044 132.837C157.636 130.977 153.835 129.271 151.864 128.341C151.864 128.341 152.708 135.473 145.106 136.093C142.572 136.248 139.052 135.783 136.518 132.682C132.999 128.496 132.295 124 132.295 124.155C132.295 124.155 132.295 124.155 132.295 124C127.086 124.775 119.765 125.705 119.765 125.705C119.202 138.419 119.061 151.287 116.527 163.69C115.823 167.101 115.119 170.667 113.57 173.767C112.163 176.558 110.192 178.574 108.361 180.744C106.672 182.76 105.123 184.93 103.575 187.101C102.026 189.271 100.618 191.597 99.2104 193.922C99.0696 194.233 96.6763 199.814 96.9578 199.814L156.228 204C156.228 204 148.766 194.078 150.034 183.845Z" fill="#40B59F"/>
<path d="M115.262 178.179C115.262 178.179 113.229 172.855 113.229 172.542C111.821 167.218 110.726 159.859 110.883 154.379C111.039 149.838 111.508 145.454 112.447 141.07C113.229 137.156 115.262 124.16 122.926 128.387C124.803 129.484 125.741 131.362 126.21 133.241C127.931 141.54 124.803 170.663 124.803 170.663L115.262 178.179Z" fill="#0E9D83"/>
<path d="M109.788 170.976C109.162 170.037 109.319 168.784 109.475 167.688C109.632 166.749 109.788 165.653 109.944 164.713C110.414 162.834 111.039 160.799 112.76 159.703C113.072 159.546 113.385 159.233 113.854 159.076C114.167 158.92 114.636 158.92 114.949 158.763C121.987 157.98 133.718 161.268 154.832 161.582L153.581 170.976C150.453 171.446 147.481 171.759 144.353 172.072C138.097 172.698 131.685 173.168 125.428 173.325C120.58 173.481 115.575 173.794 111.039 171.759C110.414 171.602 110.101 171.289 109.788 170.976Z" fill="#0E9D83"/>
<path d="M150.453 163.46L151.548 162.991H151.704L160.776 159.859C161.245 159.703 161.558 159.703 161.871 160.016L172.663 167.375C172.819 167.531 172.975 167.688 173.132 167.845C173.601 168.627 172.975 169.567 172.037 169.723L170.629 169.88C170.317 169.88 170.16 169.88 169.847 169.723L166.094 167.688C165.781 167.531 165.468 167.531 165.155 167.531C163.435 168.001 157.491 169.254 152.486 169.254C151.861 169.254 151.392 168.784 151.235 168.158L150.453 163.46Z" fill="#F1C0C0"/>
<path d="M110.413 177.239C109.944 177.396 108.537 168.001 108.38 167.062C107.755 162.208 107.911 157.041 108.537 152.187C109.162 147.646 110.101 143.106 111.508 138.565C112.76 134.651 116.044 121.498 123.239 126.509C125.116 127.761 125.741 129.953 126.054 131.832C126.992 140.6 120.893 170.193 120.893 170.193L110.413 177.239Z" fill="#09AB8D"/>
<path d="M110.57 177.239C110.414 177.083 110.414 176.769 110.414 176.613C109.632 172.385 109.944 165.653 115.106 164.4C121.988 162.678 134.187 164.243 154.989 161.738V171.289C152.017 172.072 149.045 172.855 145.917 173.638C139.818 175.204 133.561 176.456 127.305 177.396C122.457 178.179 116.67 179.275 111.978 177.865C111.508 177.865 110.883 177.709 110.57 177.239Z" fill="#09AB8D"/>
<path d="M137.13 112.886L135.41 123.22C135.41 123.22 135.723 136.06 150.112 131.519L152.302 115.235L137.13 112.886Z" fill="#E7B7B7"/>
<path d="M140.083 101.713L138.776 106.651L134.935 113.045L136.161 116.392C140.228 125.466 148.942 127.468 152.282 125.066C154.829 123.234 158.522 110.619 160.133 104.73C160.618 102.956 159.796 101.104 158.175 100.237L150.256 96L140.083 101.713Z" fill="#F1C0C0"/>
<path d="M168.378 177.431C168.378 177.431 166.657 183.381 168.847 185.103C171.037 186.826 172.444 186.513 173.852 184.79C175.26 183.068 174.79 175.082 168.378 177.431Z" fill="#F1C0C0"/>
<path d="M178.449 181.153H159.368L175.478 151.874H194.715L178.449 181.153Z" fill="#1D1B3E"/>
<path d="M157.491 179.901L159.368 181.153L175.478 151.874L173.601 150.465L157.491 179.901Z" fill="#12121A"/>
<path d="M173.601 150.465H192.682L194.716 151.874H175.478L173.601 150.465Z" fill="#12121A"/>
<path d="M172.132 185.886L173.07 185.26C173.07 185.26 173.226 185.26 173.226 185.103L181.047 179.467C181.36 179.153 181.516 178.84 181.516 178.371L181.672 165.218C181.672 165.062 181.672 164.749 181.516 164.592C181.047 163.809 179.952 163.652 179.326 164.435L178.388 165.531C178.231 165.688 175.5 170.343 175.5 170.5C174.753 177.226 172.398 175.055 168.378 180.563C168.065 181.032 168.065 181.815 168.534 182.285L172.132 185.886Z" fill="#F1C0C0"/>
<path d="M160.338 186.95C143.759 178.374 86.3728 184.5 94.8491 208.141C98.6842 218.837 124.56 214.613 133.181 211.465C142.288 208.051 152.193 204.958 160.804 200.766C165.772 198.272 164.228 189.554 160.338 186.95Z" fill="#4043AF"/>
<path d="M179.153 275.925C178.98 274.949 178.988 274.007 178.996 273.065C178.962 272.775 178.839 270.204 178.805 269.915C177.634 266.013 173.345 255.763 173.345 255.763L183.927 251.827C183.927 251.827 185.24 259.431 187.878 264.49C188.494 265.671 189.682 266.407 191.003 266.582C196.61 267.326 204.191 267.655 204.191 267.655C204.191 267.655 214.244 265.788 214.791 265.892C215.337 265.996 216.689 265.875 218.616 266.618C218.616 266.618 218.657 267.42 207.435 273.5C207.435 273.5 204.709 274.862 195.935 276.5C194.033 276.988 190.765 278.404 188.935 279C187.033 279.488 184.418 280.781 183.435 280.5C183.07 280.431 182.656 280.5 181.435 280.5C179.803 279.247 179.429 277.77 179.153 275.925Z" fill="#F1C0C0"/>
<path d="M196.435 278C197.175 277.829 197.913 277.654 198.641 277.479C205.761 275.761 213.972 274.295 218.208 268.321C219.084 267.085 218.6 266.593 218.6 266.593C212.583 263.851 205.063 266.775 198.935 267.4C198.482 271.033 195.557 274.169 191.435 274.697C184.774 275.491 185.359 273.059 179.022 276.017C179.463 278.428 179.529 281.355 181.87 282.683C184.579 284.22 189.935 279.5 196.435 278Z" fill="#98ABFD"/>
<path d="M173.757 273.22C173.757 272.907 173.757 272.594 173.913 272.281C173.757 272.594 173.757 272.907 173.757 273.22Z" fill="#FFC38A"/>
<path d="M196.905 278.7C196.749 278.7 196.592 278.544 196.436 278.544C196.592 278.544 196.749 278.7 196.905 278.7Z" fill="#FFC38A"/>
<path d="M202.848 277.761C203.005 277.761 203.005 277.604 203.161 277.604C203.005 277.604 203.005 277.604 202.848 277.761Z" fill="#FFC38A"/>
<path d="M159.055 187.153C159.055 187.153 161.714 185.901 164.373 193.103C167.032 200.306 186.113 259.335 186.113 259.335L176.416 264.345C176.416 264.345 150.766 225.984 148.889 198.27C148.732 198.27 147.481 186.214 159.055 187.153Z" fill="#4043AF"/>
<path d="M131.935 117C138.268 110.333 151.035 96.9 151.435 96.5L163.435 120C162.935 113.5 161.835 100.2 161.435 99C160.935 97.5 156.435 92 154.435 92C152.835 92 139.435 96.3333 132.935 98.5L131.935 117Z" fill="#1D1B3E"/>
<path d="M276 43.5C271.172 45.3058 265.5 51.5 265.5 51.5L271 95.5C271 95.5 276.238 96.1165 279.5 95.5C289.954 93.5242 294.601 85.5819 298 75.5C302.062 63.4519 292 43.5 292 43.5C292 43.5 281.852 41.3112 276 43.5Z" fill="white" fill-opacity="0.5"/>
<path d="M539.167 333.986C539.167 333.986 535.855 334.505 530.667 335.612C530.34 335.681 530.167 346.486 530.167 346.486C530.167 346.486 529.006 335.972 528.667 336.048C527.118 336.392 525.442 336.782 523.667 337.218C523.402 337.283 524.667 349.986 524.667 349.986C524.667 349.986 522.402 337.532 522.167 337.592C520.254 338.076 518.243 338.61 516.167 339.199C515.835 339.292 519.167 354.486 519.167 354.486C519.167 354.486 514.501 339.677 514.167 339.776C511.721 340.495 509.203 341.287 506.667 342.152C506.55 342.192 507.855 346.494 509.162 350.802L511.667 359.486C511.667 359.486 505.433 342.578 505.167 342.672C502.489 343.614 499.802 344.639 497.167 345.75C496.981 345.828 504.167 365.486 504.167 365.486C504.167 365.486 495.981 346.257 495.667 346.395C492.47 347.794 489.369 349.323 486.476 350.986C486.205 351.142 497.667 371.986 497.667 371.986C497.667 371.986 484.997 351.859 484.667 352.062C481.023 354.302 477.773 356.773 475.166 359.486C474.852 359.813 491.667 378.486 491.667 378.486C491.667 378.486 473.516 361.327 473.167 361.761C470.285 365.335 468.032 369.511 466.277 373.986C466.122 374.381 486.476 388.486 486.476 388.486C486.476 388.486 465.509 376.048 465.358 376.486C463.942 380.6 462.909 384.911 462.167 389.201C462.092 389.629 479.667 399.486 479.667 399.486C479.667 399.486 461.847 391.153 461.797 391.486C461.228 395.269 460.873 399.004 460.667 402.541C460.638 403.027 472.167 409.486 472.167 409.486C472.167 409.486 460.544 404.991 460.525 405.486C460.088 417.142 461.167 425.986 461.167 425.986C461.167 425.986 470.223 424.693 481.667 421.118C482.326 420.912 480.993 406.207 481.667 405.986C482.327 405.769 484.994 420.036 485.667 419.804C488.924 418.679 492.302 417.375 495.667 415.872C496.334 415.574 491.001 395.3 491.667 394.986C492.168 394.749 498.668 414.475 499.167 414.229C502.983 412.348 506.718 410.197 510.167 407.744C510.673 407.384 499.173 386.859 499.667 386.486C500.168 386.107 512.663 405.879 513.15 405.486C515.955 403.222 518.504 400.728 520.667 397.986C520.928 397.655 506.412 379.329 506.667 378.986C507.144 378.342 522.382 395.667 522.835 394.986C524.756 392.094 526.455 388.881 527.958 385.486C528.199 384.941 512.435 372.04 512.667 371.486C512.99 370.71 529.305 382.277 529.609 381.486C530.803 378.389 531.851 375.19 532.772 371.986C532.915 371.486 519.029 363.986 519.167 363.486C519.35 362.819 533.554 369.152 533.727 368.486C534.519 365.433 535.2 362.406 535.784 359.486C535.952 358.643 527.014 354.309 527.167 353.486C527.26 352.982 536.451 355.982 536.539 355.486C537.166 351.954 537.651 348.653 538.023 345.75C538.101 345.144 532.704 347.056 532.772 346.486C532.848 345.851 538.388 342.739 538.453 342.152C539.006 337.14 539.167 333.986 539.167 333.986Z" fill="#4043AF"/>
<path d="M508.667 438.23C508.667 438.23 507.957 437.125 506.739 435.441C506.662 435.335 502.709 436.994 502.709 436.994C502.709 436.994 506.347 434.903 506.266 434.793C505.897 434.293 505.492 433.753 505.054 433.186C504.989 433.102 500.572 435.579 500.572 435.579C500.572 435.579 504.741 432.782 504.682 432.708C504.206 432.099 503.695 431.462 503.155 430.811C503.069 430.707 498.071 434.324 498.071 434.324C498.071 434.324 502.719 430.291 502.63 430.186C501.984 429.424 501.301 428.647 500.587 427.875C500.555 427.839 499.196 428.993 497.836 430.148L495.075 432.43C495.075 432.43 500.239 427.5 500.163 427.419C499.399 426.609 498.604 425.809 497.786 425.041C497.728 424.987 491.715 430.696 491.715 430.696C491.715 430.696 497.415 424.696 497.315 424.605C496.304 423.682 495.261 422.813 494.202 422.041C494.102 421.968 488.33 429.401 488.33 429.401C488.33 429.401 493.652 421.649 493.526 421.563C492.139 420.613 490.73 419.841 489.334 419.339C489.166 419.278 485.025 428.284 485.025 428.284C485.025 428.284 488.405 419.04 488.193 418.984C486.441 418.52 484.569 418.377 482.667 418.461C482.499 418.468 480.574 428.016 480.574 428.016C480.574 428.016 481.796 418.514 481.614 418.529C479.896 418.677 478.167 418.994 476.491 419.411C476.324 419.452 475.506 427.327 475.506 427.327C475.506 427.327 475.731 419.607 475.603 419.642C474.139 420.041 472.725 420.509 471.407 420.999C471.226 421.066 470.692 426.23 470.692 426.23C470.692 426.23 470.498 421.345 470.315 421.417C466.011 423.118 462.966 424.914 462.966 424.914C462.966 424.914 464.861 427.956 467.96 431.491C468.138 431.695 473.272 428.873 473.459 429.08C473.641 429.282 468.876 432.512 469.066 432.716C469.987 433.705 470.993 434.71 472.068 435.677C472.282 435.868 478.81 430.725 479.029 430.914C479.193 431.056 473.048 436.53 473.216 436.67C474.499 437.739 475.869 438.736 477.302 439.582C477.513 439.707 483.163 432.311 483.376 432.429C483.593 432.548 478.373 440.18 478.592 440.292C479.856 440.938 481.163 441.455 482.5 441.793C482.661 441.834 487.038 433.708 487.202 433.744C487.511 433.813 483.612 442.039 483.931 442.093C485.284 442.321 486.719 442.419 488.189 442.417C488.425 442.416 490.634 434.707 490.871 434.701C491.204 434.694 489.567 442.388 489.902 442.372C491.216 442.306 492.543 442.173 493.852 441.992C494.056 441.964 494.598 435.788 494.801 435.758C495.072 435.717 495.005 441.821 495.274 441.777C496.508 441.575 497.715 441.336 498.868 441.081C499.201 441.007 499.37 437.11 499.693 437.034C499.891 436.987 500.246 440.761 500.44 440.714C501.823 440.376 503.098 440.024 504.212 439.695C504.444 439.626 502.901 437.995 503.118 437.929C503.361 437.855 505.363 439.346 505.587 439.276C507.495 438.676 508.667 438.23 508.667 438.23Z" fill="#CEA6DC"/>
<path opacity="0.3" d="M523.667 353.486C523.667 353.486 495.667 371.986 475.667 409.486" stroke="white" stroke-width="0.5"/>
<path d="M473.009 326.205C471.914 319.629 467.691 313.523 461.904 309.921C454.553 305.381 444.856 304.754 438.444 311.017C434.064 315.245 429.998 320.412 429.059 326.362C427.574 335.782 430.52 367.16 424.411 375.5C418.302 383.8 419.794 388.819 427.339 396.978C430.311 399.952 434.221 401.988 438.444 402.771C442.487 403.507 445.457 404.12 449.392 405.433V405.119C450.018 405.641 450.852 405.954 451.709 406.059C452.138 406.111 452.572 406.111 452.989 406.059C454.71 405.746 456.117 404.963 457.681 404.18C467.065 399.664 470.195 403.502 468.411 391C476.411 375.5 476.778 346.013 473.009 326.205Z" fill="#1D1B3E"/>
<path d="M458.307 337.009L449.861 340.297L441.103 337.948C447.202 346.873 442.354 354.232 442.354 354.232C445.951 355.955 448.766 356.424 450.8 356.268C452.833 356.111 455.492 355.328 458.933 353.136C458.933 353.293 453.146 346.56 458.307 337.009Z" fill="#F1C0C0"/>
<path d="M449.861 312.896C444.543 313.209 440.164 317.124 437.818 322.291C437.975 325.892 438.287 329.65 438.444 333.251C438.6 336.383 438.913 339.671 440.008 342.802C441.259 346.247 443.605 348.282 446.733 350.005C448.297 350.944 450.174 351.727 452.051 352.04C452.051 352.04 452.051 352.04 452.207 352.04C452.207 352.04 452.207 352.04 452.364 352.04C454.084 351.414 455.805 350.474 457.369 349.378C460.184 347.343 462.374 344.994 463.156 341.393C463.781 338.262 463.781 334.817 463.625 331.842C463.468 328.241 463.312 324.483 462.999 320.882C459.871 316.028 455.179 312.583 449.861 312.896Z" fill="#F1C0C0"/>
<path d="M479.706 368.683C479.706 368.683 488.384 397.442 485.758 400.333C483.132 403.223 478.24 403.014 478.24 403.014C477.034 398.261 470.429 373.302 470.353 371.418C470.29 369.221 471.457 367.547 473.678 366.858C473.678 366.858 477.958 365.63 479.706 368.683Z" fill="#E7B7B7"/>
<path d="M471.411 417L446.153 422.072L424.911 413C424.911 413 410.321 444.015 433.756 445.121C438.675 445.353 442.191 444.586 444.868 443.157C447.254 444.825 450.675 446.075 455.586 446.462C479.123 448.506 471.411 417 471.411 417Z" fill="#31336F"/>
<path d="M423.116 370.36C423.116 370.36 414.201 398.543 419.362 406.529L426.088 408.094C427.026 403.397 432.813 374.117 432.813 372.238C432.813 370.046 431.405 368.481 429.059 367.854C429.059 368.168 424.68 367.228 423.116 370.36Z" fill="#E7B7B7"/>
<path d="M433.126 357.677C431.875 357.99 430.78 358.46 429.529 358.773C429.372 358.93 429.216 358.93 429.059 359.086C427.339 360.495 426.244 362.218 425.149 364.097C422.647 368.637 421.083 373.335 419.988 378.188C419.675 379.754 419.05 383.982 419.05 383.982L439.851 386.33L434.221 357.364C434.064 357.52 433.752 357.52 433.126 357.677Z" fill="url(#paint1_linear_40_20)"/>
<path d="M466.127 354.546C467.378 354.702 468.63 354.859 469.724 355.015C469.881 355.172 470.037 355.172 470.194 355.328C472.071 356.424 473.478 357.99 474.729 359.712C477.857 363.783 480.204 368.324 481.924 372.865C482.55 374.431 483.644 378.502 483.644 378.502L463.468 383.825L464.719 354.389C465.032 354.389 465.501 354.546 466.127 354.546Z" fill="url(#paint2_linear_40_20)"/>
<path d="M475.042 380.537C473.635 372.082 468.473 364.41 469.099 355.798C468.63 355.485 468.16 355.172 467.535 355.015C463.312 353.606 457.994 352.04 455.805 351.414C455.023 351.101 454.084 350.944 453.146 351.101L450.956 351.257V351.101H451.894L448.141 351.257V351.414L445.951 351.57C445.013 351.57 444.231 351.884 443.449 352.353C441.415 353.449 435.941 355.641 431.875 357.677C431.249 357.99 430.936 358.303 430.467 358.773C432.344 367.228 428.747 375.683 428.59 384.138C428.434 390.088 430.623 392.124 434.221 396.351C438.131 400.892 437.662 409.973 436.88 418.272C436.567 421.716 470.693 418.788 469.911 415.5C468.034 407.358 468.004 398.7 471.289 393.533C474.26 388.679 475.981 386.33 475.042 380.537Z" fill="#F1C0C0"/>
<path d="M475.355 380.38C473.947 371.925 469.568 364.253 470.194 355.485C469.725 355.172 469.255 354.859 468.63 354.702C466.127 353.919 463.938 352.98 460.809 352.353C461.122 352.98 459.089 359.399 451.425 359.556C441.572 359.556 439.538 353.449 439.538 353.449C436.567 354.545 433.282 356.424 431.093 357.52C430.467 357.834 430.154 358.147 429.685 358.616C431.562 367.072 427.965 375.527 427.808 383.982C427.652 389.932 429.841 391.967 433.439 396.195C437.349 400.735 433.439 409.19 429.998 419.368C428.903 422.656 473.635 424.535 472.853 421.09C470.976 412.948 468.16 398.387 471.445 393.376C474.729 388.679 476.45 386.33 475.355 380.38Z" fill="url(#paint3_linear_40_20)"/>
<path d="M445.381 374.6L456.611 375.435L458.442 350.763L447.211 349.928L445.381 374.6Z" fill="#1D1B3E"/>
<path d="M440.946 372.082C440.946 372.082 419.206 390.871 417.798 395.725C417.173 397.76 416.704 400.892 417.798 402.771C419.206 405.119 422.49 404.963 424.68 404.493C429.842 403.084 432.5 396.821 435.316 392.906C436.723 391.028 444.856 378.345 445.482 377.405L455.023 369.107C455.648 368.481 455.492 367.228 455.179 366.602C454.866 365.662 453.928 365.662 453.459 364.879C453.146 364.253 453.302 363.627 453.302 363C453.459 362.061 452.677 361.904 451.895 361.278C451.738 361.122 452.051 359.556 452.051 359.399C452.051 358.773 452.364 357.99 452.207 357.364C452.207 356.424 451.269 356.268 450.487 356.268L445.795 363.47L446.141 360.003C446.186 359.556 445.663 359.282 445.32 359.572L444.231 360.495L442.354 368.324L440.946 372.082Z" fill="#F1C0C0"/>
<path d="M450.051 370.804C450.364 369.864 451.302 369.708 451.771 368.925C452.084 368.299 451.928 367.672 451.928 367.046C451.771 365.95 452.553 365.793 453.336 365.324C453.492 365.167 453.179 363.445 453.179 363.288C453.179 362.662 452.866 361.879 452.866 361.096C452.866 360.27 453.591 360.049 454.298 360.008C454.476 359.998 454.642 360.095 454.731 360.25L458.911 367.5C459.068 366.561 459.279 363.758 459.592 362.505C460.061 360.783 461.781 361.722 461.781 361.722C461.312 362.818 461.312 364.071 461.469 365.167L462.094 367.985L463.189 372.526L465.066 376.597C465.066 376.597 483.834 389.749 485.398 394.76C486.024 396.795 486.65 400.083 485.398 402.119C483.209 405.877 478.204 404.468 475.232 402.589C471.166 400.083 469.289 395.543 466.786 391.628C465.691 390.063 464.753 388.497 463.658 386.931C462.72 385.522 461.625 383.486 460.374 382.234C460.374 382.234 450.364 373.779 450.364 373.622C449.738 372.839 449.895 371.587 450.051 370.804Z" fill="#F1C0C0"/>
<path d="M412.684 487.454C413.145 479.407 413.979 472.116 414.642 468.608L403.317 468.249C403.854 473.006 402.28 487.127 404.338 495.347C406.159 502.618 410.094 506.079 413.293 495.138L412.684 487.454Z" fill="#F1C0C0"/>
<path d="M403.192 480.892C403.353 482.921 403.31 484.358 403.627 486.375C403.87 489.445 403.703 493.663 407.972 493.325C414.339 492.82 411.262 487.776 412.821 482.135C412.925 490.399 417.503 499.164 414.087 507.133C412.744 509.99 410.324 512.709 406.888 511.316C404.237 510.242 402.57 506.026 402.035 503.533C400.653 496.576 401.159 487.765 403.192 480.892Z" fill="#98ABFD"/>
<path d="M440.008 403.084C437.349 411.382 414.911 470 413.888 478.553C412.865 487.107 400.653 479.223 401.532 476.361C402.411 473.5 404.66 423.595 422.334 396.977C426.303 391 440.008 390 440.008 403.084Z" fill="#4043AF"/>
<path d="M478.792 477.52C480.125 474.14 478.395 470.228 474.932 469.131L470.596 467.758C469.981 471.346 468.407 478.458 466.207 486.233L462.209 492.237C461.614 507.016 469.554 505.9 473.121 494C475.118 487.337 477.146 481.696 478.792 477.52Z" fill="#F1C0C0"/>
<path d="M476.103 488.492C476.498 486.429 477.36 482.629 477.411 480.5C476.311 483.102 474.838 487.582 473.455 490.05C472.317 492.08 471.253 493.314 468.778 493.643C465.993 494.013 463.731 492.238 465.314 489.412C465.812 488.296 469.372 480.182 468.411 478.5C468.411 478.5 466.455 483.073 464.918 486.271C462.204 491.914 457.984 498.068 458.552 504.651C458.621 506.997 460.509 511.746 463.706 510.846C466.565 510.764 469.62 507.309 470.862 505.093C473.659 500.1 474.799 494 476.103 488.492Z" fill="#98ABFD"/>
<path d="M443.254 403.169C445.722 411.594 468.433 476.158 469.037 478.837C469.641 481.517 480.504 480.105 479.989 472.738C479.053 459.352 475.174 419.689 461.175 397.598C456.911 387.5 437.944 385.034 443.254 403.169Z" fill="#4043AF"/>
<path d="M437.411 318C436.611 318.4 436.078 325.167 435.911 328.5C446.578 328.833 467.911 337.3 467.911 336.5C467.911 335.5 466.411 321.5 464.911 319C463.411 316.5 459.411 313.5 458.911 313C458.411 312.5 449.411 311.5 444.911 312C440.411 312.5 438.411 317.5 437.411 318Z" fill="#1D1B3E"/>
<defs>
<linearGradient id="paint0_linear_40_20" x1="67.9998" y1="213" x2="222.607" y2="241" gradientUnits="userSpaceOnUse">
<stop stop-color="#2A2895"/>
<stop offset="1" stop-color="#793BC8"/>
</linearGradient>
<linearGradient id="paint1_linear_40_20" x1="419.408" y1="371.83" x2="440.228" y2="371.83" gradientUnits="userSpaceOnUse">
<stop stop-color="#FF6570"/>
<stop offset="1" stop-color="#EC374F"/>
</linearGradient>
<linearGradient id="paint2_linear_40_20" x1="463.331" y1="369.15" x2="483.576" y2="369.15" gradientUnits="userSpaceOnUse">
<stop stop-color="#FF6570"/>
<stop offset="1" stop-color="#EC374F"/>
</linearGradient>
<linearGradient id="paint3_linear_40_20" x1="441.644" y1="345.939" x2="472.713" y2="418.77" gradientUnits="userSpaceOnUse">
<stop stop-color="#FF6570"/>
<stop offset="1" stop-color="#EC374F"/>
</linearGradient>
</defs>
</svg>
