<svg width="99" height="17" viewBox="0 0 99 17" fill="none" xmlns="http://www.w3.org/2000/svg">
<path d="M6.86 16.156C4.62 16.156 2.912 15.54 1.736 14.308C0.578667 13.0573 0 11.3027 0 9.044V4H3.052V9.016C3.052 10.1733 3.23867 11.0693 3.612 11.704C3.98533 12.3387 4.46133 12.7867 5.04 13.048C5.61867 13.3093 6.22533 13.44 6.86 13.44C7.56933 13.44 8.21333 13.3187 8.792 13.076C9.37067 12.8147 9.828 12.3667 10.164 11.732C10.5187 11.0973 10.696 10.192 10.696 9.016V4H13.72V9.044C13.72 11.34 13.1413 13.104 11.984 14.336C10.8453 15.5493 9.13733 16.156 6.86 16.156Z" fill="white"/>
<path d="M21.0203 15.764H18.1643V0H24.4923C26.247 0 27.6097 0.438667 28.5803 1.316C29.551 2.19333 30.0363 3.51867 30.0363 5.292C30.0363 6.84133 29.5323 8.05467 28.5243 8.932C27.535 9.80933 26.191 10.248 24.4923 10.248H21.0203V15.764ZM24.1003 2.324H21.0203V8.148H24.1003C25.1083 8.148 25.9203 7.90533 26.5363 7.42C27.1523 6.93467 27.4603 6.20667 27.4603 5.236C27.4603 4.24667 27.1523 3.51867 26.5363 3.052C25.939 2.56667 25.127 2.324 24.1003 2.324Z" fill="white"/>
<g opacity="0.6">
<path d="M33.6776 15.764V0H36.5336V13.328H44.3176V15.764H33.6776Z" fill="white"/>
<path d="M46.998 15.764L52.038 0H56.714L61.894 15.764H58.842L57.498 11.312H51.366L50.022 15.764H46.998ZM54.418 1.204L52.038 9.1H56.826L54.418 1.204Z" fill="white"/>
<path d="M76.1293 0H79.0973V15.764H73.6653L68.2613 1.26H68.2053V15.764H65.2653V0H70.3053L76.0733 14.504H76.1293V0Z" fill="white"/>
<path d="M98.0658 7.868C98.0658 9.94 97.6551 11.5547 96.8338 12.712C96.0311 13.8507 94.8925 14.644 93.4178 15.092C91.9431 15.54 90.2071 15.764 88.2098 15.764H83.8698V0H88.2098C90.2071 0 91.9431 0.298667 93.4178 0.896001C94.8925 1.47467 96.0311 2.34267 96.8338 3.5C97.6551 4.65733 98.0658 6.11333 98.0658 7.868ZM86.6978 13.412H89.0218C90.2538 13.412 91.3178 13.272 92.2138 12.992C93.1098 12.6933 93.8005 12.1427 94.2858 11.34C94.7711 10.5373 95.0138 9.37067 95.0138 7.84C95.0138 6.02933 94.4725 4.68533 93.3898 3.808C92.3258 2.912 90.8698 2.464 89.0218 2.464H86.6978V13.412Z" fill="white"/>
</g>
<circle cx="1.5" cy="1.5" r="1.5" fill="#FF6231"/>
<circle cx="12.2" cy="1.5" r="1.5" fill="#FF6231"/>
</svg>
