<svg width="927" height="523" viewBox="0 0 927 523" fill="none" xmlns="http://www.w3.org/2000/svg">
<path d="M835.187 412.283L782.429 394.725L771 428.963L823.758 446.521L835.187 412.283Z" fill="#A94C2F"/>
<path d="M835.173 412.266L782.442 394.731L813.733 382.761C815.07 382.25 816.581 382.754 817.343 383.964L835.173 412.266Z" fill="#FF6231"/>
<path d="M829.74 405.189L791.312 392.401C790.263 392.052 789.13 392.618 788.781 393.666L778.163 425.474C777.813 426.522 778.379 427.654 779.427 428.003L817.856 440.791C818.904 441.14 820.037 440.574 820.387 439.526L831.005 407.718C831.354 406.67 830.788 405.538 829.74 405.189Z" fill="white"/>
<g filter="url(#filter0_d_86_141)">
<path d="M782.442 394.731L771.013 428.965L802.652 421.822L782.442 394.731Z" fill="url(#paint0_linear_86_141)"/>
</g>
<g filter="url(#filter1_d_86_141)">
<path d="M835.173 412.266L823.744 446.5L802.698 421.822L835.173 412.266Z" fill="url(#paint1_linear_86_141)"/>
</g>
<path d="M823.744 446.5L771.013 428.965L802.305 416.995C803.641 416.484 805.152 416.988 805.915 418.198L823.744 446.5Z" fill="#FF6231"/>
<path d="M794.5 99.5C785.374 110.367 773.506 144.384 761.906 152.845C729.644 178.663 717.776 123.811 693.49 130C654.285 139.991 662.757 190.192 646.5 208.5C624.621 233.429 565.669 249.897 555.411 277.522C539.604 318.675 573.782 358.551 543.25 404.865C535.595 416.2 526.269 430.243 533.257 441.374C559.891 440.606 581.022 450.893 605.502 458.677C628.465 467.046 672.479 469.836 688.812 446.289C700.141 429.23 692.671 398.003 690.813 378.891C710.843 359.354 746.77 390.419 769.5 366C802.121 330.955 760.882 283.611 764.462 251.37C767.068 227.901 831.474 227.946 855.5 219C894 204.665 937.945 126.822 878.041 78.0006C851.93 56.72 812.752 77.7656 794.5 99.5Z" fill="#4043AF"/>
<path d="M849 133C830.845 144.315 797.364 170.439 779 189M584.291 404.96C586.796 376.971 629.91 342.706 629.91 342.706M709.157 198.392C702.922 217.999 719.832 232.172 719.832 232.172M719.832 232.172C719.832 232.172 699.99 249.627 688.834 262.294C675.969 276.903 669.426 285.832 659.372 302.5M719.832 232.172C719.832 232.172 750.963 217.338 779 189M594.31 293.003C596.691 325.744 629.91 342.706 629.91 342.706M629.91 342.706C629.91 342.706 647.867 318.202 659.372 302.5M659.372 302.5C684.003 310.333 692.375 326.589 722.443 322.558M779 189C779 189 816 199.5 854 172" stroke="white" stroke-opacity="0.2" stroke-width="2" stroke-linecap="round" stroke-linejoin="round"/>
<path d="M172.246 131.566C175.671 140.313 175.919 164.162 181.405 171.923C196.18 194.943 215.229 163.046 229.153 172.066C251.631 186.627 235.697 216.324 242.022 231.247C250.472 251.512 283.967 274.314 284.558 293.812C285.767 322.97 255.892 340.752 265.246 376.262C267.65 384.992 270.529 395.774 263.791 401.278C247.247 395.161 231.816 397.143 214.814 396.847C198.64 397.239 170.441 389.678 165.177 371.453C161.68 358.355 172.971 340.348 178.18 328.753C169.749 312.261 140.641 324.146 131.55 304.021C118.501 275.137 154.385 254.164 158.96 233.184C162.29 217.911 121.88 204.314 108.702 193.62C87.5853 176.484 76.4873 118.359 124.391 100.407C145.272 92.5826 165.395 114.072 172.246 131.566Z" fill="#4043AF"/>
<path d="M130.973 141.05C139.967 151.988 155.442 175.458 163.035 190.985M239.482 367.64C243.833 349.553 224.037 318.94 224.037 318.94M204.858 211.652C204.621 225.269 191.016 230.583 191.016 230.583M191.016 230.583C191.016 230.583 199.769 245.729 204.087 256.035C209.067 267.92 211.282 274.905 214.062 287.487M191.016 230.583C191.016 230.583 174.626 214.692 163.035 190.985M256.883 295.294C248.463 315.328 224.037 318.94 224.037 318.94M224.037 318.94C224.037 318.94 217.958 299.77 214.062 287.487M214.062 287.487C196.955 287.19 188.265 295.616 170.257 286.727M163.035 190.985C163.035 190.985 137.605 189.744 119.586 164.456" stroke="white" stroke-opacity="0.2" stroke-width="2" stroke-linecap="round" stroke-linejoin="round"/>
<path d="M269.559 53.08C280.361 53.08 289.118 44.3211 289.118 33.5164C289.118 22.7117 280.361 13.9528 269.559 13.9528C258.757 13.9528 250 22.7117 250 33.5164C250 44.3211 258.757 53.08 269.559 53.08Z" fill="url(#paint2_linear_86_141)"/>
<path d="M265.814 45.6434L258.962 33.7725C257.255 30.8157 258.266 27.0431 261.222 25.3358C264.179 23.6284 267.951 24.639 269.657 27.5959L270.335 28.7699L271.726 27.9665C274.683 26.2591 278.454 27.2697 280.161 30.2266C281.868 33.1834 280.857 36.956 277.9 38.6633L265.814 45.6434Z" fill="white"/>
<path d="M785.074 312.263C801.375 316.246 817.822 306.257 821.81 289.951C825.798 273.645 815.816 257.196 799.515 253.213C783.214 249.229 766.767 259.219 762.78 275.525C758.792 291.831 768.774 308.279 785.074 312.263Z" fill="url(#paint3_linear_86_141)"/>
<path d="M786.773 294.263C789.354 294.263 791.651 293.743 793.649 292.846C794.047 292.668 795 293.5 795 293.5C795 293.5 795.617 291.793 796 291.532C800.701 288.335 803.191 282.839 803.191 277.845C803.191 277.595 803.186 277.346 803.175 277.099C804.302 276.285 805.281 275.268 806.053 274.111C805.019 274.571 803.167 274.86 802 275C803.191 274.285 804.846 273.175 805.277 271.828C804.162 272.489 802.927 272.969 801.613 273.229C800.56 272.107 798.16 271.5 796.5 271.5C793.314 271.5 791.63 273.99 791.63 277.175C791.63 277.628 791.681 278.068 791.78 278.491C786.984 278.249 782.731 275.953 779.885 272.462C777.928 277.845 782.047 279.029 785 281C784.053 280.971 779.836 279.876 779.059 279.444C779.058 279.468 779.058 279.492 779.058 279.517C779.058 282.312 784 285.816 787 285C786.515 285.132 782.692 285.377 782.166 285.377C781.795 285.377 779.352 285.568 779 285.5C779.735 287.793 784 290 786.472 289.281C784.497 290.829 782.009 291.751 779.305 291.751C778.84 291.751 778.38 291.724 777.928 291.671C780.482 293.308 783.514 294.263 786.773 294.263Z" fill="white"/>
<path d="M255.27 131.43L277.5 135.5L187.623 179.449L255.27 131.43Z" fill="#FFDF08"/>
<path d="M187.623 179.449L255 150L255.5 146L187.623 179.449Z" fill="#FFA808"/>
<path d="M187.624 179.449L250.614 128.364L255.271 131.426L187.624 179.449Z" fill="#FFA808"/>
<path d="M187.624 179.45L245.5 112L250.614 128.365L187.624 179.45Z" fill="#FFDF08"/>
<path d="M548.847 452.132C548.976 451.131 549.728 450.324 550.761 450.177C617.111 440.71 664.781 371.785 665.253 371.095C665.959 370.085 667.349 369.798 668.385 370.48C669.42 371.161 669.681 372.575 668.999 373.611C668.501 374.325 619.78 444.878 551.439 454.615C550.203 454.807 549.073 453.921 548.906 452.711C548.836 452.534 548.842 452.333 548.847 452.132Z" fill="#CEA6DC"/>
<path d="M659.905 381.592C659.905 381.592 713.897 388.113 721.187 320.976C721.363 319.353 705.841 339.187 705.961 337.476C706.097 335.534 719.397 322.977 721.929 309.976C724.461 296.976 721.744 291.613 720.457 280.749C720.457 280.749 710.796 299.006 679.461 314.976C664.54 322.588 655.961 339.976 654.961 348.476C653.961 356.976 657.961 365.976 657.961 365.976C657.925 367.159 651.733 357.327 651.811 358.476C652.671 371.233 659.905 381.592 659.905 381.592Z" fill="#CEA6DC"/>
<path d="M557.283 452.349C557.283 452.248 557.333 452.148 557.334 452.047C557.635 450.842 558.84 450.089 560.045 450.39C624.966 465.788 671.774 415.376 672.251 414.849C673.079 413.92 674.51 413.844 675.414 414.697C676.318 415.551 676.393 416.981 675.564 417.86C675.087 418.387 626.471 470.758 558.99 454.708C557.91 454.482 557.183 453.453 557.283 452.349Z" fill="#CEA6DC"/>
<path d="M666.898 423.729C666.898 423.729 694.136 436.124 712.778 412.213C713.432 411.375 696.705 418.711 696.705 418.711C696.705 418.711 711.206 410.722 715.207 406.213C719.207 401.704 720.87 398.412 722.783 392.714C723.163 391.583 712.425 398.916 712.78 397.713C712.78 397.713 720.696 392.214 724.453 387.214C728.209 382.215 727.907 371.742 728.828 361.973C728.828 361.973 719.718 374.885 694.209 380.711C661.871 388.145 666.898 423.729 666.898 423.729Z" fill="#CEA6DC"/>
<path d="M557.283 452.349C557.333 451.696 557.71 451.068 558.313 450.667C584.577 433.743 593.043 406.306 593.119 406.03C593.47 404.825 594.726 404.172 595.931 404.523C597.136 404.874 597.813 406.154 597.437 407.334C597.085 408.539 588.468 436.629 560.747 454.456C559.718 455.134 558.312 454.833 557.634 453.804C557.358 453.328 557.258 452.825 557.283 452.349Z" fill="#CEA6DC"/>
<path d="M592.768 412.323C592.768 412.323 583.075 401.092 582.04 384.227C581.98 383.245 587.148 390.727 587.148 390.727C587.148 390.727 582.648 379.227 585.648 360.727C588.648 342.227 597.265 332.934 648.098 308.518C648.098 308.518 643.932 318.727 638.79 331.227C633.648 343.727 623.148 353.727 623.148 353.727C623.148 353.727 639.026 342.581 638.79 343.727C637.039 352.225 634.378 356.599 635.148 367.727C638.226 412.23 592.768 412.323 592.768 412.323Z" fill="#CEA6DC"/>
<path d="M667.798 487.27C667.798 487.27 676.5 475 691.686 483.322C691.639 483.322 685 495 667.798 487.27Z" fill="white"/>
<path d="M682.31 497.469C682.31 497.469 693 494 695.139 505.875C695.117 505.855 684 509.5 682.31 497.469Z" fill="white"/>
<path d="M643.392 475.098C643.392 475.098 653 460 671.889 467.579C671.842 467.532 664.5 481 643.392 475.098Z" fill="white"/>
<path d="M616.059 464.699C616.059 464.699 624.5 442 652.503 449.661C652.503 449.661 646 469.5 616.059 464.699Z" fill="white"/>
<path d="M580.475 456.441C580.475 456.441 589.5 432 616.918 441.403C616.871 441.403 608.454 459.825 580.475 456.441Z" fill="white"/>
<path d="M655.572 480.267C655.572 480.267 648.5 492.5 663.895 502.966C663.895 502.966 669.5 489 655.572 480.267Z" fill="white"/>
<path d="M629.088 469C629.088 469 621 487 639.151 496.445C639.151 496.445 647.5 479 629.088 469Z" fill="white"/>
<path d="M600.858 460.469C600.858 460.469 590 479.5 612.99 493.601C612.99 493.601 622.5 472.5 600.858 460.469Z" fill="white"/>
<path d="M563.725 454.608C563.725 454.608 557.5 477 583.522 483.792C583.522 483.792 589.5 464 563.725 454.608Z" fill="white"/>
<path d="M539 454.185L539 451.13C539.94 451.13 633.659 452.493 692.72 502.918L690.792 505.174C632.577 455.5 539.94 454.232 539 454.185Z" fill="white"/>
<path d="M603 460.5C603 458.567 604.567 457 606.5 457C608.433 457 610 458.567 610 460.5C610 462.433 608.433 464 606.5 464C604.567 464 603 462.433 603 460.5Z" fill="#FF6231"/>
<path d="M579 459.5C579 457.567 580.567 456 582.5 456C584.433 456 586 457.567 586 459.5C586 461.433 584.433 463 582.5 463C580.567 463 579 461.433 579 459.5Z" fill="#FF6231"/>
<path d="M619 470C619 468.343 620.343 467 622 467C623.656 467 625 468.343 625 470C625 471.657 623.656 473 622 473C620.343 473 619 471.657 619 470Z" fill="#FF6231"/>
<path d="M660 480.5C660 479.119 661.119 478 662.5 478C663.88 478 665 479.119 665 480.5C665 481.881 663.88 483 662.5 483C661.119 483 660 481.881 660 480.5Z" fill="#FF6231"/>
<path d="M114.478 403.657C114.478 403.657 113.077 388.68 95.764 388.294C95.8048 388.318 95.7156 401.751 114.478 403.657Z" fill="white"/>
<path d="M96.8106 405.234C96.8106 405.234 89.2871 396.884 81.4975 406.099C81.5266 406.093 89.3315 414.808 96.8106 405.234Z" fill="white"/>
<path d="M141.7 405.319C141.7 405.319 140.928 387.44 120.781 384.558C120.845 384.541 120.469 399.876 141.7 405.319Z" fill="white"/>
<path d="M170.57 409.979C170.57 409.979 174.61 386.101 146.528 378.734C146.528 378.734 142.241 399.167 170.57 409.979Z" fill="white"/>
<path d="M205.516 420.62C205.516 420.62 209.921 394.941 181.474 389.375C181.515 389.398 179.594 409.561 205.516 420.62Z" fill="white"/>
<path d="M128.567 403.706C128.567 403.706 128.576 417.836 110.01 419.202C110.01 419.202 112.139 404.305 128.567 403.706Z" fill="white"/>
<path d="M157.137 407.19C157.137 407.19 155.141 426.822 134.699 425.926C134.699 425.926 136.192 406.644 157.137 407.19Z" fill="white"/>
<path d="M185.85 413.917C185.85 413.917 185.738 435.827 158.777 436.544C158.777 436.544 161.092 413.515 185.85 413.917Z" fill="white"/>
<path d="M220.939 427.408C220.939 427.408 215.134 449.912 189.202 442.783C189.202 442.783 193.921 422.654 220.939 427.408Z" fill="white"/>
<path d="M242.563 439.403L244.09 436.758C243.276 436.288 161.432 390.609 85.07 404.748L85.6118 407.665C160.865 393.754 241.725 438.974 242.563 439.403Z" fill="white"/>
<path d="M183.98 412.873C184.946 411.199 184.373 409.058 182.699 408.092C181.025 407.125 178.884 407.699 177.917 409.373C176.951 411.047 177.525 413.187 179.199 414.154C180.873 415.12 183.013 414.547 183.98 412.873Z" fill="#FF6231"/>
<path d="M205.264 424.007C206.231 422.333 205.657 420.192 203.983 419.226C202.309 418.259 200.169 418.833 199.202 420.507C198.236 422.181 198.809 424.321 200.483 425.288C202.157 426.254 204.298 425.681 205.264 424.007Z" fill="#FF6231"/>
<path d="M165.374 413.1C166.202 411.665 165.71 409.83 164.276 409.002C162.841 408.174 161.006 408.665 160.177 410.1C159.349 411.535 159.841 413.37 161.276 414.198C162.71 415.027 164.545 414.535 165.374 413.1Z" fill="#FF6231"/>
<path d="M124.617 401.693C125.307 400.498 124.897 398.969 123.701 398.278C122.506 397.588 120.977 397.998 120.286 399.193C119.596 400.389 120.006 401.918 121.201 402.608C122.397 403.299 123.926 402.889 124.617 401.693Z" fill="#FF6231"/>
<path d="M647.122 257.837C647.122 257.837 654.813 262.599 661.28 254.436C661.254 254.447 654.844 249.53 647.122 257.837Z" fill="white"/>
<path d="M652.776 248.791C652.776 248.791 659.51 248.213 657.917 241.133C657.91 241.149 650.898 241.73 652.776 248.791Z" fill="white"/>
<path d="M636.448 270.29C636.448 270.29 645.303 276.407 653.995 267.789C653.98 267.826 646.761 262.082 636.448 270.29Z" fill="white"/>
<path d="M623.737 282.445C623.737 282.445 633.723 293.047 647.446 282.252C647.446 282.252 639.202 272.781 623.737 282.445Z" fill="white"/>
<path d="M605.954 295.345C605.954 295.345 616.672 306.775 629.663 295.151C629.637 295.162 620.664 286.925 605.954 295.345Z" fill="white"/>
<path d="M641.986 264.576C641.986 264.576 635.207 259.454 641.288 250.054C641.288 250.054 647.66 256.48 641.986 264.576Z" fill="white"/>
<path d="M629.949 277.014C629.949 277.014 621.257 268.934 629.104 259.455C629.104 259.455 637.811 267.167 629.949 277.014Z" fill="white"/>
<path d="M616.304 288.345C616.304 288.345 605.837 280.341 615.276 267.151C615.276 267.151 625.48 276.617 616.304 288.345Z" fill="white"/>
<path d="M597.102 300.279C597.102 300.279 588.415 289.329 601.244 279.479C601.244 279.479 609.185 289.046 597.102 300.279Z" fill="white"/>
<path d="M583.503 306.297L584.218 307.99C584.739 307.77 636.343 285.091 657.269 243.337L655.673 242.538C635.04 283.678 584.013 306.051 583.503 306.297Z" fill="white"/>
<path d="M617.484 287.827C617.936 288.898 619.171 289.399 620.242 288.947C621.313 288.495 621.814 287.26 621.362 286.189C620.91 285.118 619.675 284.617 618.604 285.069C617.533 285.521 617.032 286.756 617.484 287.827Z" fill="#FF6231"/>
<path d="M604.421 293.995C604.873 295.066 606.108 295.568 607.179 295.115C608.25 294.663 608.751 293.428 608.299 292.358C607.847 291.287 606.612 290.785 605.541 291.237C604.47 291.689 603.969 292.924 604.421 293.995Z" fill="#FF6231"/>
<path d="M624.126 278.821C624.513 279.738 625.572 280.168 626.49 279.781C627.408 279.393 627.838 278.335 627.45 277.417C627.062 276.499 626.004 276.069 625.086 276.457C624.168 276.844 623.738 277.903 624.126 278.821Z" fill="#FF6231"/>
<path d="M644.385 263.412C644.708 264.177 645.59 264.535 646.355 264.212C647.12 263.889 647.478 263.007 647.155 262.242C646.832 261.477 645.95 261.119 645.185 261.442C644.42 261.765 644.062 262.647 644.385 263.412Z" fill="#FF6231"/>
<path d="M183.434 349.199C183.434 349.199 174.786 351.852 170.603 342.314C170.626 342.332 178.074 339.203 183.434 349.199Z" fill="white"/>
<path d="M180.262 339.014C180.262 339.014 173.895 336.744 177.233 330.301C177.236 330.319 183.871 332.661 180.262 339.014Z" fill="white"/>
<path d="M190.597 363.953C190.597 363.953 180.479 367.622 174.26 357.08C174.265 357.12 182.705 353.396 190.597 363.953Z" fill="white"/>
<path d="M199.805 378.938C199.805 378.938 187.455 386.657 176.922 372.731C176.922 372.731 187.301 365.664 199.805 378.938Z" fill="white"/>
<path d="M213.731 395.93C213.731 395.93 200.462 404.264 190.848 389.723C190.87 389.74 201.641 384.051 213.731 395.93Z" fill="white"/>
<path d="M186.691 357.021C186.691 357.021 194.549 353.788 191.053 343.152C191.053 343.152 183.258 347.75 186.691 357.021Z" fill="white"/>
<path d="M195.176 372.108C195.176 372.108 205.634 366.499 200.451 355.338C200.451 355.338 190.072 360.587 195.176 372.108Z" fill="white"/>
<path d="M205.497 386.531C205.497 386.531 217.653 381.447 211.873 366.292C211.873 366.292 199.599 372.857 205.497 386.531Z" fill="white"/>
<path d="M221.039 402.949C221.039 402.949 232.222 394.564 222.315 381.779C222.315 381.779 212.204 389.016 221.039 402.949Z" fill="white"/>
<path d="M232.665 412.223L231.544 413.679C231.096 413.334 186.941 378.296 177.301 332.597L179.047 332.23C188.56 377.26 232.234 411.856 232.665 412.223Z" fill="white"/>
<path d="M204.487 385.73C203.778 386.652 202.456 386.823 201.535 386.114C200.614 385.405 200.443 384.083 201.152 383.162C201.861 382.241 203.183 382.069 204.104 382.779C205.025 383.488 205.196 384.809 204.487 385.73Z" fill="#FF6231"/>
<path d="M215.556 395.013C214.847 395.934 213.525 396.106 212.604 395.397C211.683 394.687 211.511 393.366 212.221 392.445C212.93 391.524 214.252 391.352 215.173 392.061C216.094 392.771 216.265 394.092 215.556 395.013Z" fill="#FF6231"/>
<path d="M200.349 375.333C199.742 376.123 198.609 376.27 197.819 375.662C197.03 375.054 196.883 373.921 197.491 373.132C198.098 372.342 199.231 372.195 200.021 372.803C200.81 373.411 200.957 374.544 200.349 375.333Z" fill="#FF6231"/>
<path d="M184.666 355.286C184.159 355.944 183.215 356.066 182.557 355.56C181.9 355.053 181.777 354.109 182.284 353.451C182.79 352.793 183.734 352.671 184.392 353.177C185.05 353.684 185.173 354.628 184.666 355.286Z" fill="#FF6231"/>
<path d="M693.671 164.286C707.296 164.286 718.342 153.238 718.342 139.61C718.342 125.981 707.296 114.933 693.671 114.933C680.045 114.933 669 125.981 669 139.61C669 153.238 680.045 164.286 693.671 164.286Z" fill="url(#paint4_linear_86_141)"/>
<g clip-path="url(#clip0_86_141)">
<path d="M692.67 149.16L690.072 150.66C689.612 150.925 689.066 150.997 688.554 150.86C688.042 150.723 687.605 150.388 687.34 149.928L683.84 143.866C683.574 143.407 683.503 142.861 683.64 142.348C683.777 141.836 684.112 141.399 684.572 141.134L687.17 139.634M692.232 134.402L690.232 130.938C689.834 130.249 689.179 129.746 688.41 129.54C687.642 129.334 686.823 129.442 686.134 129.84L687.17 139.634L692.67 149.16L702.438 143.52C702.859 143.284 703.18 142.903 703.342 142.449C703.504 141.995 703.496 141.497 703.321 141.048L700.016 132.564C699.91 132.294 699.747 132.05 699.538 131.849C699.328 131.649 699.078 131.496 698.804 131.401C698.53 131.307 698.238 131.273 697.95 131.303C697.662 131.332 697.383 131.424 697.134 131.572L692.232 134.402Z" stroke="white" stroke-width="2" stroke-linecap="round" stroke-linejoin="round"/>
</g>
<path d="M818.79 86.1598C814.636 83.7948 811.376 79.8325 810.01 74.8566C807.275 64.8898 813.142 54.6153 823.083 51.8888C833.047 49.1561 843.321 55.0279 846.05 64.9723C848.785 74.9392 842.918 85.2137 832.977 87.9402C831.292 88.4022 829.583 88.6223 827.906 88.6036C825.487 88.5766 820.428 94.415 818.5 95.9999C818.997 93.2113 821.454 87.6763 818.79 86.1598Z" fill="url(#paint5_linear_86_141)"/>
<path d="M834.075 71.7635C835.103 71.7575 835.931 70.9188 835.925 69.8902C835.919 68.8616 835.08 68.0327 834.052 68.0387C833.024 68.0447 832.196 68.8835 832.202 69.912C832.208 70.9406 833.047 71.7696 834.075 71.7635Z" fill="white"/>
<path d="M829.398 69.9288C829.403 70.6815 828.797 71.2948 828.045 71.2992C827.293 71.3037 826.68 70.6975 826.675 69.9448C826.671 69.1922 827.277 68.5788 828.028 68.5744C828.78 68.57 829.394 69.1762 829.398 69.9288Z" stroke="white"/>
<path d="M822.021 71.8348C823.049 71.8288 823.878 70.99 823.872 69.9615C823.865 68.9329 823.027 68.1039 821.999 68.11C820.97 68.116 820.142 68.9547 820.148 69.9833C820.154 71.0119 820.993 71.8409 822.021 71.8348Z" fill="white"/>
<path d="M810.708 100.785C813.451 96.4915 814.435 91.0787 812.979 85.7736C810.244 75.8067 799.954 69.9636 790.013 72.6901C780.072 75.4166 774.211 85.7135 776.94 95.658C779.675 105.625 789.965 111.468 799.906 108.742C801.357 108.344 802.732 107.782 804 107.078C806.958 105.434 815.074 110.252 818.23 111.416C817.037 109.868 809.798 102.209 810.708 100.785Z" fill="url(#paint6_linear_86_141)"/>
<path d="M788.967 92.6104C789.995 92.6044 790.824 91.7656 790.818 90.737C790.811 89.7085 789.973 88.8795 788.945 88.8856C787.916 88.8916 787.088 89.7303 787.094 90.7589C787.1 91.7875 787.939 92.6164 788.967 92.6104Z" fill="white"/>
<path d="M794.994 92.5748C796.022 92.5687 796.851 91.73 796.845 90.7014C796.838 89.6728 796 88.8439 794.972 88.8499C793.944 88.8559 793.115 89.6947 793.121 90.7233C793.128 91.7519 793.966 92.5808 794.994 92.5748Z" fill="white"/>
<path d="M802.349 90.669C802.353 91.4216 801.747 92.035 800.995 92.0394C800.243 92.0438 799.63 91.4376 799.625 90.685C799.621 89.9323 800.227 89.319 800.979 89.3146C801.73 89.3101 802.344 89.9163 802.349 90.669Z" stroke="white"/>
<defs>
<filter id="filter0_d_86_141" x="770.013" y="391.731" width="35.6384" height="38.2339" filterUnits="userSpaceOnUse" color-interpolation-filters="sRGB">
<feFlood flood-opacity="0" result="BackgroundImageFix"/>
<feColorMatrix in="SourceAlpha" type="matrix" values="0 0 0 0 0 0 0 0 0 0 0 0 0 0 0 0 0 0 127 0" result="hardAlpha"/>
<feOffset dx="1" dy="-1"/>
<feGaussianBlur stdDeviation="1"/>
<feColorMatrix type="matrix" values="0 0 0 0 0 0 0 0 0 0 0 0 0 0 0 0 0 0 0.4 0"/>
<feBlend mode="normal" in2="BackgroundImageFix" result="effect1_dropShadow_86_141"/>
<feBlend mode="normal" in="SourceGraphic" in2="effect1_dropShadow_86_141" result="shape"/>
</filter>
<filter id="filter1_d_86_141" x="800.698" y="409.266" width="36.4746" height="38.2339" filterUnits="userSpaceOnUse" color-interpolation-filters="sRGB">
<feFlood flood-opacity="0" result="BackgroundImageFix"/>
<feColorMatrix in="SourceAlpha" type="matrix" values="0 0 0 0 0 0 0 0 0 0 0 0 0 0 0 0 0 0 127 0" result="hardAlpha"/>
<feOffset dy="-1"/>
<feGaussianBlur stdDeviation="1"/>
<feColorMatrix type="matrix" values="0 0 0 0 0 0 0 0 0 0 0 0 0 0 0 0 0 0 0.4 0"/>
<feBlend mode="normal" in2="BackgroundImageFix" result="effect1_dropShadow_86_141"/>
<feBlend mode="normal" in="SourceGraphic" in2="effect1_dropShadow_86_141" result="shape"/>
</filter>
<linearGradient id="paint0_linear_86_141" x1="802.652" y1="411.848" x2="771.013" y2="411.848" gradientUnits="userSpaceOnUse">
<stop stop-color="#FFA979"/>
<stop offset="1" stop-color="#F99373"/>
</linearGradient>
<linearGradient id="paint1_linear_86_141" x1="835.173" y1="429.383" x2="802.698" y2="429.383" gradientUnits="userSpaceOnUse">
<stop stop-color="#FFA979"/>
<stop offset="1" stop-color="#F99373"/>
</linearGradient>
<linearGradient id="paint2_linear_86_141" x1="249.986" y1="33.5" x2="289.106" y2="33.5" gradientUnits="userSpaceOnUse">
<stop stop-color="#FC727C"/>
<stop offset="1" stop-color="#FA3A54"/>
</linearGradient>
<linearGradient id="paint3_linear_86_141" x1="796.558" y1="260.54" x2="782.676" y2="332.661" gradientUnits="userSpaceOnUse">
<stop stop-color="#AE8DEF"/>
<stop offset="0.9985" stop-color="#7546D9"/>
</linearGradient>
<linearGradient id="paint4_linear_86_141" x1="654.952" y1="113.027" x2="745.968" y2="175.524" gradientUnits="userSpaceOnUse">
<stop offset="0.00116186" stop-color="#24C2E4"/>
<stop offset="0.9958" stop-color="#045FF2"/>
</linearGradient>
<linearGradient id="paint5_linear_86_141" x1="821.818" y1="27.1851" x2="833.353" y2="106.597" gradientUnits="userSpaceOnUse">
<stop offset="0.1321" stop-color="#00A373"/>
<stop offset="1" stop-color="#1ABBC0"/>
</linearGradient>
<linearGradient id="paint6_linear_86_141" x1="777.905" y1="99.2237" x2="813.943" y2="89.3339" gradientUnits="userSpaceOnUse">
<stop stop-color="#FC727C"/>
<stop offset="1" stop-color="#FA3A54"/>
</linearGradient>
<clipPath id="clip0_86_141">
<rect width="24" height="24" fill="white" transform="translate(675.608 133.608) rotate(-30)"/>
</clipPath>
</defs>
</svg>
