<svg width="295" height="326" viewBox="0 0 295 326" fill="none" xmlns="http://www.w3.org/2000/svg">
<path opacity="0.5" d="M153 2.00003C126.182 -4.26156 105.333 13.6667 85.9998 24C66.6665 34.3334 21.3332 51 20.9999 79C20.6666 107 15.9999 181 15.9999 181C15.9999 181 -8.56354 226.323 4.99986 250C15.787 268.83 35.2155 265.564 52.9999 278C75.9109 294.022 79.2863 321.317 107 325C129.526 327.994 162 306 162 306L213 269C213 269 261.595 264.189 280 243C300.756 219.104 293 163 293 163C293 163 278.378 115.318 259 91C240.831 68.2001 225 75 201 44C177 13 177.255 7.66328 153 2.00003Z" fill="#EBEBF7"/>
<path d="M133.347 63.4622L133.849 64.2563C134.511 64.7063 134.749 67.6446 134.749 68.4388V171.041C134.63 173.755 133.882 176.404 132.565 178.779C131.247 181.154 129.396 183.191 127.158 184.727L88.8334 206.857C87.7251 207.405 86.4982 207.669 85.2628 207.624L80.264 205.877C79.4796 205.575 78.8061 205.041 78.3334 204.346C77.8608 203.65 77.6115 202.827 77.6191 201.986V96.1012C77.7717 93.4133 78.5523 90.7988 79.8982 88.4678C81.2442 86.1369 83.1178 84.1545 85.3686 82.6802L120.334 62.5092C122.358 61.376 124.67 60.8622 126.983 61.0316C129.296 61.201 131.509 62.0461 133.347 63.4622Z" fill="url(#paint0_linear_2202_1410)"/>
<path d="M127.263 63.5421C131.522 61.0803 135.013 63.0921 135.013 68.0157V171.571C134.865 174.26 134.086 176.876 132.739 179.207C131.393 181.539 129.517 183.521 127.263 184.992L89.7325 206.698C85.4742 209.16 81.9829 207.148 81.9829 202.225V98.7488C82.1335 96.0568 82.9131 93.4378 84.2591 91.1023C85.605 88.7668 87.4797 86.7799 89.7325 85.3014L127.263 63.5421Z" fill="#F9F7F9"/>
<path d="M130.675 80.4568V164.159L86.3198 189.783V106.107L130.675 80.4568Z" fill="#D3DAED"/>
<path d="M102.64 87.7629C102.788 87.7969 102.941 87.7969 103.089 87.7629L114.833 80.9598C115.034 80.8386 115.18 80.6433 115.239 80.4157C115.299 80.1881 115.267 79.9464 115.15 79.7421C115.093 79.6397 115.015 79.5499 114.922 79.4781C114.829 79.4063 114.723 79.354 114.609 79.3244C114.496 79.2947 114.377 79.2883 114.261 79.3055C114.145 79.3227 114.034 79.3631 113.933 79.4245L102.19 86.2011C101.984 86.3179 101.833 86.5113 101.768 86.7392C101.704 86.9672 101.732 87.2114 101.846 87.4188C101.941 87.5364 102.062 87.6293 102.2 87.6893C102.339 87.7492 102.489 87.7745 102.64 87.7629Z" fill="#99A7D8"/>
<path d="M108.511 180.412C111.156 178.903 113.166 180.12 113.166 183.059C113.085 184.692 112.622 186.283 111.813 187.704C111.004 189.125 109.873 190.336 108.511 191.238C105.866 192.721 103.83 191.503 103.83 188.591C103.926 186.959 104.398 185.37 105.211 183.951C106.023 182.532 107.153 181.321 108.511 180.412Z" fill="#E6E7E8"/>
<path d="M109.436 122.202C116.736 117.967 122.661 121.435 122.661 129.879C122.408 134.492 121.08 138.982 118.784 142.99C116.488 146.998 113.287 150.413 109.436 152.962C102.11 157.197 96.2119 153.73 96.2119 145.259C96.4607 140.648 97.7868 136.16 100.084 132.156C102.38 128.152 105.584 124.742 109.436 122.202Z" fill="white"/>
<path d="M113.933 145.735V132.843L116.578 131.334L110.574 127.47L104.57 138.19L107.4 136.602L107.427 149.494L113.933 145.735Z" fill="url(#paint1_linear_2202_1410)"/>
<path d="M169 243.018V248.109C168.997 248.727 168.81 249.334 168.458 249.87C168.106 250.407 167.6 250.853 166.99 251.167L166.204 251.656C164.527 252.51 162.627 252.972 160.687 252.999C158.747 253.026 156.832 252.616 155.125 251.809L144.902 246.932C144.628 246.799 144.401 246.605 144.242 246.37C144.084 246.135 144 245.867 144 245.594C144 245.321 144.084 245.053 144.242 244.817C144.401 244.582 144.628 244.388 144.902 244.256C146.841 243.277 149.165 241.794 151.28 242.024C152.256 242.176 153.243 242.268 154.233 242.299L158.987 242.865L169 243.018Z" fill="#48486A"/>
<path d="M144.901 245.765L155.155 250.63C156.856 251.44 158.767 251.853 160.703 251.828C162.639 251.804 164.535 251.344 166.21 250.492L166.995 249.987C167.605 249.676 168.112 249.23 168.464 248.693C168.816 248.156 169.001 247.547 169 246.928V248.106C168.997 248.724 168.811 249.332 168.459 249.868C168.108 250.405 167.603 250.852 166.995 251.165L166.21 251.655C164.537 252.509 162.641 252.972 160.705 252.999C158.769 253.026 156.858 252.616 155.155 251.808L144.901 246.928C144.525 246.746 144.239 246.448 144.097 246.093C143.956 245.737 143.969 245.348 144.134 245C144.283 245.324 144.553 245.594 144.901 245.765Z" fill="#363650"/>
<path d="M153 254.098V259.658C152.997 260.334 152.788 260.997 152.394 261.582C152.001 262.168 151.435 262.656 150.754 262.998L149.875 263.532C147.997 264.464 145.871 264.969 143.699 264.999C141.528 265.028 139.384 264.58 137.473 263.699L126.008 258.373C125.702 258.228 125.448 258.016 125.271 257.76C125.093 257.503 125 257.21 125 256.912C125 256.613 125.093 256.32 125.271 256.063C125.448 255.806 125.702 255.595 126.008 255.45C128.176 254.382 130.773 252.762 133.117 253.029C134.216 253.182 135.325 253.276 136.437 253.313L141.75 253.931L153 254.098Z" fill="#48486A"/>
<path d="M126.009 257.78L137.474 262.645C139.381 263.459 141.525 263.874 143.697 263.85C145.87 263.826 147.998 263.364 149.875 262.508L150.754 262.003C151.439 261.693 152.008 261.247 152.402 260.709C152.797 260.172 153.003 259.563 153 258.943V260.106C152.997 260.725 152.788 261.332 152.394 261.869C152.001 262.405 151.435 262.852 150.754 263.165L149.875 263.655C147.997 264.509 145.871 264.972 143.7 264.999C141.529 265.026 139.385 264.616 137.474 263.808L126.009 258.928C125.588 258.746 125.268 258.448 125.109 258.093C124.951 257.737 124.965 257.348 125.15 257C125.313 257.33 125.616 257.606 126.009 257.78Z" fill="#363650"/>
<path d="M165.637 170.85C166.452 170.85 167.234 170.533 167.819 169.966L173.673 164.298C175.815 162.231 177.494 159.731 178.596 156.964C179.699 154.197 180.2 151.227 180.068 148.252C179.935 145.276 179.171 142.363 177.827 139.705C176.482 137.048 174.588 134.707 172.27 132.839L165.776 127.639C165.125 127.18 164.324 126.986 163.536 127.096C162.748 127.205 162.03 127.612 161.53 128.231C161.03 128.851 160.784 129.638 160.842 130.433C160.901 131.227 161.259 131.97 161.844 132.51L166.5 139.5C168.127 140.811 170.684 140.528 172.24 142.529C173.727 144.441 173.72 146.439 173.814 148.528C173.907 150.616 173.555 152.701 172.781 154.643C172.008 156.585 170.83 158.34 169.326 159.792L163.472 165.511C163.175 165.797 162.938 166.138 162.773 166.516C162.608 166.893 162.518 167.3 162.51 167.712C162.502 168.124 162.576 168.534 162.726 168.917C162.876 169.301 163.1 169.652 163.386 169.949C163.988 170.534 164.797 170.858 165.637 170.85Z" fill="url(#paint2_linear_2202_1410)"/>
<path d="M164.165 249.09C164.856 249.076 165.537 248.92 166.165 248.631C166.794 248.343 167.356 247.928 167.817 247.413C168.279 246.897 168.629 246.292 168.847 245.636C169.065 244.979 169.145 244.284 169.083 243.595L167.351 208.93L169.655 171.179C169.655 170.458 169.513 169.745 169.237 169.079C168.96 168.414 168.556 167.809 168.046 167.3C167.536 166.791 166.93 166.388 166.264 166.114C165.599 165.84 164.885 165.7 164.165 165.702C161.134 165.702 155.246 168.146 155.246 171.179L158.71 243.63C158.714 245.077 159.29 246.463 160.313 247.486C161.335 248.509 162.72 249.085 164.165 249.09Z" fill="#4043AF"/>
<path d="M147.107 260.841C148.56 260.837 149.951 260.256 150.977 259.226C152.003 258.196 152.579 256.801 152.579 255.347L151.869 218.255L156.025 182.896C156.025 179.863 150.12 177.402 147.107 177.402C146.386 177.402 145.672 177.544 145.006 177.82C144.34 178.096 143.734 178.501 143.225 179.011C142.715 179.521 142.31 180.127 142.035 180.793C141.759 181.46 141.617 182.175 141.617 182.896V255.347C141.617 256.804 142.195 258.202 143.225 259.232C144.254 260.263 145.651 260.841 147.107 260.841Z" fill="#4043AF"/>
<path d="M167.923 164.922L170.278 182.376C170.276 183.458 169.99 184.52 169.449 185.457C168.908 186.394 168.131 187.172 167.196 187.715L152.908 195.74C152.036 196.258 151.042 196.535 150.028 196.544C149.014 196.552 148.016 196.291 147.135 195.787C146.255 195.283 145.524 194.554 145.017 193.675C144.51 192.796 144.245 191.798 144.249 190.783V155.372C144.249 153.171 139.66 154.678 141.565 153.638L161.619 142.043C165.498 139.79 167.923 160.502 167.923 164.922Z" fill="#99A7D8"/>
<g opacity="0.3">
<path opacity="0.3" d="M163.472 165.511C163.175 165.797 162.938 166.138 162.773 166.516C162.608 166.893 162.518 167.3 162.51 167.712C162.502 168.124 162.575 168.534 162.726 168.917C162.876 169.301 163.1 169.652 163.386 169.949C163.68 170.248 164.03 170.486 164.416 170.65C164.803 170.813 165.218 170.899 165.637 170.902C166.451 170.902 167.234 170.585 167.819 170.018L171.283 166.673C171.283 165.737 171.144 164.939 171.11 164.645C170.884 162.513 170.832 160.363 170.763 158.232C170.332 158.805 169.857 159.344 169.343 159.844L163.472 165.511Z" fill="#231F20"/>
</g>
<path d="M169.845 136.912L168.754 153.812C169.118 157.4 168.997 161.005 169.36 164.593C169.568 166.673 170.711 179.95 170.296 181.926C170.019 183.208 166.468 186.033 161.723 188.512C161.307 188.728 159.541 189.577 159.125 189.76C153.099 192.464 145.912 194.197 141.045 191.857L141.617 171.214L140.612 158.336C140.041 149.565 138.309 137.779 146.968 132.371L148.094 131.713L157.324 126.669C158.395 126.056 159.607 125.734 160.84 125.734C162.073 125.734 163.285 126.056 164.355 126.669C166.133 127.695 167.589 129.198 168.559 131.008C169.529 132.817 169.975 134.863 169.845 136.912Z" fill="url(#paint3_linear_2202_1410)"/>
<path d="M155.748 132.406C156.577 132.401 157.369 132.069 157.954 131.481C158.538 130.893 158.865 130.098 158.865 129.269V116.98C158.898 116.549 158.84 116.117 158.698 115.71C158.555 115.302 158.33 114.929 158.037 114.612C157.743 114.296 157.388 114.044 156.993 113.871C156.597 113.699 156.171 113.61 155.74 113.61C155.308 113.61 154.882 113.699 154.486 113.871C154.091 114.044 153.736 114.296 153.442 114.612C153.149 114.929 152.924 115.302 152.781 115.71C152.639 116.117 152.582 116.549 152.614 116.98V129.286C152.618 130.115 152.95 130.909 153.538 131.493C154.125 132.078 154.92 132.406 155.748 132.406Z" fill="#F2B1B5"/>
<path d="M158.554 128.662H153.359C150.639 128.662 148.032 127.581 146.109 125.657C144.186 123.732 143.106 121.123 143.106 118.401V107.793H158.554V128.593V128.662Z" fill="#F2B1B5"/>
<path d="M144.267 107.776V118.713C144.267 121.375 145.323 123.927 147.203 125.809C149.084 127.691 151.634 128.749 154.294 128.749H153.151C150.491 128.749 147.941 127.691 146.06 125.809C144.18 123.927 143.124 121.375 143.124 118.713V107.863L144.267 107.776Z" fill="#F5C5C8"/>
<path d="M139.608 103.514C141.325 102.908 141.903 100.85 143.937 101.781C144.769 102.214 145.357 102.44 146.171 101.937C147.245 101.278 147.522 100.862 148.977 101.07C149.566 101.07 150.345 101.66 150.899 101.642C152.077 101.642 152.839 100.689 154.224 101.105C154.952 101.408 155.753 101.493 156.528 101.348C157.264 101.211 158.025 101.277 158.727 101.538C160.13 102.11 160.043 103.15 160.857 104.104C161.671 105.057 162.502 104.381 163.299 105.126C163.64 105.455 163.873 105.88 163.966 106.345C164.059 106.81 164.007 107.292 163.818 107.726C163.645 108.125 163.316 108.558 163.489 108.974C163.663 109.39 163.922 109.407 164.148 109.633C164.944 110.447 164.303 111.799 163.68 112.753C163.54 112.931 163.461 113.15 163.455 113.377C163.502 113.666 163.649 113.93 163.87 114.122C164.271 114.689 164.454 115.383 164.384 116.074C164.314 116.765 163.996 117.408 163.489 117.883C163.005 118.299 162.329 118.628 162.243 119.27C162.224 119.625 162.283 119.98 162.416 120.31C162.574 120.979 162.507 121.681 162.225 122.308C161.943 122.935 161.462 123.451 160.857 123.776C159.437 124.487 160.736 127.052 158.554 127.243C156.822 127.416 155.281 125.284 154.917 123.776C154.917 123.984 153.809 123.395 153.722 123.274C153.46 122.843 153.284 122.367 153.202 121.87C152.889 120.97 152.702 120.031 152.648 119.079C152.648 118.715 152.648 114.711 152.319 114.694C151.562 114.722 150.806 114.616 150.085 114.382C148.353 113.723 149.115 112.649 148.475 111.453C148.163 110.881 147.436 110.759 147.089 110.17C146.795 109.487 146.728 108.727 146.899 108.004C145.328 108.472 143.655 108.472 142.084 108.004C140.907 107.501 137.035 105.802 137 104.363C137 103.774 138.598 103.871 139.608 103.514Z" fill="#363650"/>
<path d="M148.163 146.324H148.076L132.334 145.804C129.705 145.714 127.144 144.943 124.901 143.567C122.658 142.191 120.81 140.256 119.536 137.952L107.916 116.98C107.543 116.258 107.466 115.419 107.702 114.642C107.938 113.864 108.467 113.209 109.178 112.816C109.888 112.423 110.724 112.324 111.507 112.538C112.29 112.752 112.959 113.264 113.371 113.964L124.991 135.006C125.744 136.364 126.835 137.504 128.158 138.315C129.481 139.126 130.991 139.58 132.542 139.634L148.267 140.154C149.094 140.167 149.881 140.509 150.456 141.104C151.031 141.699 151.346 142.498 151.332 143.326C151.318 144.153 150.977 144.941 150.382 145.516C149.788 146.092 148.99 146.407 148.163 146.393V146.324Z" fill="#F2B1B5"/>
<path d="M148.163 146.671H148.059L132.317 146.151C129.634 146.052 127.022 145.261 124.735 143.855C122.447 142.449 120.561 140.476 119.259 138.126L110.028 121.296C109.583 120.491 109.475 119.542 109.728 118.658C109.982 117.774 110.575 117.027 111.379 116.581C112.183 116.135 113.131 116.027 114.014 116.281C114.898 116.534 115.644 117.129 116.09 117.933L125.32 134.78C126.046 136.082 127.096 137.175 128.367 137.952C129.638 138.729 131.088 139.165 132.577 139.218L148.319 139.738C149.237 139.754 150.112 140.134 150.75 140.796C151.388 141.457 151.738 142.345 151.722 143.265C151.706 144.184 151.325 145.06 150.665 145.698C150.004 146.337 149.116 146.687 148.198 146.671H148.163Z" fill="url(#paint4_linear_2202_1410)"/>
<path d="M113.752 115.749C113.609 115.831 113.44 115.853 113.281 115.811C113.122 115.769 112.986 115.666 112.903 115.524L109.076 108.833C109.036 108.764 109.01 108.687 108.999 108.608C108.989 108.528 108.994 108.448 109.015 108.37C109.036 108.293 109.072 108.221 109.121 108.157C109.17 108.094 109.231 108.041 109.301 108.001C109.444 107.919 109.613 107.897 109.772 107.939C109.931 107.981 110.067 108.085 110.15 108.227L114.064 114.9C114.101 114.976 114.123 115.058 114.127 115.143C114.132 115.227 114.119 115.312 114.09 115.391C114.061 115.471 114.016 115.544 113.958 115.605C113.9 115.667 113.83 115.716 113.752 115.749Z" fill="#F2B1B5"/>
<path d="M108.529 211.852C108.529 211.852 99.795 230.242 103.198 251.943C103.201 251.944 115.882 215.047 108.529 211.852Z" fill="#454A77"/>
<path style="mix-blend-mode:multiply" d="M95.2064 277.438C89.2546 274.022 89.2546 268.43 95.2064 265.014C101.158 261.598 110.866 261.598 116.787 265.014C122.708 268.43 122.705 274.022 116.787 277.438C110.868 280.854 101.158 280.854 95.2064 277.438Z" fill="url(#paint5_radial_2202_1410)"/>
<path d="M98.0274 272.52C93.6338 269.998 93.6338 258.267 98.0274 255.745C102.421 253.222 109.59 253.222 113.959 255.745C118.328 258.267 118.328 269.998 113.959 272.52C111.8 273.768 108.961 274.956 106.102 274.97C103.181 274.985 100.249 273.797 98.0274 272.52Z" fill="#ADB9E0"/>
<path d="M94.3201 258.455C94.3201 258.381 94.3201 258.305 94.3201 258.233V256.477H94.7743C95.3019 255.418 96.2858 254.419 97.733 253.59C102.286 250.974 109.728 250.974 114.261 253.59C115.705 254.421 116.678 255.42 117.203 256.477H117.613V257.779C117.667 258.155 117.667 258.536 117.613 258.912V258.943C117.381 260.463 116.267 261.941 114.263 263.103C109.731 265.719 102.293 265.719 97.7352 263.103C95.7194 261.946 94.5988 260.463 94.3656 258.943H94.3256L94.3201 258.455Z" fill="url(#paint6_linear_2202_1410)"/>
<path d="M97.7296 261.427C93.1761 258.811 93.1761 254.528 97.7296 251.912C102.283 249.295 109.724 249.295 114.258 251.912C118.791 254.528 118.79 258.811 114.258 261.427C109.725 264.044 102.288 264.044 97.7296 261.427Z" fill="#EDF0F8"/>
<path d="M98.4004 261.04C94.2133 258.636 94.2133 254.703 98.4004 252.299C102.587 249.894 109.421 249.895 113.585 252.299C117.748 254.702 117.748 258.636 113.585 261.04C109.421 263.443 102.588 263.444 98.4004 261.04Z" fill="#99A7D8"/>
<path d="M99.7721 261.367C96.3447 259.399 96.3447 256.18 99.7721 254.213C103.199 252.246 108.791 252.245 112.2 254.213C115.608 256.181 115.607 259.399 112.2 261.367C108.793 263.335 103.205 263.335 99.7721 261.367Z" fill="#48486A"/>
<path d="M104.588 259.388C104.588 259.388 99.7209 237.063 112.639 220.621C112.768 220.456 114.187 221.366 114.316 221.199C114.445 221.032 113.298 219.806 113.432 219.645C115.209 217.539 117.211 215.633 119.402 213.961C129.479 206.256 128.542 215.712 123.875 227.96C123.769 228.237 122.378 227.444 122.269 227.724C122.099 228.16 123.21 229.667 123.026 230.109C117.727 243.192 108.812 258.408 104.588 259.388Z" fill="#3647AC"/>
<path d="M108.088 252.367C111.189 240.036 114.872 226.152 123.346 216.306C123.524 216.093 123.196 215.819 123.015 216.03C114.585 225.841 110.461 239.837 107.921 252.339C107.899 252.447 108.062 252.472 108.088 252.367Z" fill="#F5F5FB"/>
<path d="M105.019 259.597C105.019 259.597 112.408 230.529 97.1512 218.966C96.7624 218.671 97.4477 221.954 97.0346 221.679C96.6214 221.405 96.1927 218.638 95.7451 218.397C93.0619 216.953 89.7478 216.134 85.6718 216.193C70.0554 216.415 73.9226 218.244 82.4055 225.671C82.7098 225.938 86.3648 226.213 86.6814 226.495C86.9535 226.737 83.8848 226.985 84.1647 227.238C91.2982 233.708 100.69 243.838 105.019 259.597Z" fill="#3647AC"/>
<path d="M104.949 253.236C103.869 237.656 96.4746 224.852 81.6456 218.901C81.4846 218.836 81.5512 218.573 81.7178 218.636C96.2402 224.065 104.871 237.849 105.053 253.236C105.053 253.25 105.047 253.263 105.038 253.273C105.028 253.282 105.015 253.288 105.001 253.288C104.987 253.288 104.974 253.282 104.964 253.273C104.954 253.263 104.949 253.25 104.949 253.236Z" fill="#F5F5FB"/>
<g opacity="0.52">
<path opacity="0.02" d="M200.599 216.184C200.301 216.031 199.97 215.951 199.635 215.951C199.3 215.951 198.97 216.031 198.671 216.184L175.788 229.4C175.674 229.441 175.575 229.517 175.505 229.617C175.435 229.717 175.398 229.836 175.398 229.957C175.398 230.079 175.435 230.198 175.505 230.298C175.575 230.398 175.674 230.474 175.788 230.515L198.671 243.74C198.97 243.893 199.3 243.973 199.635 243.973C199.97 243.973 200.301 243.893 200.599 243.74L223.473 230.524C223.587 230.482 223.686 230.407 223.756 230.307C223.826 230.207 223.864 230.088 223.864 229.966C223.864 229.844 223.826 229.725 223.756 229.626C223.686 229.526 223.587 229.45 223.473 229.409L200.599 216.184Z" fill="#FBFBFB"/>
<path opacity="0.05" d="M200.59 216.281C200.292 216.133 199.963 216.056 199.631 216.056C199.298 216.056 198.969 216.133 198.671 216.281L175.956 229.4C175.841 229.439 175.741 229.514 175.67 229.613C175.599 229.712 175.56 229.831 175.56 229.953C175.56 230.075 175.599 230.194 175.67 230.293C175.741 230.393 175.841 230.467 175.956 230.506L198.671 243.643C198.969 243.791 199.298 243.868 199.631 243.868C199.963 243.868 200.292 243.791 200.59 243.643L223.296 230.515C223.411 230.476 223.512 230.401 223.583 230.302C223.654 230.203 223.692 230.084 223.692 229.962C223.692 229.84 223.654 229.721 223.583 229.622C223.512 229.522 223.411 229.448 223.296 229.409L200.59 216.281Z" fill="#F6F6F8"/>
<path opacity="0.07" d="M200.59 216.414C200.295 216.261 199.967 216.181 199.635 216.181C199.303 216.181 198.975 216.261 198.68 216.414L176.133 229.435C176.017 229.472 175.915 229.545 175.843 229.644C175.77 229.742 175.731 229.861 175.731 229.984C175.731 230.106 175.77 230.226 175.843 230.324C175.915 230.423 176.017 230.496 176.133 230.533L198.68 243.572C198.977 243.72 199.304 243.798 199.635 243.798C199.967 243.798 200.294 243.72 200.59 243.572L223.128 230.542C223.244 230.502 223.344 230.428 223.415 230.329C223.486 230.229 223.524 230.11 223.524 229.988C223.524 229.866 223.486 229.747 223.415 229.648C223.344 229.549 223.244 229.474 223.128 229.435L200.59 216.414Z" fill="#F2F2F4"/>
<path opacity="0.1" d="M200.581 216.485C200.288 216.336 199.964 216.259 199.635 216.259C199.307 216.259 198.982 216.336 198.689 216.485L176.301 229.409C176.189 229.45 176.092 229.524 176.023 229.623C175.955 229.721 175.918 229.838 175.918 229.957C175.918 230.077 175.955 230.194 176.023 230.292C176.092 230.39 176.189 230.465 176.301 230.506L198.689 243.439C198.982 243.587 199.307 243.665 199.635 243.665C199.964 243.665 200.288 243.587 200.581 243.439L222.96 230.506C223.074 230.467 223.172 230.394 223.242 230.296C223.311 230.199 223.349 230.082 223.349 229.962C223.349 229.842 223.311 229.725 223.242 229.627C223.172 229.53 223.074 229.456 222.96 229.417L200.581 216.485Z" fill="#EDEDF0"/>
<path opacity="0.12" d="M200.573 216.582C200.282 216.434 199.961 216.356 199.635 216.356C199.309 216.356 198.988 216.434 198.698 216.582L176.469 229.417C176.359 229.458 176.264 229.532 176.197 229.628C176.129 229.725 176.093 229.84 176.093 229.957C176.093 230.075 176.129 230.19 176.197 230.286C176.264 230.383 176.359 230.457 176.469 230.497L198.698 243.341C198.988 243.49 199.309 243.567 199.635 243.567C199.961 243.567 200.282 243.49 200.573 243.341L222.783 230.506C222.897 230.467 222.995 230.394 223.065 230.296C223.135 230.199 223.172 230.082 223.172 229.962C223.172 229.842 223.135 229.725 223.065 229.627C222.995 229.53 222.897 229.456 222.783 229.417L200.573 216.582Z" fill="#E9E9ED"/>
<path opacity="0.15" d="M200.564 216.68C200.275 216.535 199.957 216.46 199.635 216.46C199.313 216.46 198.995 216.535 198.707 216.68L176.646 229.417C176.536 229.458 176.441 229.532 176.373 229.628C176.306 229.725 176.27 229.84 176.27 229.957C176.27 230.075 176.306 230.19 176.373 230.287C176.441 230.383 176.536 230.457 176.646 230.497L198.707 243.244C198.995 243.388 199.313 243.463 199.635 243.463C199.957 243.463 200.275 243.388 200.564 243.244L222.615 230.497C222.727 230.459 222.823 230.387 222.892 230.291C222.96 230.195 222.997 230.08 222.997 229.962C222.997 229.844 222.96 229.729 222.892 229.633C222.823 229.537 222.727 229.465 222.615 229.426L200.564 216.68Z" fill="#E4E4E9"/>
<path opacity="0.17" d="M200.555 216.777C200.268 216.633 199.952 216.558 199.631 216.558C199.31 216.558 198.994 216.633 198.707 216.777L176.814 229.426C176.702 229.462 176.604 229.533 176.534 229.629C176.465 229.724 176.427 229.839 176.427 229.957C176.427 230.075 176.465 230.191 176.534 230.286C176.604 230.382 176.702 230.452 176.814 230.488L198.707 243.147C198.994 243.291 199.31 243.366 199.631 243.366C199.952 243.366 200.268 243.291 200.555 243.147L222.438 230.497C222.55 230.459 222.646 230.387 222.715 230.291C222.783 230.195 222.82 230.08 222.82 229.962C222.82 229.844 222.783 229.729 222.715 229.633C222.646 229.537 222.55 229.465 222.438 229.426L200.555 216.777Z" fill="#E0E0E6"/>
<path opacity="0.2" d="M200.555 216.883C200.27 216.739 199.955 216.664 199.635 216.664C199.316 216.664 199.001 216.739 198.716 216.883L176.991 229.426C176.879 229.462 176.781 229.533 176.711 229.628C176.642 229.724 176.604 229.839 176.604 229.957C176.604 230.075 176.642 230.191 176.711 230.286C176.781 230.382 176.879 230.452 176.991 230.488L198.716 243.049C199.001 243.193 199.316 243.268 199.635 243.268C199.955 243.268 200.27 243.193 200.555 243.049L222.271 230.497C222.383 230.461 222.481 230.39 222.551 230.295C222.62 230.199 222.658 230.084 222.658 229.966C222.658 229.848 222.62 229.733 222.551 229.637C222.481 229.542 222.383 229.471 222.271 229.435L200.555 216.883Z" fill="#DBDBE2"/>
<path opacity="0.22" d="M200.546 216.98C200.264 216.837 199.952 216.762 199.635 216.762C199.319 216.762 199.007 216.837 198.725 216.98L177.159 229.426C177.05 229.464 176.955 229.535 176.888 229.63C176.821 229.724 176.785 229.837 176.785 229.953C176.785 230.069 176.821 230.182 176.888 230.276C176.955 230.37 177.05 230.442 177.159 230.48L198.725 242.97C199.007 243.113 199.319 243.188 199.635 243.188C199.952 243.188 200.264 243.113 200.546 242.97L222.103 230.515C222.212 230.477 222.306 230.406 222.373 230.311C222.44 230.217 222.476 230.104 222.476 229.988C222.476 229.873 222.44 229.76 222.373 229.665C222.306 229.571 222.212 229.5 222.103 229.462L200.546 216.98Z" fill="#D7D7DE"/>
<path opacity="0.24" d="M200.537 217.078C200.261 216.944 199.959 216.874 199.653 216.874C199.347 216.874 199.044 216.944 198.769 217.078L177.362 229.471C177.252 229.506 177.156 229.576 177.088 229.67C177.019 229.764 176.983 229.877 176.983 229.993C176.983 230.109 177.019 230.222 177.088 230.316C177.156 230.41 177.252 230.479 177.362 230.515L198.769 242.908C199.043 243.046 199.346 243.117 199.653 243.117C199.96 243.117 200.263 243.046 200.537 242.908L221.926 230.515C222.036 230.479 222.132 230.41 222.2 230.316C222.269 230.222 222.305 230.109 222.305 229.993C222.305 229.877 222.269 229.764 222.2 229.67C222.132 229.576 222.036 229.506 221.926 229.471L200.537 217.078Z" fill="#D2D2DB"/>
<path opacity="0.27" d="M200.528 217.175C200.253 217.04 199.95 216.97 199.644 216.97C199.337 216.97 199.035 217.04 198.76 217.175L177.539 229.435C177.044 229.727 177.044 230.188 177.539 230.471L198.76 242.748C199.035 242.884 199.337 242.954 199.644 242.954C199.95 242.954 200.253 242.884 200.528 242.748L221.749 230.48C221.856 230.442 221.949 230.372 222.014 230.279C222.08 230.186 222.115 230.076 222.115 229.962C222.115 229.848 222.08 229.737 222.014 229.645C221.949 229.552 221.856 229.482 221.749 229.444L200.528 217.175Z" fill="#CECED7"/>
<path opacity="0.29" d="M200.528 217.299C200.253 217.163 199.951 217.092 199.644 217.092C199.337 217.092 199.035 217.163 198.76 217.299L177.69 229.471C177.581 229.506 177.487 229.575 177.42 229.667C177.353 229.759 177.317 229.87 177.317 229.984C177.317 230.098 177.353 230.209 177.42 230.301C177.487 230.393 177.581 230.462 177.69 230.497L198.76 242.678C199.035 242.814 199.337 242.885 199.644 242.885C199.951 242.885 200.253 242.814 200.528 242.678L221.581 230.506C221.689 230.471 221.783 230.402 221.85 230.31C221.917 230.218 221.953 230.107 221.953 229.993C221.953 229.879 221.917 229.768 221.85 229.676C221.783 229.583 221.689 229.515 221.581 229.479L200.528 217.299Z" fill="#C9C9D3"/>
<path opacity="0.32" d="M200.52 217.379C200.246 217.239 199.943 217.166 199.635 217.166C199.328 217.166 199.025 217.239 198.751 217.379L177.849 229.444C177.741 229.479 177.646 229.548 177.579 229.64C177.513 229.732 177.477 229.843 177.477 229.957C177.477 230.071 177.513 230.182 177.579 230.275C177.646 230.367 177.741 230.436 177.849 230.471L198.751 242.554C199.026 242.689 199.329 242.759 199.635 242.759C199.942 242.759 200.244 242.689 200.52 242.554L221.413 230.471C221.518 230.434 221.609 230.365 221.673 230.273C221.738 230.182 221.772 230.073 221.772 229.962C221.772 229.85 221.738 229.741 221.673 229.65C221.609 229.559 221.518 229.49 221.413 229.453L200.52 217.379Z" fill="#C5C5D0"/>
<path opacity="0.34" d="M200.511 217.476C200.238 217.334 199.934 217.259 199.626 217.259C199.319 217.259 199.015 217.334 198.742 217.476L177.999 229.453C177.893 229.488 177.801 229.555 177.735 229.646C177.67 229.737 177.634 229.846 177.634 229.957C177.634 230.069 177.67 230.178 177.735 230.269C177.801 230.359 177.893 230.427 177.999 230.462L198.742 242.447C199.015 242.59 199.319 242.665 199.626 242.665C199.934 242.665 200.238 242.59 200.511 242.447L221.236 230.471C221.341 230.434 221.432 230.365 221.496 230.273C221.561 230.182 221.595 230.073 221.595 229.962C221.595 229.85 221.561 229.741 221.496 229.65C221.432 229.559 221.341 229.49 221.236 229.453L200.511 217.476Z" fill="#C1C1CC"/>
<path opacity="0.37" d="M200.502 217.574C200.228 217.432 199.925 217.359 199.617 217.359C199.31 217.359 199.007 217.432 198.733 217.574L178.149 229.453C178.043 229.488 177.951 229.555 177.885 229.646C177.82 229.737 177.784 229.846 177.784 229.957C177.784 230.069 177.82 230.178 177.885 230.269C177.951 230.36 178.043 230.427 178.149 230.462L198.733 242.35C199.007 242.491 199.31 242.565 199.617 242.565C199.925 242.565 200.228 242.491 200.502 242.35L221.068 230.462C221.171 230.425 221.26 230.357 221.323 230.268C221.386 230.178 221.42 230.071 221.42 229.962C221.42 229.852 221.386 229.746 221.323 229.656C221.26 229.566 221.171 229.499 221.068 229.462L200.502 217.574Z" fill="#BCBCC8"/>
<path opacity="0.39" d="M200.493 217.671C200.22 217.528 199.917 217.454 199.609 217.454C199.301 217.454 198.997 217.528 198.725 217.671L178.317 229.462C178.213 229.496 178.123 229.563 178.059 229.652C177.995 229.741 177.96 229.848 177.96 229.957C177.96 230.067 177.995 230.174 178.059 230.263C178.123 230.352 178.213 230.419 178.317 230.453L198.725 242.253C198.997 242.396 199.301 242.47 199.609 242.47C199.917 242.47 200.22 242.396 200.493 242.253L220.9 230.462C221.003 230.425 221.092 230.357 221.155 230.268C221.218 230.178 221.252 230.071 221.252 229.962C221.252 229.852 221.218 229.746 221.155 229.656C221.092 229.566 221.003 229.499 220.9 229.462L200.493 217.671Z" fill="#B8B8C5"/>
<path opacity="0.41" d="M200.493 217.768C200.226 217.637 199.933 217.569 199.635 217.569C199.338 217.569 199.044 217.637 198.778 217.768L178.53 229.462C178.426 229.496 178.335 229.563 178.271 229.652C178.207 229.741 178.172 229.848 178.172 229.957C178.172 230.067 178.207 230.174 178.271 230.263C178.335 230.352 178.426 230.418 178.53 230.453L198.778 242.155C199.043 242.29 199.337 242.361 199.635 242.361C199.933 242.361 200.227 242.29 200.493 242.155L220.723 230.453C220.824 230.417 220.911 230.35 220.973 230.262C221.035 230.174 221.068 230.069 221.068 229.962C221.068 229.854 221.035 229.749 220.973 229.662C220.911 229.574 220.824 229.507 220.723 229.47L200.493 217.768Z" fill="#B3B3C1"/>
<path opacity="0.44" d="M200.484 217.875C200.221 217.739 199.931 217.669 199.635 217.669C199.34 217.669 199.049 217.739 198.786 217.875L178.706 229.471C178.605 229.505 178.516 229.57 178.453 229.657C178.39 229.745 178.356 229.85 178.356 229.957C178.356 230.065 178.39 230.17 178.453 230.257C178.516 230.345 178.605 230.41 178.706 230.444L198.786 242.085C199.05 242.216 199.341 242.284 199.635 242.284C199.93 242.284 200.22 242.216 200.484 242.085L220.591 230.453C220.692 230.417 220.779 230.35 220.84 230.262C220.902 230.174 220.935 230.069 220.935 229.962C220.935 229.854 220.902 229.75 220.84 229.662C220.779 229.574 220.692 229.507 220.591 229.471L200.484 217.875Z" fill="#AFAFBE"/>
<path opacity="0.46" d="M200.475 217.972C200.214 217.841 199.927 217.773 199.635 217.773C199.344 217.773 199.056 217.841 198.795 217.972L178.874 229.479C178.772 229.514 178.684 229.579 178.621 229.666C178.558 229.754 178.524 229.859 178.524 229.966C178.524 230.074 178.558 230.179 178.621 230.266C178.684 230.354 178.772 230.419 178.874 230.453L198.795 241.961C199.055 242.096 199.343 242.166 199.635 242.166C199.928 242.166 200.216 242.096 200.475 241.961L220.378 230.453C220.847 230.179 220.847 229.745 220.378 229.479L200.475 217.972Z" fill="#AAAABA"/>
<path opacity="0.49" d="M200.467 218.069C200.207 217.938 199.921 217.87 199.631 217.87C199.341 217.87 199.055 217.938 198.795 218.069L179.034 229.479C178.934 229.513 178.847 229.577 178.786 229.663C178.724 229.749 178.691 229.852 178.691 229.957C178.691 230.063 178.724 230.166 178.786 230.251C178.847 230.337 178.934 230.402 179.034 230.435L198.795 241.854C199.053 241.985 199.338 242.053 199.627 242.053C199.915 242.053 200.2 241.985 200.458 241.854L220.202 230.444C220.301 230.408 220.386 230.342 220.446 230.256C220.507 230.17 220.539 230.067 220.539 229.962C220.539 229.856 220.507 229.754 220.446 229.667C220.386 229.581 220.301 229.515 220.202 229.479L200.467 218.069Z" fill="#A6A6B6"/>
<path opacity="0.51" d="M200.458 218.184C200.202 218.054 199.918 217.986 199.631 217.986C199.344 217.986 199.06 218.054 198.804 218.184L179.219 229.497C179.119 229.531 179.033 229.595 178.971 229.681C178.91 229.767 178.877 229.869 178.877 229.975C178.877 230.081 178.91 230.183 178.971 230.269C179.033 230.355 179.119 230.419 179.219 230.453L198.804 241.775C199.06 241.905 199.344 241.973 199.631 241.973C199.918 241.973 200.202 241.905 200.458 241.775L220.042 230.462C220.142 230.428 220.229 230.364 220.291 230.278C220.352 230.192 220.385 230.089 220.385 229.984C220.385 229.878 220.352 229.775 220.291 229.69C220.229 229.604 220.142 229.54 220.042 229.506L200.458 218.184Z" fill="#A1A1B3"/>
<path opacity="0.54" d="M200.457 218.264C200.202 218.138 199.92 218.072 199.635 218.072C199.35 218.072 199.068 218.138 198.813 218.264L179.36 229.48C179.261 229.513 179.174 229.578 179.112 229.663C179.051 229.749 179.018 229.852 179.018 229.957C179.018 230.063 179.051 230.166 179.112 230.252C179.174 230.337 179.261 230.402 179.36 230.435L198.813 241.66C199.068 241.786 199.35 241.852 199.635 241.852C199.92 241.852 200.202 241.786 200.457 241.66L219.909 230.435C220.006 230.4 220.09 230.335 220.149 230.251C220.208 230.166 220.24 230.065 220.24 229.962C220.24 229.859 220.208 229.758 220.149 229.673C220.09 229.589 220.006 229.524 219.909 229.488L200.457 218.264Z" fill="#9D9DAF"/>
<path opacity="0.56" d="M200.449 218.37C200.197 218.24 199.918 218.172 199.635 218.172C199.352 218.172 199.073 218.24 198.822 218.37L179.564 229.488C179.466 229.522 179.381 229.585 179.321 229.669C179.261 229.753 179.229 229.854 179.229 229.957C179.229 230.061 179.261 230.162 179.321 230.246C179.381 230.33 179.466 230.393 179.564 230.426L198.822 241.562C199.074 241.689 199.353 241.755 199.635 241.755C199.918 241.755 200.196 241.689 200.449 241.562L219.706 230.435C219.804 230.402 219.889 230.339 219.949 230.255C220.009 230.17 220.042 230.07 220.042 229.966C220.042 229.863 220.009 229.762 219.949 229.678C219.889 229.594 219.804 229.53 219.706 229.497L200.449 218.37Z" fill="#9898AB"/>
<path opacity="0.59" d="M200.44 218.467C200.191 218.34 199.915 218.274 199.635 218.274C199.355 218.274 199.08 218.34 198.831 218.467L179.732 229.488C179.634 229.522 179.549 229.585 179.489 229.669C179.429 229.753 179.397 229.854 179.397 229.957C179.397 230.061 179.429 230.162 179.489 230.246C179.549 230.33 179.634 230.393 179.732 230.426L198.831 241.456C199.08 241.583 199.355 241.65 199.635 241.65C199.915 241.65 200.191 241.583 200.44 241.456L219.521 230.426C219.62 230.395 219.706 230.334 219.767 230.25C219.829 230.167 219.862 230.065 219.862 229.962C219.862 229.858 219.829 229.757 219.767 229.673C219.706 229.59 219.62 229.528 219.521 229.497L200.44 218.467Z" fill="#9494A8"/>
<path opacity="0.61" d="M200.431 218.565C200.183 218.439 199.909 218.373 199.631 218.373C199.353 218.373 199.079 218.439 198.831 218.565L179.918 229.497C179.833 229.536 179.761 229.598 179.711 229.677C179.661 229.755 179.634 229.846 179.634 229.94C179.634 230.033 179.661 230.124 179.711 230.202C179.761 230.281 179.833 230.343 179.918 230.382L198.848 241.323C199.096 241.449 199.37 241.515 199.648 241.515C199.927 241.515 200.201 241.449 200.449 241.323L219.37 230.391C219.469 230.36 219.556 230.298 219.617 230.215C219.679 230.131 219.712 230.03 219.712 229.926C219.712 229.823 219.679 229.721 219.617 229.638C219.556 229.554 219.469 229.492 219.37 229.462L200.431 218.565Z" fill="#8F8FA4"/>
<path opacity="0.63" d="M200.422 218.662C200.176 218.539 199.906 218.475 199.631 218.475C199.356 218.475 199.085 218.539 198.839 218.662L180.077 229.497C179.992 229.536 179.921 229.598 179.87 229.677C179.82 229.755 179.793 229.846 179.793 229.94C179.793 230.033 179.82 230.124 179.87 230.203C179.921 230.281 179.992 230.343 180.077 230.382L198.839 241.226C199.085 241.349 199.356 241.413 199.631 241.413C199.906 241.413 200.176 241.349 200.422 241.226L219.185 230.382C219.272 230.346 219.348 230.285 219.401 230.206C219.453 230.127 219.482 230.035 219.482 229.94C219.482 229.845 219.453 229.752 219.401 229.673C219.348 229.594 219.272 229.533 219.185 229.497L200.422 218.662Z" fill="#8B8BA1"/>
<path opacity="0.66" d="M200.422 218.76C200.178 218.638 199.908 218.575 199.635 218.575C199.362 218.575 199.093 218.638 198.848 218.76L180.28 229.506C180.192 229.542 180.117 229.603 180.064 229.682C180.011 229.761 179.983 229.853 179.983 229.948C179.983 230.043 180.011 230.136 180.064 230.215C180.117 230.294 180.192 230.355 180.28 230.391L198.848 241.146C199.093 241.268 199.362 241.331 199.635 241.331C199.908 241.331 200.178 241.268 200.422 241.146L218.99 230.4C219.423 230.152 219.423 229.745 218.99 229.515L200.422 218.76Z" fill="#86869D"/>
<path opacity="0.68" d="M200.413 218.866C200.171 218.747 199.905 218.685 199.635 218.685C199.365 218.685 199.099 218.747 198.857 218.866L180.422 229.488C180.334 229.524 180.259 229.585 180.206 229.664C180.153 229.743 180.125 229.836 180.125 229.931C180.125 230.026 180.153 230.119 180.206 230.198C180.259 230.276 180.334 230.338 180.422 230.374L198.857 240.996C199.099 241.115 199.365 241.176 199.635 241.176C199.905 241.176 200.171 241.115 200.413 240.996L218.84 230.374C218.931 230.341 219.011 230.281 219.067 230.202C219.123 230.123 219.153 230.028 219.153 229.931C219.153 229.834 219.123 229.739 219.067 229.66C219.011 229.58 218.931 229.521 218.84 229.488L200.413 218.866Z" fill="#828299"/>
<path opacity="0.71" d="M200.405 218.963C200.166 218.842 199.903 218.778 199.635 218.778C199.368 218.778 199.104 218.842 198.866 218.963L180.59 229.515C180.498 229.547 180.419 229.607 180.363 229.686C180.307 229.766 180.277 229.86 180.277 229.958C180.277 230.055 180.307 230.149 180.363 230.229C180.419 230.308 180.498 230.368 180.59 230.4L198.866 240.96C199.104 241.082 199.368 241.146 199.635 241.146C199.903 241.146 200.166 241.082 200.405 240.96L218.663 230.409C218.755 230.377 218.834 230.317 218.89 230.238C218.946 230.158 218.976 230.064 218.976 229.966C218.976 229.869 218.946 229.774 218.89 229.695C218.834 229.616 218.755 229.556 218.663 229.524L200.405 218.963Z" fill="#7E7E96"/>
<path opacity="0.73" d="M200.395 219.069C200.158 218.95 199.896 218.887 199.631 218.887C199.365 218.887 199.103 218.95 198.866 219.069L180.802 229.515C180.71 229.547 180.631 229.607 180.575 229.686C180.519 229.765 180.489 229.86 180.489 229.957C180.489 230.054 180.519 230.149 180.575 230.229C180.631 230.308 180.71 230.368 180.802 230.4L198.91 240.863C199.146 240.985 199.409 241.048 199.675 241.048C199.941 241.048 200.203 240.985 200.44 240.863L218.539 230.409C218.963 230.161 218.963 229.763 218.539 229.524L200.395 219.069Z" fill="#797992"/>
<path opacity="0.76" d="M200.387 219.158C200.152 219.041 199.893 218.979 199.631 218.979C199.368 218.979 199.109 219.041 198.875 219.158L180.935 229.524C180.838 229.551 180.754 229.609 180.694 229.689C180.634 229.769 180.601 229.866 180.601 229.966C180.601 230.066 180.634 230.164 180.694 230.244C180.754 230.323 180.838 230.382 180.935 230.409L198.875 240.783C199.109 240.901 199.368 240.962 199.631 240.962C199.893 240.962 200.152 240.901 200.387 240.783L218.327 230.418C218.423 230.39 218.508 230.332 218.568 230.252C218.628 230.173 218.66 230.075 218.66 229.975C218.66 229.875 218.628 229.778 218.568 229.698C218.508 229.618 218.423 229.56 218.327 229.533L200.387 219.158Z" fill="#75758E"/>
<path opacity="0.78" d="M200.387 219.256C200.154 219.138 199.896 219.077 199.635 219.077C199.374 219.077 199.117 219.138 198.884 219.256L181.103 229.524C181.006 229.551 180.922 229.609 180.862 229.689C180.802 229.769 180.769 229.866 180.769 229.966C180.769 230.066 180.802 230.164 180.862 230.243C180.922 230.323 181.006 230.381 181.103 230.409L198.884 240.686C199.117 240.803 199.374 240.865 199.635 240.865C199.896 240.865 200.154 240.803 200.387 240.686L218.15 230.418C218.246 230.39 218.331 230.332 218.391 230.252C218.451 230.172 218.484 230.075 218.484 229.975C218.484 229.875 218.451 229.778 218.391 229.698C218.331 229.618 218.246 229.56 218.15 229.533L200.387 219.256Z" fill="#70708B"/>
<path opacity="0.8" d="M200.378 219.362C200.148 219.244 199.894 219.182 199.635 219.182C199.377 219.182 199.122 219.244 198.893 219.362L181.279 229.532C180.864 229.763 180.864 230.152 181.279 230.418L198.893 240.597C199.124 240.711 199.378 240.77 199.635 240.77C199.893 240.77 200.147 240.711 200.378 240.597L217.982 230.418C218.084 230.397 218.176 230.342 218.242 230.261C218.308 230.18 218.344 230.079 218.344 229.975C218.344 229.871 218.308 229.77 218.242 229.689C218.176 229.608 218.084 229.553 217.982 229.532L200.378 219.362Z" fill="#6C6C87"/>
<path opacity="0.83" d="M200.369 219.459C200.141 219.341 199.888 219.279 199.631 219.279C199.374 219.279 199.121 219.341 198.892 219.459L181.447 229.532C181.345 229.553 181.253 229.608 181.187 229.689C181.121 229.77 181.085 229.871 181.085 229.975C181.085 230.079 181.121 230.18 181.187 230.261C181.253 230.342 181.345 230.397 181.447 230.418L198.892 240.5C199.121 240.618 199.374 240.679 199.631 240.679C199.888 240.679 200.141 240.618 200.369 240.5L217.805 230.426C218.212 230.187 218.212 229.807 217.805 229.541L200.369 219.459Z" fill="#676783"/>
<path opacity="0.85" d="M200.36 219.556C200.134 219.443 199.884 219.383 199.631 219.383C199.377 219.383 199.128 219.443 198.901 219.556L181.624 229.532C181.217 229.771 181.217 230.143 181.624 230.418L198.91 240.403C199.136 240.516 199.386 240.575 199.64 240.575C199.893 240.575 200.143 240.516 200.369 240.403L217.646 230.418C217.735 230.389 217.812 230.332 217.866 230.257C217.921 230.181 217.95 230.09 217.95 229.997C217.95 229.904 217.921 229.813 217.866 229.738C217.812 229.662 217.735 229.606 217.646 229.577L200.36 219.556Z" fill="#636380"/>
<path opacity="0.88" d="M200.36 219.654C200.135 219.54 199.887 219.481 199.635 219.481C199.383 219.481 199.135 219.54 198.91 219.654L181.792 229.541C181.707 229.572 181.633 229.629 181.581 229.703C181.529 229.778 181.501 229.867 181.501 229.957C181.501 230.048 181.529 230.137 181.581 230.212C181.633 230.286 181.707 230.342 181.792 230.374L198.91 240.314C199.135 240.428 199.383 240.487 199.635 240.487C199.887 240.487 200.135 240.428 200.36 240.314L217.469 230.427C217.558 230.398 217.635 230.341 217.689 230.266C217.744 230.19 217.773 230.099 217.773 230.006C217.773 229.913 217.744 229.822 217.689 229.747C217.635 229.671 217.558 229.615 217.469 229.586L200.36 219.654Z" fill="#5E5E7C"/>
<path opacity="0.9" d="M200.351 219.751C200.128 219.642 199.883 219.585 199.635 219.585C199.387 219.585 199.142 219.642 198.919 219.751L181.96 229.541C181.875 229.572 181.801 229.629 181.749 229.703C181.697 229.778 181.669 229.867 181.669 229.957C181.669 230.048 181.697 230.137 181.749 230.211C181.801 230.286 181.875 230.342 181.96 230.373L198.919 240.173C199.141 240.286 199.386 240.345 199.635 240.345C199.884 240.345 200.13 240.286 200.351 240.173L217.292 230.373C217.69 230.152 217.69 229.78 217.292 229.55L200.351 219.751Z" fill="#5A5A79"/>
<path opacity="0.93" d="M200.343 219.857C200.124 219.744 199.881 219.685 199.635 219.685C199.389 219.685 199.146 219.744 198.928 219.857L182.128 229.55C182.045 229.581 181.973 229.636 181.922 229.709C181.871 229.782 181.844 229.868 181.844 229.957C181.844 230.046 181.871 230.133 181.922 230.206C181.973 230.278 182.045 230.334 182.128 230.364L198.928 240.102C199.148 240.211 199.39 240.268 199.635 240.268C199.881 240.268 200.123 240.211 200.343 240.102L217.142 230.364C217.229 230.336 217.304 230.281 217.357 230.207C217.41 230.133 217.439 230.044 217.439 229.953C217.439 229.862 217.41 229.773 217.357 229.699C217.304 229.625 217.229 229.57 217.142 229.541L200.343 219.857Z" fill="#555575"/>
<path opacity="0.95" d="M200.334 219.955C200.115 219.846 199.875 219.789 199.631 219.789C199.387 219.789 199.146 219.846 198.928 219.955L182.305 229.55C182.222 229.581 182.15 229.636 182.099 229.709C182.048 229.782 182.021 229.869 182.021 229.957C182.021 230.046 182.048 230.133 182.099 230.206C182.15 230.279 182.222 230.334 182.305 230.365L198.928 239.969C199.145 240.082 199.386 240.141 199.631 240.141C199.875 240.141 200.117 240.082 200.334 239.969L216.948 230.365C217.032 230.336 217.105 230.282 217.157 230.21C217.209 230.138 217.237 230.051 217.237 229.962C217.237 229.873 217.209 229.786 217.157 229.714C217.105 229.642 217.032 229.587 216.948 229.559L200.334 219.955Z" fill="#515171"/>
<path opacity="0.98" d="M200.325 220.052C200.109 219.943 199.872 219.887 199.631 219.887C199.389 219.887 199.152 219.943 198.937 220.052L182.482 229.559C182.093 229.781 182.093 230.135 182.482 230.356L198.937 239.872C199.152 239.981 199.389 240.037 199.631 240.037C199.872 240.037 200.109 239.981 200.325 239.872L216.779 230.365C216.864 230.336 216.937 230.282 216.989 230.21C217.041 230.138 217.069 230.051 217.069 229.962C217.069 229.873 217.041 229.786 216.989 229.714C216.937 229.642 216.864 229.588 216.779 229.559L200.325 220.052Z" fill="#4C4C6E"/>
<path opacity="0.52" d="M200.325 220.15C200.111 220.041 199.875 219.984 199.635 219.984C199.395 219.984 199.159 220.041 198.945 220.15L182.65 229.559C182.569 229.589 182.498 229.644 182.449 229.715C182.4 229.786 182.373 229.871 182.373 229.957C182.373 230.044 182.4 230.129 182.449 230.2C182.498 230.271 182.569 230.326 182.65 230.356L198.945 239.774C199.159 239.883 199.395 239.94 199.635 239.94C199.875 239.94 200.111 239.883 200.325 239.774L216.612 230.365C216.693 230.334 216.763 230.28 216.812 230.209C216.862 230.138 216.888 230.053 216.888 229.966C216.888 229.88 216.862 229.795 216.812 229.724C216.763 229.652 216.693 229.598 216.612 229.568L200.325 220.15Z" fill="#48486A"/>
</g>
<path d="M218.256 208.766H181.12V229.736C181.129 229.829 181.162 229.917 181.216 229.992C181.271 230.066 181.345 230.125 181.43 230.161L198.937 240.315C199.166 240.433 199.421 240.494 199.679 240.494C199.938 240.494 200.192 240.433 200.422 240.315L217.938 230.17C218.022 230.131 218.095 230.07 218.15 229.994C218.204 229.918 218.238 229.829 218.247 229.736L218.256 208.766Z" fill="url(#paint7_linear_2202_1410)"/>
<path d="M217.938 214.918L200.413 225.054C200.182 225.167 199.928 225.226 199.67 225.226C199.413 225.226 199.159 225.167 198.928 225.054L181.403 214.909C181.319 214.874 181.246 214.817 181.192 214.743C181.138 214.67 181.104 214.584 181.094 214.493V217.397C181.103 217.489 181.137 217.576 181.191 217.651C181.245 217.726 181.318 217.785 181.403 217.822L198.936 227.922C199.166 228.04 199.421 228.101 199.679 228.101C199.938 228.101 200.192 228.04 200.422 227.922L217.938 217.822C218.023 217.785 218.096 217.727 218.151 217.652C218.205 217.577 218.239 217.489 218.247 217.397V214.493C218.238 214.585 218.204 214.673 218.15 214.748C218.095 214.822 218.022 214.881 217.938 214.918Z" fill="url(#paint8_linear_2202_1410)"/>
<path d="M217.938 222.699L200.413 232.834C200.182 232.948 199.928 233.007 199.671 233.007C199.413 233.007 199.159 232.948 198.928 232.834L181.394 222.69C181.311 222.655 181.238 222.597 181.183 222.524C181.129 222.451 181.095 222.365 181.085 222.274V225.178C181.093 225.27 181.127 225.358 181.181 225.433C181.236 225.508 181.309 225.566 181.394 225.602L198.928 235.738C199.158 235.856 199.412 235.918 199.671 235.918C199.929 235.918 200.184 235.856 200.413 235.738L217.938 225.611C218.023 225.572 218.096 225.511 218.15 225.435C218.204 225.359 218.238 225.271 218.247 225.178V222.274C218.238 222.366 218.204 222.454 218.15 222.528C218.096 222.603 218.023 222.662 217.938 222.699Z" fill="url(#paint9_linear_2202_1410)"/>
<path d="M200.422 198.206C200.192 198.088 199.938 198.026 199.68 198.026C199.421 198.026 199.167 198.088 198.937 198.206L181.403 208.332C181.286 208.332 181.174 208.379 181.091 208.462C181.008 208.545 180.961 208.658 180.961 208.775C180.961 208.892 181.008 209.005 181.091 209.088C181.174 209.171 181.286 209.218 181.403 209.218L198.937 219.362C199.168 219.475 199.422 219.534 199.68 219.534C199.937 219.534 200.191 219.475 200.422 219.362L217.938 209.191C218.04 209.171 218.132 209.115 218.198 209.035C218.264 208.954 218.3 208.853 218.3 208.748C218.3 208.644 218.264 208.543 218.198 208.462C218.132 208.382 218.04 208.326 217.938 208.306L200.422 198.206Z" fill="#F6F8FB"/>
<path style="mix-blend-mode:multiply" d="M191.907 204.075C196.178 201.605 203.163 201.605 207.443 204.075C211.722 206.544 211.713 210.581 207.443 213.051C203.172 215.52 196.178 215.52 191.907 213.051C187.637 210.581 187.637 206.544 191.907 204.075Z" fill="url(#paint10_radial_2202_1410)"/>
<path d="M212.96 196.117C212.96 195.781 212.5 195.515 211.934 195.515H209.724C209.361 195.515 208.76 195.896 208.663 195.781C208.566 195.666 208.566 195.365 208.831 195.214L210.387 194.329C210.785 194.09 208.23 194.205 207.823 193.966V192.027C207.596 191.91 207.345 191.848 207.089 191.848C206.834 191.848 206.582 191.91 206.355 192.027L204.79 192.913C204.501 193.06 204.168 193.098 203.853 193.019L203.172 192.86C202.845 192.78 202.633 192.603 202.633 192.399V191.116C202.633 190.788 202.173 190.523 201.607 190.523H198.008C197.443 190.523 196.983 190.788 196.983 191.116V192.39C196.983 192.594 196.744 192.78 196.408 192.851C196.072 192.922 195.975 192.948 195.763 193.01C195.437 193.096 195.092 193.061 194.79 192.913L193.225 192.027C192.999 191.914 192.749 191.855 192.495 191.855C192.242 191.855 191.992 191.914 191.766 192.027L191.58 194.143C191.174 194.382 188.831 194.143 189.237 194.338L190.811 195.223C191.059 195.365 191.129 195.577 190.997 195.763C190.864 195.949 190.281 195.515 189.927 195.515H187.699C187.133 195.515 186.673 195.781 186.673 196.108V199.136C186.673 199.463 187.142 199.729 187.708 199.729H188.999V202.225C188.99 202.269 188.99 202.314 188.999 202.358C189.016 202.436 189.052 202.51 189.103 202.573C189.153 202.636 189.217 202.686 189.29 202.721L191.837 204.172C192.107 204.317 192.417 204.373 192.721 204.332C192.909 204.312 193.092 204.258 193.26 204.172L194.825 203.287C195.115 203.14 195.448 203.102 195.763 203.181L196.435 203.34C196.762 203.411 196.983 203.597 196.983 203.792V205.075C196.983 205.403 197.443 205.668 198.017 205.668H201.607C202.173 205.668 202.642 205.403 202.633 205.075V203.801C202.633 203.588 202.871 203.411 203.207 203.34L203.818 203.19C204.145 203.098 204.495 203.133 204.799 203.287L206.355 204.172C206.522 204.261 206.706 204.312 206.895 204.323C207.198 204.364 207.506 204.312 207.779 204.172L210.316 202.703C210.386 202.67 210.448 202.624 210.498 202.566C210.548 202.508 210.586 202.44 210.608 202.366V202.251V199.702H211.881C212.456 199.702 212.916 199.437 212.916 199.109L212.96 196.117ZM204.843 198.631C204.242 200.463 200.953 201.499 198 200.835C195.754 200.339 194.383 198.941 194.825 197.578C195.427 195.745 198.716 194.718 201.669 195.373C203.915 195.869 205.285 197.268 204.843 198.631Z" fill="#48486A"/>
<path d="M210.696 192.674V191.054H208.371L207.858 190.753C207.63 190.639 207.379 190.58 207.124 190.58C206.87 190.58 206.618 190.639 206.39 190.753L205.878 191.054H202.668V189.859C202.668 189.531 202.208 189.266 201.642 189.266H198.044C197.478 189.266 197.018 189.531 197.018 189.859V191.045H193.755L193.26 190.762C193.034 190.646 192.784 190.585 192.531 190.585C192.277 190.585 192.027 190.646 191.801 190.762L191.315 191.045H188.972V192.629C188.976 192.724 189.006 192.816 189.059 192.894C189.112 192.972 189.186 193.034 189.273 193.072L190.846 193.957H208.84L210.396 193.072C210.473 193.038 210.54 192.986 210.591 192.919C210.642 192.853 210.675 192.774 210.688 192.691L210.696 192.674Z" fill="#48486A"/>
<path d="M209.096 196.869H211.908C212.483 196.869 212.942 196.604 212.942 196.276V194.205C212.942 193.877 212.483 193.612 211.917 193.612H209.706C209.556 193.623 209.405 193.599 209.266 193.542C209.126 193.485 209.002 193.397 208.902 193.284C208.822 193.169 208.742 193.045 208.645 192.93C208.548 192.815 208.548 192.514 208.813 192.373L210.369 191.487C210.458 191.458 210.535 191.402 210.589 191.326C210.644 191.251 210.673 191.16 210.673 191.067C210.673 190.974 210.644 190.883 210.589 190.807C210.535 190.732 210.458 190.676 210.369 190.646L207.832 189.186C207.604 189.072 207.353 189.013 207.098 189.013C206.843 189.013 206.592 189.072 206.364 189.186L204.799 190.071C204.51 190.219 204.177 190.256 203.862 190.177L203.181 190.018C202.854 189.947 202.642 189.761 202.642 189.558V188.283C202.642 187.955 202.182 187.681 201.616 187.681H198.017C197.451 187.681 196.992 187.955 196.992 188.283V189.549C196.992 189.761 196.753 189.938 196.417 190.018L195.771 190.168C195.447 190.257 195.102 190.226 194.799 190.08L193.234 189.195C193.008 189.079 192.758 189.019 192.504 189.019C192.251 189.019 192.001 189.079 191.775 189.195L189.237 190.655C189.149 190.684 189.072 190.741 189.017 190.816C188.963 190.892 188.933 190.983 188.933 191.076C188.933 191.169 188.963 191.26 189.017 191.335C189.072 191.411 189.149 191.467 189.237 191.496L190.811 192.381C191.059 192.523 191.129 192.736 190.997 192.921L190.723 193.311C190.622 193.42 190.498 193.505 190.361 193.56C190.223 193.615 190.075 193.639 189.927 193.63H187.699C187.133 193.63 186.673 193.895 186.673 194.223V196.294C186.673 196.621 187.142 196.887 187.708 196.887H189.909C190.061 196.873 190.214 196.896 190.355 196.953C190.497 197.01 190.623 197.099 190.723 197.215C190.799 197.337 190.882 197.455 190.97 197.569C191.129 197.755 191.076 197.976 190.811 198.126L189.255 199.012C189.166 199.041 189.089 199.097 189.035 199.172C188.98 199.248 188.951 199.339 188.951 199.432C188.951 199.525 188.98 199.616 189.035 199.692C189.089 199.767 189.166 199.823 189.255 199.852L191.801 201.313C192.028 201.427 192.278 201.486 192.531 201.486C192.784 201.486 193.034 201.427 193.26 201.313L194.825 200.428C195.116 200.285 195.447 200.247 195.763 200.322C195.984 200.384 196.231 200.437 196.435 200.481C196.638 200.525 196.983 200.738 196.983 200.941V202.251C196.983 202.579 197.443 202.844 198.017 202.844H201.607C202.173 202.844 202.642 202.579 202.633 202.251V200.985C202.633 200.773 202.871 200.587 203.207 200.516L203.818 200.375C204.144 200.281 204.494 200.312 204.799 200.463L206.355 201.348C206.582 201.462 206.831 201.521 207.085 201.521C207.338 201.521 207.588 201.462 207.814 201.348L210.352 199.888C210.758 199.649 210.758 199.277 210.352 199.047L208.778 198.162C208.53 198.02 208.46 197.799 208.601 197.622C208.875 197.268 209.096 196.94 209.096 196.869ZM194.799 194.718C195.4 192.895 198.689 191.859 201.642 192.514C203.888 193.019 205.259 194.417 204.817 195.781C204.215 197.604 200.926 198.64 197.973 197.985C195.754 197.48 194.383 196.055 194.825 194.718H194.799Z" fill="url(#paint11_linear_2202_1410)"/>
<defs>
<linearGradient id="paint0_linear_2202_1410" x1="134.749" y1="134.273" x2="77.5133" y2="134.273" gradientUnits="userSpaceOnUse">
<stop stop-color="#D3DAED"/>
<stop offset="1" stop-color="#99A7D8"/>
</linearGradient>
<linearGradient id="paint1_linear_2202_1410" x1="112.283" y1="115.596" x2="105.002" y2="153.958" gradientUnits="userSpaceOnUse">
<stop offset="0.1321" stop-color="#00A373"/>
<stop offset="1" stop-color="#1ABBC0"/>
</linearGradient>
<linearGradient id="paint2_linear_2202_1410" x1="170.103" y1="132.698" x2="175.994" y2="184.998" gradientUnits="userSpaceOnUse">
<stop stop-color="#A97EFF"/>
<stop offset="0.9985" stop-color="#835ED0"/>
</linearGradient>
<linearGradient id="paint3_linear_2202_1410" x1="154.669" y1="134.381" x2="163.497" y2="214.725" gradientUnits="userSpaceOnUse">
<stop stop-color="#A97EFF"/>
<stop offset="0.9985" stop-color="#835ED0"/>
</linearGradient>
<linearGradient id="paint4_linear_2202_1410" x1="129.874" y1="120.073" x2="131.197" y2="156.95" gradientUnits="userSpaceOnUse">
<stop stop-color="#A97EFF"/>
<stop offset="0.9985" stop-color="#835ED0"/>
</linearGradient>
<radialGradient id="paint5_radial_2202_1410" cx="0" cy="0" r="1" gradientUnits="userSpaceOnUse" gradientTransform="translate(105.984 271.983) rotate(180) scale(14.6002 8.4676)">
<stop offset="0.27" stop-color="#48486A"/>
<stop offset="0.32" stop-color="#62627F"/>
<stop offset="0.44" stop-color="#9292A6"/>
<stop offset="0.56" stop-color="#B9B9C6"/>
<stop offset="0.68" stop-color="#D8D8DF"/>
<stop offset="0.79" stop-color="#EDEDF1"/>
<stop offset="0.9" stop-color="#FBFBFB"/>
<stop offset="1" stop-color="white"/>
</radialGradient>
<linearGradient id="paint6_linear_2202_1410" x1="117.651" y1="258.342" x2="94.3189" y2="258.342" gradientUnits="userSpaceOnUse">
<stop stop-color="#99A7D8"/>
<stop offset="1" stop-color="#D3DAED"/>
</linearGradient>
<linearGradient id="paint7_linear_2202_1410" x1="181.094" y1="224.62" x2="218.256" y2="224.62" gradientUnits="userSpaceOnUse">
<stop stop-color="#F2F4FA"/>
<stop offset="0.92" stop-color="#D6DCEE"/>
<stop offset="1" stop-color="#D3DAED"/>
</linearGradient>
<linearGradient id="paint8_linear_2202_1410" x1="181.094" y1="221.309" x2="218.256" y2="221.309" gradientUnits="userSpaceOnUse">
<stop stop-color="#5C629E"/>
<stop offset="1" stop-color="#48486A"/>
</linearGradient>
<linearGradient id="paint9_linear_2202_1410" x1="7588.69" y1="5124.6" x2="9150.63" y2="5124.6" gradientUnits="userSpaceOnUse">
<stop stop-color="#5C629E"/>
<stop offset="1" stop-color="#48486A"/>
</linearGradient>
<radialGradient id="paint10_radial_2202_1410" cx="0" cy="0" r="1" gradientUnits="userSpaceOnUse" gradientTransform="translate(199.671 228.55) scale(11.0877 5.77214)">
<stop offset="0.15" stop-color="#9A9EC3"/>
<stop offset="0.2" stop-color="#A2A6C8"/>
<stop offset="0.44" stop-color="#CACCE0"/>
<stop offset="0.67" stop-color="#E7E8F1"/>
<stop offset="0.86" stop-color="#F9F9FB"/>
<stop offset="1" stop-color="white"/>
</radialGradient>
<linearGradient id="paint11_linear_2202_1410" x1="3443.54" y1="651.375" x2="5817.24" y2="651.375" gradientUnits="userSpaceOnUse">
<stop stop-color="#000071"/>
<stop offset="1" stop-color="#1D4CB9"/>
</linearGradient>
</defs>
</svg>
