<svg width="295" height="326" viewBox="0 0 295 326" fill="none" xmlns="http://www.w3.org/2000/svg">
<path opacity="0.5" d="M153 2.00003C126.182 -4.26156 105.333 13.6667 85.9998 24C66.6665 34.3334 21.3332 51 20.9999 79C20.6666 107 15.9999 181 15.9999 181C15.9999 181 -8.56354 226.323 4.99986 250C15.787 268.83 35.2155 265.564 52.9999 278C75.9109 294.022 79.2863 321.317 107 325C129.526 327.994 162 306 162 306L213 269C213 269 261.595 264.189 280 243C300.756 219.104 293 163 293 163C293 163 278.378 115.318 259 91C240.831 68.2001 225 75 201 44C177 13 177.255 7.66328 153 2.00003Z" fill="#EBEBF7"/>
<path d="M195.535 200.06L252.999 166.95V166.173L170.295 121.494L126.823 160.195L195.535 200.06Z" fill="#7D81B1"/>
<path d="M195.535 199.284L252.999 166.173L170.295 120.717L126.823 159.418L195.535 199.284Z" fill="#48486A"/>
<path d="M193.221 198.506L250.664 165.396L251.053 154.863L167.981 119.163L124.51 157.863L193.221 198.506Z" fill="#F1F2F2"/>
<path d="M158.583 102.935C160.118 102.05 162.007 102.044 163.548 102.919L252.661 153.505C252.87 153.624 253 153.846 253 154.087C253 154.327 252.872 154.548 252.665 154.668L198.031 186.146C196.486 187.036 194.584 187.036 193.039 186.146L111.134 138.949C107.796 137.025 107.796 132.208 111.134 130.285L158.583 102.935Z" fill="url(#paint0_linear_2202_1255)"/>
<path d="M161.061 100.73L253 153.697L195.535 186.808L103.617 133.84L161.061 100.73Z" fill="url(#paint1_linear_2202_1255)"/>
<path d="M173.042 113.12L198.865 127.948L152.647 154.561L126.823 139.733L173.042 113.12Z" fill="white"/>
<path d="M104.396 134.229V147.114L195.535 200.06L196.313 199.607V187.196L104.396 134.229Z" fill="#7D81B1"/>
<path d="M103.617 133.84V146.726L195.535 200.06V186.808L103.617 133.84Z" fill="url(#paint2_linear_2202_1255)"/>
<path d="M200.828 171.649L249.079 143.849V143.201L179.611 105.666L143.104 138.172L200.828 171.649Z" fill="#E5E9F4"/>
<path d="M200.828 171.001L249.079 143.201L179.611 105.018L143.104 137.524L200.828 171.001Z" fill="#9EA4B2"/>
<path d="M198.86 170.354L247.112 142.554L247.458 133.704L177.665 103.724L141.157 136.23L198.86 170.354Z" fill="white"/>
<path d="M171.869 88.895L249.08 132.732V133.38L200.828 161.18L123.617 116.695L171.869 88.895Z" fill="#E5E9F4"/>
<path d="M171.869 88.2478L249.08 132.733L200.828 160.533L123.617 116.048L171.869 88.2478Z" fill="#CEA6DC"/>
<path d="M181.925 98.6299L203.618 111.084L164.796 133.467L143.104 121.013L181.925 98.6299Z" fill="white"/>
<path d="M124.266 116.372V127.185L200.828 171.649L201.477 171.282V160.857L124.266 116.372Z" fill="#E5E9F4"/>
<path d="M123.617 116.048V126.861L200.828 171.648V160.532L123.617 116.048Z" fill="#CEA6DC"/>
<path style="mix-blend-mode:multiply" opacity="0.59" d="M162.846 242.484C152.347 236.472 152.347 226.624 162.846 220.612C173.345 214.6 190.481 214.6 200.922 220.612C211.364 226.624 211.364 236.472 200.922 242.484C190.481 248.496 173.345 248.515 162.846 242.484Z" fill="url(#paint3_radial_2202_1255)"/>
<path d="M199.144 227.636C202.28 225.534 204.848 222.693 206.619 219.363C208.39 216.034 209.311 212.32 209.299 208.55V201.813C209.296 200.878 209.047 199.961 208.577 199.153C208.107 198.344 207.433 197.673 206.623 197.206C205.812 196.738 204.892 196.491 203.956 196.489C203.02 196.487 202.099 196.73 201.286 197.194L196.505 199.942L199.01 204.256L203.791 201.507C203.84 201.467 203.901 201.445 203.964 201.445C204.027 201.445 204.087 201.467 204.136 201.507C204.191 201.537 204.236 201.581 204.267 201.635C204.297 201.689 204.311 201.751 204.308 201.813V208.55C204.312 211.491 203.59 214.388 202.206 216.984C200.822 219.581 198.818 221.797 196.371 223.437L199.144 227.636Z" fill="#1C1C7D"/>
<path d="M164.472 196.335H199.259V229.678C199.259 232.178 197.5 234.678 194.21 236.568C190.532 238.519 186.422 239.516 182.258 239.469H181.512C177.355 239.503 173.254 238.506 169.578 236.568C166.136 234.659 164.453 231.987 164.491 229.392L164.472 196.335Z" fill="url(#paint4_linear_2202_1255)"/>
<path d="M169.56 203.397C162.771 199.58 162.771 193.148 169.56 189.255C173.38 187.335 177.598 186.335 181.876 186.335C186.153 186.335 190.371 187.335 194.192 189.255C200.942 193.072 200.942 199.504 194.192 203.397C190.371 205.317 186.153 206.317 181.876 206.317C177.598 206.317 173.38 205.317 169.56 203.397Z" fill="#99A7D8"/>
<path d="M170.63 202.786C164.415 199.236 164.415 193.415 170.63 189.865C174.115 188.101 177.968 187.182 181.875 187.182C185.783 187.182 189.635 188.101 193.12 189.865C199.297 193.415 199.297 199.236 193.12 202.786C189.635 204.55 185.783 205.469 181.875 205.469C177.968 205.469 174.115 204.55 170.63 202.786Z" fill="url(#paint5_linear_2202_1255)"/>
<path d="M171.625 203.454C165.887 200.801 165.887 196.45 171.625 193.797C178.209 191.125 185.579 191.125 192.164 193.797C197.786 196.45 197.786 200.801 192.164 203.454C185.579 206.125 178.209 206.125 171.625 203.454Z" fill="url(#paint6_linear_2202_1255)"/>
<path opacity="0.3" d="M167.608 199.809C168.586 198.485 170.014 197.562 171.624 197.213C178.34 195.324 185.448 195.324 192.163 197.213C193.767 197.566 195.188 198.489 196.16 199.809C195.345 201.49 193.914 202.795 192.163 203.454C185.579 206.126 178.209 206.126 171.624 203.454C169.865 202.801 168.426 201.495 167.608 199.809Z" fill="white"/>
<g opacity="0.3">
<path opacity="0.02" d="M164.835 201.045C166.385 201.933 166.385 203.391 164.835 204.278L122.305 228.706C120.756 229.594 118.223 229.598 116.674 228.706L50.0126 190.548C48.4633 189.661 48.4599 188.203 50.0126 187.312L92.5528 162.747C94.0954 161.856 96.628 161.852 98.1773 162.747L164.835 201.045Z" fill="#48486A"/>
<path opacity="0.04" d="M164.583 200.998C166.122 201.883 166.122 203.344 164.583 204.215L122.288 228.519C120.749 229.403 118.247 229.403 116.691 228.519L50.3427 190.555C48.8002 189.674 48.7968 188.21 50.3427 187.339L92.6439 162.911C94.1796 162.023 96.6854 162.02 98.2346 162.911L164.583 200.998Z" fill="#48486A"/>
<path opacity="0.06" d="M164.334 200.968C165.863 201.846 165.863 203.287 164.334 204.165L122.275 228.318C120.746 229.199 118.233 229.199 116.708 228.318L50.6965 190.535C49.1641 189.657 49.1607 188.22 50.6965 187.336L92.7585 163.045C94.2875 162.164 96.8 162.161 98.319 163.045L164.334 200.968Z" fill="#48486A"/>
<path opacity="0.08" d="M164.081 200.935C165.603 201.809 165.603 203.24 164.081 204.114L122.261 228.133C120.742 229.008 118.25 229.008 116.728 228.133L51.023 190.538C49.4973 189.667 49.4939 188.233 51.023 187.355L92.8459 163.206C94.3682 162.328 96.8571 162.325 98.376 163.206L164.081 200.935Z" fill="#48486A"/>
<path opacity="0.1" d="M163.828 200.905C165.341 201.772 165.341 203.196 163.828 204.064L122.248 227.946C120.736 228.817 118.26 228.817 116.745 227.946L51.3599 190.535C49.8443 189.667 49.8409 188.244 51.3599 187.372L92.947 163.357C94.4558 162.486 96.9313 162.482 98.4435 163.357L163.828 200.905Z" fill="#48486A"/>
<path opacity="0.12" d="M163.576 200.874C165.081 201.735 165.081 203.153 163.576 204.014L122.234 227.761C120.729 228.622 118.267 228.626 116.761 227.761L51.6931 190.528C50.1876 189.664 50.1876 188.25 51.6931 187.382L93.0378 163.521C94.5398 162.653 97.0018 162.653 98.5039 163.521L163.576 200.874Z" fill="#48486A"/>
<path opacity="0.14" d="M163.327 200.841C164.822 201.702 164.822 203.106 163.327 203.967L122.221 227.574C120.726 228.432 118.277 228.435 116.779 227.574L52.0335 190.528C50.5348 189.671 50.5314 188.264 52.0335 187.399L93.1424 163.661C94.6378 162.797 97.0829 162.794 98.5782 163.661L163.327 200.841Z" fill="#48486A"/>
<path opacity="0.16" d="M163.074 200.811C164.559 201.665 164.559 203.062 163.074 203.917L122.207 227.369C120.722 228.224 118.287 228.227 116.798 227.369L52.3667 190.522C50.8781 189.671 50.8781 188.273 52.3667 187.416L93.2399 163.812C94.7217 162.954 97.1567 162.951 98.6285 163.812L163.074 200.811Z" fill="#48486A"/>
<path opacity="0.18" d="M162.821 200.777C164.3 201.628 164.3 203.019 162.821 203.866L122.194 227.202C120.715 228.049 118.294 228.053 116.805 227.202L52.6934 190.515C51.2149 189.671 51.2115 188.28 52.6934 187.426L93.3275 163.973C94.8026 163.119 97.2208 163.115 98.7161 163.973L162.821 200.777Z" fill="#48486A"/>
<path opacity="0.2" d="M162.569 200.747C164.04 201.591 164.04 202.972 162.569 203.816L122.18 227.014C120.712 227.858 118.304 227.858 116.832 227.014L53.0403 190.495C51.5719 189.654 51.5685 188.273 53.0403 187.426L93.4554 164.097C94.9239 163.249 97.3286 163.246 98.797 164.097L162.569 200.747Z" fill="#48486A"/>
<path opacity="0.22" d="M162.319 200.71C163.778 201.551 163.778 202.925 162.319 203.762L122.167 226.843C120.705 227.684 118.314 227.684 116.852 226.843L53.3771 190.512C51.9154 189.674 51.912 188.3 53.3771 187.459L93.5328 164.268C94.9945 163.427 97.3824 163.424 98.8441 164.268L162.319 200.71Z" fill="#48486A"/>
<path opacity="0.24" d="M162.067 200.683C163.519 201.518 163.519 202.881 162.067 203.699L122.154 226.642C120.702 227.477 118.324 227.477 116.869 226.642L53.714 190.508C52.2624 189.677 52.259 188.31 53.714 187.473L93.6374 164.422C95.0856 163.584 97.4633 163.581 98.9149 164.422L162.067 200.683Z" fill="#48486A"/>
<path opacity="0.25" d="M161.815 200.653C163.259 201.481 163.259 202.838 161.815 203.669L122.14 226.451C120.696 227.282 118.331 227.282 116.886 226.451L54.051 190.505C52.6061 189.677 52.6027 188.321 54.051 187.49L93.7352 164.576C95.1767 163.742 97.5376 163.742 98.9825 164.576L161.815 200.653Z" fill="#48486A"/>
<path opacity="0.27" d="M161.562 200.62C163 201.444 163 202.794 161.562 203.635L122.12 226.267C121.31 226.674 120.415 226.885 119.508 226.885C118.601 226.885 117.706 226.674 116.896 226.267L54.3876 190.502C52.9529 189.681 52.9495 188.331 54.3876 187.486L93.8328 164.704C95.2675 163.876 97.615 163.876 99.0497 164.704L161.562 200.62Z" fill="#48486A"/>
<path opacity="0.29" d="M161.313 200.59C162.737 201.407 162.737 202.747 161.313 203.568L122.12 226.083C120.692 226.901 118.358 226.904 116.93 226.083L54.7244 190.498C53.2964 189.681 53.293 188.341 54.7244 187.516L93.9338 164.878C95.355 164.054 97.689 164.05 99.117 164.878L161.313 200.59Z" fill="#48486A"/>
<path opacity="0.31" d="M161.06 200.556C162.478 201.37 162.478 202.704 161.06 203.518L122.097 225.895C121.297 226.296 120.414 226.505 119.518 226.505C118.623 226.505 117.74 226.296 116.94 225.895L55.0613 190.495C53.6434 189.684 53.64 188.351 55.0613 187.53L94.0316 165.028C94.8303 164.626 95.7129 164.417 96.608 164.417C97.5032 164.417 98.3858 164.626 99.1845 165.028L161.06 200.556Z" fill="#48486A"/>
<path opacity="0.33" d="M160.807 200.526C162.218 201.333 162.218 202.66 160.807 203.468L122.076 225.711C121.281 226.109 120.403 226.317 119.513 226.317C118.623 226.317 117.745 226.109 116.95 225.711L55.3977 190.492C53.9866 189.684 53.9866 188.357 55.3977 187.546L94.1289 165.183C94.9226 164.782 95.8001 164.573 96.6902 164.573C97.5802 164.573 98.4577 164.782 99.2515 165.183L160.807 200.526Z" fill="#48486A"/>
<path opacity="0.35" d="M160.555 200.493C161.956 201.3 161.956 202.613 160.555 203.421L122.069 225.533C121.28 225.929 120.408 226.135 119.523 226.135C118.639 226.135 117.767 225.929 116.977 225.533L55.7347 190.488C54.3336 189.684 54.3302 188.367 55.7347 187.56L94.2267 165.333C95.016 164.936 95.8882 164.729 96.7729 164.729C97.6575 164.729 98.5297 164.936 99.319 165.333L160.555 200.493Z" fill="#48486A"/>
<path opacity="0.37" d="M160.306 200.462C161.697 201.263 161.697 202.57 160.306 203.37L122.056 225.336C121.272 225.728 120.407 225.932 119.53 225.932C118.653 225.932 117.788 225.728 117.004 225.336L56.0816 190.491C54.6873 189.694 54.6873 188.384 56.0816 187.583L94.3379 165.491C95.1212 165.097 95.9864 164.892 96.8639 164.892C97.7413 164.892 98.6065 165.097 99.3898 165.491L160.306 200.462Z" fill="#48486A"/>
<path opacity="0.39" d="M160.053 200.432C161.437 201.226 161.437 202.526 160.053 203.32L122.042 225.168C121.262 225.559 120.4 225.762 119.527 225.762C118.653 225.762 117.791 225.559 117.011 225.168L56.4083 190.482C55.0241 189.687 55.0207 188.388 56.4083 187.59L94.4255 165.638C95.204 165.245 96.0648 165.04 96.9379 165.04C97.8111 165.04 98.6719 165.245 99.4504 165.638L160.053 200.432Z" fill="#48486A"/>
<path opacity="0.41" d="M159.8 200.399C161.175 201.189 161.175 202.479 159.8 203.27L122.029 224.964C121.254 225.353 120.397 225.556 119.528 225.556C118.66 225.556 117.803 225.353 117.028 224.964L56.7418 190.475C55.3677 189.688 55.3643 188.394 56.7418 187.6L94.503 165.789C95.2772 165.399 96.1327 165.196 97.0003 165.196C97.868 165.196 98.7235 165.399 99.4977 165.789L159.8 200.399Z" fill="#48486A"/>
<path opacity="0.43" d="M159.548 200.375C160.915 201.159 160.915 202.442 159.548 203.226L122.015 224.783C121.245 225.169 120.394 225.37 119.532 225.37C118.669 225.37 117.818 225.169 117.048 224.783L57.0817 190.475C55.7144 189.691 55.711 188.408 57.0817 187.62L94.624 165.94C95.3926 165.552 96.2425 165.349 97.1045 165.349C97.9665 165.349 98.8163 165.552 99.585 165.94L159.548 200.375Z" fill="#48486A"/>
<path opacity="0.45" d="M159.298 200.335C160.646 201.116 160.646 202.392 159.298 203.169L122.002 224.592C121.236 224.975 120.391 225.175 119.533 225.175C118.676 225.175 117.83 224.975 117.065 224.592L57.4186 190.465C56.0714 189.691 56.0714 188.411 57.4186 187.63L94.7218 166.091C95.4857 165.705 96.3303 165.504 97.1871 165.504C98.0438 165.504 98.8885 165.705 99.6524 166.091L159.298 200.335Z" fill="#48486A"/>
<path opacity="0.47" d="M159.046 200.305C160.393 201.079 160.393 202.345 159.046 203.122L121.998 224.404C121.238 224.786 120.397 224.985 119.545 224.985C118.693 224.985 117.852 224.786 117.091 224.404L57.7553 190.465C56.4081 189.694 56.4081 188.424 57.7553 187.647L94.8025 166.245C95.562 165.862 96.4013 165.663 97.2526 165.663C98.1039 165.663 98.9432 165.862 99.7028 166.245L159.046 200.305Z" fill="#48486A"/>
<path opacity="0.49" d="M158.793 200.275C160.14 201.042 160.14 202.285 158.793 203.072L121.975 224.22C121.219 224.599 120.385 224.797 119.538 224.797C118.692 224.797 117.857 224.599 117.102 224.22L58.0922 190.461C56.745 189.694 56.745 188.434 58.0922 187.664L94.9171 166.399C95.6718 166.019 96.506 165.82 97.3521 165.82C98.1982 165.82 99.0323 166.019 99.7871 166.399L158.793 200.275Z" fill="#48486A"/>
<path opacity="0.51" d="M158.54 200.241C159.888 201.005 159.888 202.251 158.54 203.022L121.961 224.032C121.21 224.408 120.381 224.604 119.54 224.604C118.699 224.604 117.87 224.408 117.118 224.032L58.4288 190.458C57.0817 189.697 57.0817 188.448 58.4288 187.677L95.0113 166.536C95.7609 166.159 96.5893 165.962 97.4294 165.962C98.2696 165.962 99.098 166.159 99.8476 166.536L158.54 200.241Z" fill="#48486A"/>
<path opacity="0.53" d="M158.292 200.211C159.612 200.968 159.612 202.221 158.292 202.972L121.948 223.845C121.202 224.219 120.378 224.414 119.542 224.414C118.706 224.414 117.882 224.219 117.136 223.845L58.7662 190.451C57.4426 189.694 57.4392 188.441 58.7662 187.687L95.1162 166.697C95.8611 166.322 96.6843 166.126 97.5192 166.126C98.3541 166.126 99.1773 166.322 99.9223 166.697L158.292 200.211Z" fill="#48486A"/>
<path opacity="0.55" d="M158.039 200.177C159.353 200.931 159.353 202.168 158.039 202.921L121.935 223.66C121.193 224.031 120.374 224.225 119.544 224.225C118.713 224.225 117.894 224.031 117.152 223.66L59.1029 190.448C57.786 189.694 57.786 188.461 59.1029 187.704L95.2071 166.871C95.9471 166.498 96.7652 166.303 97.5949 166.303C98.4247 166.303 99.2427 166.498 99.9828 166.871L158.039 200.177Z" fill="#48486A"/>
<path opacity="0.57" d="M157.786 200.148C159.093 200.895 159.093 202.124 157.786 202.871L121.921 223.473C121.185 223.842 120.371 224.035 119.547 224.035C118.722 224.035 117.909 223.842 117.172 223.473L59.4393 190.445C58.1326 189.698 58.1292 188.471 59.4393 187.718L95.3111 167.002C96.0467 166.632 96.8595 166.439 97.6838 166.439C98.5082 166.439 99.3209 166.632 100.057 167.002L157.786 200.148Z" fill="#48486A"/>
<path opacity="0.59" d="M157.534 200.114C158.83 200.861 158.83 202.077 157.534 202.824L121.908 223.285C121.177 223.652 120.369 223.843 119.55 223.843C118.731 223.843 117.924 223.652 117.193 223.285L59.7797 190.451C58.4797 189.708 58.4797 188.488 59.7797 187.741L95.4157 167.163C96.1466 166.795 96.9542 166.603 97.7733 166.603C98.5924 166.603 99.4 166.795 100.131 167.163L157.534 200.114Z" fill="#48486A"/>
<path opacity="0.61" d="M157.284 200.084C158.571 200.824 158.571 202.034 157.284 202.764L121.894 223.091C121.167 223.455 120.364 223.644 119.55 223.644C118.736 223.644 117.933 223.455 117.206 223.091L60.113 190.428C58.8231 189.691 58.8197 188.478 60.113 187.748L95.5099 167.31C96.2353 166.944 97.0372 166.754 97.8506 166.754C98.6639 166.754 99.4659 166.944 100.191 167.31L157.284 200.084Z" fill="#48486A"/>
<path opacity="0.63" d="M157.032 200.04C158.312 200.777 158.312 201.98 157.032 202.72L121.881 222.91C121.159 223.272 120.362 223.46 119.554 223.46C118.745 223.46 117.948 223.272 117.226 222.91L60.4499 190.431C59.1668 189.697 59.1668 188.495 60.4499 187.751L95.6077 167.447C96.3287 167.085 97.1253 166.896 97.9333 166.896C98.7412 166.896 99.5379 167.085 100.259 167.447L157.032 200.04Z" fill="#48486A"/>
<path opacity="0.65" d="M156.779 200.02C158.049 200.751 158.049 201.943 156.779 202.674L121.867 222.726C121.15 223.086 120.358 223.274 119.555 223.274C118.752 223.274 117.96 223.086 117.243 222.726L60.7866 190.431C59.5136 189.704 59.5102 188.508 60.7866 187.774L95.7053 167.612C96.4214 167.251 97.2129 167.063 98.0157 167.063C98.8185 167.063 99.61 167.251 100.326 167.612L156.779 200.02Z" fill="#48486A"/>
<path opacity="0.67" d="M156.53 199.99C157.79 200.714 157.79 201.9 156.53 202.623L121.84 222.542C121.129 222.899 120.342 223.085 119.545 223.085C118.748 223.085 117.962 222.899 117.25 222.542L61.11 190.428C59.8504 189.704 59.8471 188.518 61.11 187.791L95.7997 167.762C96.5102 167.405 97.2953 167.218 98.0916 167.218C98.8879 167.218 99.673 167.405 100.383 167.762L156.53 199.99Z" fill="#48486A"/>
<path opacity="0.69" d="M156.277 199.956C157.53 200.677 157.53 201.856 156.277 202.573L121.837 222.34C121.131 222.696 120.35 222.881 119.559 222.881C118.767 222.881 117.987 222.696 117.28 222.34L61.4568 190.411C60.2039 189.691 60.2005 188.515 61.4568 187.791L95.9006 167.9C96.6066 167.545 97.3864 167.36 98.1773 167.36C98.9682 167.36 99.748 167.545 100.454 167.9L156.277 199.956Z" fill="#48486A"/>
<path opacity="0.71" d="M156.025 199.926C157.268 200.64 157.268 201.809 156.025 202.526L121.824 222.17C121.122 222.522 120.346 222.705 119.56 222.705C118.774 222.705 117.999 222.522 117.297 222.17L61.797 190.424C60.5475 189.711 60.5475 188.542 61.797 187.821L96.0017 168.054C96.7026 167.7 97.4774 167.516 98.2632 167.516C99.0491 167.516 99.8239 167.7 100.525 168.054L156.025 199.926Z" fill="#48486A"/>
<path opacity="0.73" d="M155.772 199.893C157.008 200.603 157.008 201.766 155.772 202.476L121.81 221.982C121.113 222.331 120.343 222.513 119.562 222.513C118.781 222.513 118.011 222.331 117.314 221.982L62.1304 190.418C60.8944 189.708 60.891 188.545 62.1304 187.835L96.096 168.211C96.7916 167.86 97.5607 167.677 98.3407 167.677C99.1208 167.677 99.8898 167.86 100.585 168.211L155.772 199.893Z" fill="#48486A"/>
<path opacity="0.75" d="M155.52 199.863C156.749 200.566 156.749 201.722 155.52 202.426L121.783 221.794C121.091 222.142 120.326 222.323 119.55 222.323C118.775 222.323 118.01 222.142 117.317 221.794L62.4539 190.411C61.228 189.711 61.2246 188.555 62.4539 187.848L96.1871 168.376C96.8778 168.026 97.6417 167.844 98.4166 167.844C99.1915 167.844 99.9554 168.026 100.646 168.376L155.52 199.863Z" fill="#48486A"/>
<path opacity="0.76" d="M155.27 199.829C156.486 200.529 156.486 201.675 155.27 202.375L121.783 221.61C121.095 221.954 120.336 222.133 119.567 222.133C118.797 222.133 118.039 221.954 117.351 221.61L62.7904 190.408C61.5712 189.711 61.5679 188.565 62.7904 187.861L96.2811 168.523C96.9674 168.177 97.726 167.996 98.4955 167.996C99.265 167.996 100.024 168.177 100.71 168.523L155.27 199.829Z" fill="#48486A"/>
<path opacity="0.78" d="M155.018 199.799C156.227 200.496 156.227 201.632 155.018 202.325L121.77 221.423C121.087 221.765 120.333 221.943 119.569 221.943C118.804 221.943 118.05 221.765 117.368 221.423L63.1442 190.405C61.9351 189.714 61.9317 188.575 63.1442 187.878L96.3991 168.674C97.078 168.333 97.8278 168.156 98.5882 168.156C99.3486 168.156 100.098 168.333 100.777 168.674L155.018 199.799Z" fill="#48486A"/>
<path opacity="0.8" d="M154.765 199.769C155.968 200.459 155.968 201.588 154.765 202.278L121.76 221.235C121.081 221.576 120.331 221.754 119.57 221.754C118.81 221.754 118.06 221.576 117.381 221.235L63.4743 190.411C62.2719 189.741 62.2719 188.595 63.4743 187.902L96.48 168.834C97.1583 168.492 97.9084 168.313 98.6691 168.313C99.4299 168.313 100.18 168.492 100.858 168.834L154.765 199.769Z" fill="#48486A"/>
<path opacity="0.82" d="M154.513 199.735C155.709 200.422 155.709 201.541 154.513 202.228L121.743 221.05C121.07 221.387 120.327 221.563 119.574 221.563C118.821 221.563 118.078 221.387 117.405 221.05L63.8146 190.398C62.6224 189.728 62.619 188.595 63.8146 187.905L96.5913 168.979C97.2633 168.641 98.0057 168.465 98.7586 168.465C99.5115 168.465 100.254 168.641 100.926 168.979L154.513 199.735Z" fill="#48486A"/>
<path opacity="0.84" d="M154.264 199.705C155.446 200.375 155.446 201.498 154.264 202.178L121.729 220.863C121.061 221.198 120.324 221.372 119.576 221.372C118.828 221.372 118.09 221.198 117.422 220.863L64.1513 190.394C62.9658 189.724 62.9658 188.602 64.1513 187.922L96.6889 169.129C97.3562 168.794 98.0933 168.619 98.841 168.619C99.5886 168.619 100.326 168.794 100.993 169.129L154.264 199.705Z" fill="#48486A"/>
<path opacity="0.86" d="M154.011 199.672C155.186 200.342 155.186 201.451 154.011 202.128L121.716 220.675C121.053 221.008 120.32 221.182 119.577 221.182C118.834 221.182 118.102 221.008 117.439 220.675L64.488 190.391C63.3126 189.721 63.3093 188.612 64.488 187.935L96.7898 169.283C97.4514 168.949 98.183 168.775 98.9251 168.775C99.6672 168.775 100.399 168.949 101.06 169.283L154.011 199.672Z" fill="#48486A"/>
<path opacity="0.88" d="M153.758 199.641C154.927 200.312 154.927 201.407 153.758 202.077L121.702 220.504C121.044 220.835 120.316 221.007 119.579 221.007C118.841 221.007 118.114 220.835 117.455 220.504L64.8247 190.391C63.6561 189.721 63.6561 188.625 64.8247 187.952L96.8874 169.438C97.5443 169.106 98.2707 168.933 99.0075 168.933C99.7443 168.933 100.471 169.106 101.128 169.438L153.758 199.641Z" fill="#48486A"/>
<path opacity="0.9" d="M153.506 199.611C154.664 200.281 154.664 201.364 153.506 202.027L121.689 220.303C121.036 220.631 120.314 220.802 119.582 220.802C118.851 220.802 118.129 220.631 117.476 220.303L65.1617 190.384C64.0031 189.714 63.9998 188.632 65.1617 187.965L96.9886 169.585C97.6413 169.257 98.3623 169.086 99.0935 169.086C99.8248 169.086 100.546 169.257 101.198 169.585L153.506 199.611Z" fill="#48486A"/>
<path opacity="0.92" d="M153.256 199.578C154.405 200.248 154.405 201.32 153.256 201.98L121.675 220.119C121.027 220.445 120.31 220.614 119.584 220.614C118.857 220.614 118.141 220.445 117.492 220.119L65.4984 190.384C64.3499 189.714 64.3465 188.645 65.4984 187.982L97.0828 169.742C97.7306 169.416 98.4465 169.246 99.1726 169.246C99.8986 169.246 100.615 169.416 101.262 169.742L153.256 199.578Z" fill="#48486A"/>
<path opacity="0.94" d="M153.004 199.548C154.146 200.218 154.146 201.273 153.004 201.93L121.659 219.931C121.015 220.254 120.305 220.422 119.584 220.422C118.863 220.422 118.153 220.254 117.509 219.931L65.8353 190.378C64.6936 189.707 64.6902 188.652 65.8353 187.992L97.1974 169.886C97.8394 169.563 98.549 169.394 99.2687 169.394C99.9885 169.394 100.698 169.563 101.34 169.886L153.004 199.548Z" fill="#48486A"/>
<path opacity="0.96" d="M152.768 199.514C153.9 200.164 153.9 201.23 152.768 201.88L121.662 219.744C121.024 220.064 120.319 220.231 119.604 220.231C118.889 220.231 118.184 220.064 117.546 219.744L66.1888 190.374C65.0572 189.724 65.0539 188.662 66.1888 188.009L97.3018 170.044C97.939 169.723 98.6434 169.555 99.3579 169.555C100.072 169.555 100.777 169.723 101.414 170.044L152.768 199.514Z" fill="#48486A"/>
<path opacity="0.98" d="M152.499 199.484C153.624 200.127 153.624 201.186 152.499 201.829L121.632 219.56C120.998 219.876 120.298 220.041 119.589 220.041C118.88 220.041 118.18 219.876 117.546 219.56L66.509 190.371C65.3841 189.728 65.3807 188.669 66.509 188.026L97.3794 170.198C98.0122 169.88 98.7113 169.714 99.4203 169.714C100.129 169.714 100.828 169.88 101.461 170.198L152.499 199.484Z" fill="#48486A"/>
<path opacity="0.3" d="M152.25 199.451C153.364 200.091 153.364 201.126 152.25 201.796L121.601 219.389C120.974 219.701 120.282 219.864 119.581 219.864C118.879 219.864 118.187 219.701 117.56 219.389L66.8422 190.384C65.7275 189.745 65.7241 188.709 66.8422 188.039L97.4904 170.349C98.1168 170.034 98.8091 169.869 99.5111 169.869C100.213 169.869 100.905 170.034 101.532 170.349L152.25 199.451Z" fill="#48486A"/>
</g>
<path d="M161.922 198.61V199.93C161.92 200.27 161.828 200.603 161.656 200.897C161.484 201.191 161.238 201.435 160.942 201.605L121.746 224.073C120.944 224.476 120.057 224.686 119.158 224.686C118.259 224.686 117.372 224.476 116.57 224.073L55.6101 189.162C55.2262 188.941 54.9073 188.625 54.6856 188.243C54.4638 187.861 54.3471 187.428 54.3472 186.987V186.475L94.4524 163.464C95.2538 163.061 96.1393 162.85 97.0373 162.85C97.9354 162.85 98.8209 163.061 99.6222 163.464L161.922 198.61Z" fill="url(#paint7_linear_2202_1255)"/>
<path d="M160.851 197.166C162.276 197.983 162.276 199.32 160.851 200.137L121.743 222.585C120.94 222.987 120.054 223.196 119.155 223.196C118.256 223.196 117.37 222.987 116.566 222.585L55.324 187.557C53.9028 186.739 53.8994 185.402 55.324 184.581L94.4392 161.993C95.2405 161.59 96.126 161.38 97.024 161.38C97.9221 161.38 98.8076 161.59 99.6089 161.993L160.851 197.166Z" fill="white"/>
<path d="M149.895 194.234L111.542 216.43L63.168 188.749L101.522 166.449L149.895 194.234Z" fill="#D3DAED"/>
<path d="M76.4442 177.552C76.5757 177.553 76.705 177.519 76.818 177.452L85.029 172.734C85.2001 172.636 85.3249 172.474 85.3761 172.285C85.4272 172.095 85.4005 171.893 85.3018 171.723C85.2031 171.552 85.0405 171.428 84.8498 171.377C84.659 171.326 84.4558 171.353 84.2847 171.451L76.0703 176.168C75.9273 176.25 75.8153 176.376 75.7519 176.527C75.6886 176.678 75.6774 176.846 75.7201 177.004C75.7628 177.162 75.8571 177.302 75.9881 177.401C76.1191 177.5 76.2795 177.553 76.4442 177.552Z" fill="#5C629E"/>
<path style="mix-blend-mode:multiply" d="M122.521 186.739C114.313 182.025 100.882 182.025 92.6743 186.739C84.4666 191.453 84.4666 199.166 92.6743 203.88C100.882 208.594 114.313 208.594 122.521 203.88C130.728 199.166 130.728 191.453 122.521 186.739Z" fill="url(#paint8_radial_2202_1255)"/>
<path d="M91.2532 189.185H93.0853C93.9379 188.265 94.9313 187.484 96.0289 186.873C102.391 183.218 112.805 183.218 119.17 186.873C120.267 187.484 121.261 188.265 122.113 189.185H123.942V193.483C123.959 195.906 122.369 198.328 119.173 200.164C112.808 203.819 102.394 203.819 96.0323 200.164C92.8327 198.328 91.2431 195.906 91.2599 193.483L91.2532 189.185Z" fill="url(#paint9_linear_2202_1255)"/>
<path d="M119.17 182.538C112.804 178.882 102.391 178.882 96.0286 182.538C89.6666 186.193 89.6632 192.173 96.0286 195.829C102.394 199.484 112.804 199.484 119.17 195.829C125.535 192.173 125.532 186.193 119.17 182.538Z" fill="white"/>
<path d="M91.2599 189.272C91.2565 189.214 91.2565 189.156 91.2599 189.098V185.536H92.5262C93.4673 184.297 94.6609 183.269 96.0288 182.521C100.525 179.938 97.504 189.801 96.0288 195.812V200.147C92.9101 198.355 91.3137 196.006 91.2599 193.648V189.272Z" fill="#454A77"/>
<path d="M96.0287 178.892C89.6633 182.548 89.6633 188.528 96.0287 192.183L107.598 186.752L96.0287 178.892Z" fill="#7D81B1"/>
<path d="M107.597 186.753V190.401L96.0286 195.832V192.184L107.597 186.753Z" fill="#5C629E"/>
<path style="mix-blend-mode:multiply" d="M118.712 172.162C112.599 168.65 102.596 168.65 96.4835 172.162C90.3707 175.673 90.3741 181.415 96.4835 184.927C102.593 188.438 112.599 188.438 118.712 184.927C124.825 181.415 124.814 175.673 118.712 172.162Z" fill="url(#paint10_radial_2202_1255)"/>
<path d="M96.0286 167.792C102.391 164.137 112.804 164.137 119.17 167.792L107.597 175.656L96.0286 167.792Z" fill="url(#paint11_linear_2202_1255)"/>
<path d="M119.17 167.796V175.086L107.597 182.95V175.656L119.17 167.796Z" fill="url(#paint12_linear_2202_1255)"/>
<path d="M107.597 175.656L96.0286 167.796V175.086L107.597 182.95V175.656Z" fill="url(#paint13_linear_2202_1255)"/>
<path d="M74.9801 149.147L74.1547 149.835H66.9386L66.1506 149.117C65.0088 148.072 64.0974 146.801 63.4738 145.387C62.8503 143.973 62.5282 142.446 62.5278 140.902V137.78H78.9989V140.583C78.999 142.216 78.6392 143.829 77.9448 145.308C77.2505 146.788 76.2385 148.098 74.9801 149.147Z" fill="#48486A"/>
<path d="M66.7297 149.645H74.2157V151.691C74.2157 151.78 74.1802 151.865 74.117 151.928C74.0539 151.99 73.9682 152.026 73.8788 152.026H67.0666C66.9773 152.026 66.8916 151.99 66.8284 151.928C66.7652 151.865 66.7297 151.78 66.7297 151.691V149.645Z" fill="#363650"/>
<path d="M76.5599 134.451C73.3607 132.613 68.1284 132.613 64.937 134.451C61.7456 136.289 61.7378 139.293 64.937 141.13C68.1363 142.966 73.3666 142.966 76.5599 141.13C79.7533 139.293 79.7572 136.285 76.5599 134.451Z" fill="#2842A2"/>
<g filter="url(#filter0_d_2202_1255)">
<path d="M70.77 107.04C67.526 107.038 64.3682 108.079 61.767 110.007C59.1658 111.935 57.2605 114.648 56.335 117.741C55.4095 120.834 55.5133 124.141 56.631 127.171C57.3562 129.137 58.483 130.917 59.9272 132.406C61.3972 133.923 62.5374 135.827 62.5374 137.939C62.5847 139.103 63.4515 140.279 64.9881 141.163C68.1598 142.984 73.4078 142.962 76.5795 141.141C78.105 140.264 78.8908 139.12 78.9425 137.964C78.9431 137.95 78.9546 137.939 78.9687 137.939C78.983 137.939 78.9947 137.928 78.9947 137.913V135.745C78.9947 135.001 79.3783 134.318 79.968 133.865C82.2071 132.146 83.9208 129.828 84.901 127.171C86.0187 124.142 86.1227 120.835 85.1974 117.742C84.2722 114.649 82.3672 111.936 79.7663 110.008C77.1655 108.079 74.0079 107.038 70.7641 107.04H70.77Z" fill="url(#paint14_linear_2202_1255)" fill-opacity="0.991703"/>
</g>
<path d="M62.3504 123.653C62.3504 121.054 63.3882 118.562 65.2354 116.724C67.0826 114.886 69.588 113.854 72.2003 113.854C77.2337 113.854 76.8436 109.678 70.4274 109.678C67.3448 109.678 64.3884 110.896 62.2087 113.064C60.029 115.233 58.8044 118.174 58.8044 121.24C58.8064 125.289 62.3504 127.084 62.3504 123.653Z" fill="white"/>
<path opacity="0.49" d="M76.5794 142.45C73.4077 144.271 68.1597 144.293 64.988 142.472C63.4514 141.588 62.5846 140.412 62.5374 139.248V140.369C62.5846 141.533 63.4514 142.711 64.988 143.593C68.1597 145.416 73.4077 145.394 76.5794 143.571C78.116 142.69 78.902 141.533 78.9434 140.369H78.9946V139.248H78.9434C78.902 140.412 78.116 141.576 76.5794 142.45Z" fill="#6D6D88"/>
<path opacity="0.49" d="M76.5362 145.71C73.3646 147.53 68.1165 147.552 64.9448 145.731C64.15 145.3 63.4736 144.682 62.9749 143.93C63.1803 144.656 63.4595 145.358 63.8082 146.027C64.159 146.342 64.5427 146.619 64.9527 146.852C68.1244 148.675 73.3724 148.651 76.5441 146.831C76.8783 146.639 77.1954 146.418 77.4917 146.172C77.9121 145.448 78.2491 144.679 78.4964 143.879C78.0179 144.652 77.3414 145.283 76.5362 145.71Z" fill="#6D6D88"/>
<path d="M70.7167 105.798C70.5556 105.797 70.3961 105.764 70.2475 105.702C70.0989 105.64 69.9641 105.55 69.8506 105.436C69.7372 105.322 69.6475 105.187 69.5865 105.038C69.5255 104.89 69.4946 104.731 69.4953 104.571L69.5407 95.2131C69.5422 94.8905 69.6723 94.5816 69.9023 94.3543C70.1324 94.1269 70.4437 93.9995 70.768 94C71.0931 94.0016 71.4044 94.1314 71.6334 94.3611C71.8624 94.5907 71.9904 94.9014 71.9894 95.2248L71.944 104.583C71.942 104.905 71.8118 105.214 71.5819 105.442C71.352 105.669 71.0411 105.797 70.7167 105.798ZM80.7637 107.571L85.5133 99.4951C85.6105 99.3569 85.6778 99.2001 85.7111 99.0347C85.7443 98.8693 85.7428 98.6989 85.7065 98.5341C85.6702 98.3693 85.6 98.2138 85.5003 98.0774C85.4006 97.941 85.2736 97.8266 85.1272 97.7414C84.9809 97.6562 84.8184 97.6022 84.65 97.5826C84.4816 97.563 84.3109 97.5784 84.1487 97.6277C83.9866 97.6771 83.8365 97.7593 83.7079 97.8692C83.5793 97.9791 83.4749 98.1143 83.4015 98.2663L78.6499 106.342C78.4864 106.622 78.441 106.955 78.5237 107.268C78.6065 107.581 78.8105 107.849 79.0911 108.012C79.2777 108.122 79.4907 108.181 79.7078 108.181C79.9229 108.181 80.1343 108.124 80.3206 108.017C80.507 107.91 80.6618 107.756 80.7696 107.571H80.7637ZM86.8962 114.556L95.0756 109.935C95.3588 109.775 95.5665 109.51 95.6532 109.197C95.7398 108.885 95.6982 108.552 95.5376 108.27C95.458 108.13 95.3516 108.008 95.2245 107.909C95.0973 107.811 94.9519 107.738 94.7965 107.695C94.4827 107.609 94.1473 107.65 93.8641 107.81L85.6847 112.433C85.4488 112.566 85.2638 112.773 85.1586 113.022C85.0535 113.27 85.034 113.547 85.1033 113.808C85.1726 114.068 85.3268 114.299 85.5417 114.463C85.7567 114.628 86.0203 114.717 86.2914 114.716C86.5057 114.718 86.7166 114.662 86.9021 114.556H86.8962ZM56.3457 114.001C56.4286 113.864 56.4835 113.711 56.5072 113.553C56.5309 113.394 56.5229 113.233 56.4838 113.077C56.4446 112.922 56.375 112.776 56.279 112.647C56.183 112.518 56.0624 112.41 55.9241 112.327L47.8472 107.524C47.5681 107.362 47.2358 107.315 46.9226 107.395C46.6093 107.475 46.3404 107.675 46.1743 107.951C46.0082 108.227 45.9583 108.557 46.0355 108.869C46.1126 109.182 46.3106 109.451 46.5864 109.619L54.6633 114.422C54.9426 114.588 55.2767 114.637 55.5922 114.558C55.9076 114.479 56.1787 114.279 56.3457 114.001ZM62.5255 107.953C62.81 107.796 63.02 107.533 63.1094 107.222C63.1988 106.91 63.1603 106.576 63.0023 106.293L58.4339 98.1135C58.3626 97.9622 58.2609 97.8272 58.135 97.7166C58.0092 97.606 57.8619 97.5223 57.7022 97.4706C57.5425 97.419 57.3739 97.4005 57.2067 97.4162C57.0396 97.432 56.8774 97.4817 56.7304 97.5624C56.5833 97.643 56.4544 97.7527 56.3517 97.8849C56.249 98.017 56.1746 98.1687 56.1332 98.3306C56.0918 98.4925 56.0842 98.6611 56.111 98.826C56.1377 98.9909 56.1981 99.1486 56.2886 99.2893L60.8629 107.477C60.9408 107.618 61.0458 107.741 61.172 107.841C61.2982 107.941 61.4429 108.015 61.598 108.059C61.7531 108.104 61.9154 108.117 62.0756 108.098C62.2358 108.08 62.3907 108.03 62.5315 107.951L62.5255 107.953Z" fill="url(#paint15_linear_2202_1255)"/>
<defs>
<filter id="filter0_d_2202_1255" x="45.7095" y="102.04" width="50.1133" height="55.4776" filterUnits="userSpaceOnUse" color-interpolation-filters="sRGB">
<feFlood flood-opacity="0" result="BackgroundImageFix"/>
<feColorMatrix in="SourceAlpha" type="matrix" values="0 0 0 0 0 0 0 0 0 0 0 0 0 0 0 0 0 0 127 0" result="hardAlpha"/>
<feOffset dy="5"/>
<feGaussianBlur stdDeviation="5"/>
<feColorMatrix type="matrix" values="0 0 0 0 0.988235 0 0 0 0 0.407843 0 0 0 0 0.227451 0 0 0 0.25 0"/>
<feBlend mode="normal" in2="BackgroundImageFix" result="effect1_dropShadow_2202_1255"/>
<feBlend mode="normal" in="SourceGraphic" in2="effect1_dropShadow_2202_1255" result="shape"/>
</filter>
<linearGradient id="paint0_linear_2202_1255" x1="124.958" y1="115.033" x2="177.088" y2="205.503" gradientUnits="userSpaceOnUse">
<stop stop-color="#1D4CB9"/>
<stop offset="1" stop-color="#1B0E6B"/>
</linearGradient>
<linearGradient id="paint1_linear_2202_1255" x1="103.617" y1="100.73" x2="255.518" y2="182.126" gradientUnits="userSpaceOnUse">
<stop stop-color="#2A2895"/>
<stop offset="1" stop-color="#793BC8"/>
</linearGradient>
<linearGradient id="paint2_linear_2202_1255" x1="103.617" y1="133.84" x2="205.253" y2="177.4" gradientUnits="userSpaceOnUse">
<stop stop-color="#2A2895"/>
<stop offset="1" stop-color="#793BC8"/>
</linearGradient>
<radialGradient id="paint3_radial_2202_1255" cx="0" cy="0" r="1" gradientUnits="userSpaceOnUse" gradientTransform="translate(181.856 298.889) rotate(180) scale(26.8694 14.7484)">
<stop offset="0.53" stop-color="#48486A"/>
<stop offset="0.59" stop-color="#6F6F8A"/>
<stop offset="0.65" stop-color="#9B9BAD"/>
<stop offset="0.72" stop-color="#BFBFCB"/>
<stop offset="0.79" stop-color="#DBDBE2"/>
<stop offset="0.86" stop-color="#EFEFF2"/>
<stop offset="0.93" stop-color="#FBFBFC"/>
<stop offset="1" stop-color="white"/>
</radialGradient>
<linearGradient id="paint4_linear_2202_1255" x1="199.259" y1="196.335" x2="156.387" y2="207.011" gradientUnits="userSpaceOnUse">
<stop stop-color="#2A2895"/>
<stop offset="1" stop-color="#793BC8"/>
</linearGradient>
<linearGradient id="paint5_linear_2202_1255" x1="-8411.64" y1="4552.85" x2="-8939.89" y2="4552.85" gradientUnits="userSpaceOnUse">
<stop offset="0.02" stop-color="#5C629E"/>
<stop offset="0.37" stop-color="#565B8F"/>
<stop offset="1" stop-color="#48486A"/>
</linearGradient>
<linearGradient id="paint6_linear_2202_1255" x1="-7695.46" y1="3470.28" x2="-8136.28" y2="3470.28" gradientUnits="userSpaceOnUse">
<stop offset="0.02" stop-color="#FFC107"/>
<stop offset="0.44" stop-color="#FFB204"/>
<stop offset="1" stop-color="#FF9800"/>
</linearGradient>
<linearGradient id="paint7_linear_2202_1255" x1="161.922" y1="193.782" x2="54.3303" y2="193.782" gradientUnits="userSpaceOnUse">
<stop stop-color="#99A7D8"/>
<stop offset="0.19" stop-color="#A6B2DD"/>
<stop offset="0.55" stop-color="#C9D1EA"/>
<stop offset="1" stop-color="white"/>
</linearGradient>
<radialGradient id="paint8_radial_2202_1255" cx="0" cy="0" r="1" gradientUnits="userSpaceOnUse" gradientTransform="translate(107.598 203.727) rotate(180) scale(21.3089 11.023)">
<stop offset="0.09" stop-color="#3C5185"/>
<stop offset="0.16" stop-color="#506291"/>
<stop offset="0.38" stop-color="#8D9AB8"/>
<stop offset="0.58" stop-color="#BEC5D7"/>
<stop offset="0.76" stop-color="#E2E5ED"/>
<stop offset="0.91" stop-color="#F7F8FA"/>
<stop offset="1" stop-color="white"/>
</radialGradient>
<linearGradient id="paint9_linear_2202_1255" x1="91.2532" y1="193.52" x2="123.942" y2="193.52" gradientUnits="userSpaceOnUse">
<stop stop-color="#99A7D8"/>
<stop offset="0.5" stop-color="#CED5EC"/>
<stop offset="1" stop-color="white"/>
</linearGradient>
<radialGradient id="paint10_radial_2202_1255" cx="0" cy="0" r="1" gradientUnits="userSpaceOnUse" gradientTransform="translate(41302.4 160214) scale(1479.21 849.658)">
<stop offset="0.09" stop-color="#3C5185"/>
<stop offset="0.16" stop-color="#506291"/>
<stop offset="0.38" stop-color="#8D9AB8"/>
<stop offset="0.58" stop-color="#BEC5D7"/>
<stop offset="0.76" stop-color="#E2E5ED"/>
<stop offset="0.91" stop-color="#F7F8FA"/>
<stop offset="1" stop-color="white"/>
</radialGradient>
<linearGradient id="paint11_linear_2202_1255" x1="20054.9" y1="12912.8" x2="19321.8" y2="13504" gradientUnits="userSpaceOnUse">
<stop stop-color="#5C629E"/>
<stop offset="1" stop-color="#48486A"/>
</linearGradient>
<linearGradient id="paint12_linear_2202_1255" x1="8286.12" y1="14788.3" x2="8683.74" y2="14788.3" gradientUnits="userSpaceOnUse">
<stop stop-color="#5C629E"/>
<stop offset="1" stop-color="#48486A"/>
</linearGradient>
<linearGradient id="paint13_linear_2202_1255" x1="7874.8" y1="14788.3" x2="8272.19" y2="14788.3" gradientUnits="userSpaceOnUse">
<stop stop-color="#5C629E"/>
<stop offset="1" stop-color="#48486A"/>
</linearGradient>
<linearGradient id="paint14_linear_2202_1255" x1="85.8227" y1="124.779" x2="55.7095" y2="124.779" gradientUnits="userSpaceOnUse">
<stop stop-color="#FFA979"/>
<stop offset="1" stop-color="#FF6231"/>
</linearGradient>
<linearGradient id="paint15_linear_2202_1255" x1="95.6982" y1="104.362" x2="46.0119" y2="104.362" gradientUnits="userSpaceOnUse">
<stop stop-color="#FB7668"/>
<stop offset="1" stop-color="#FFE28B"/>
</linearGradient>
</defs>
</svg>
