<svg width="295" height="326" viewBox="0 0 295 326" fill="none" xmlns="http://www.w3.org/2000/svg">
<path opacity="0.5" d="M153 2.00003C126.182 -4.26156 105.333 13.6667 85.9998 24C66.6665 34.3334 21.3332 51 20.9999 79C20.6666 107 15.9999 181 15.9999 181C15.9999 181 -8.56354 226.323 4.99986 250C15.787 268.83 35.2155 265.564 52.9999 278C75.9109 294.022 79.2863 321.317 107 325C129.526 327.994 162 306 162 306L213 269C213 269 261.595 264.189 280 243C300.756 219.104 293 163 293 163C293 163 278.378 115.318 259 91C240.831 68.2001 225 75 201 44C177 13 177.255 7.66328 153 2.00003Z" fill="#EBEBF7"/>
<g opacity="0.3">
<path opacity="0.02" d="M58.5867 199.986L89.4448 217.717L144.876 186.055L113.873 168.246L58.5867 199.986Z" fill="#48486A"/>
<path opacity="0.05" d="M59.905 199.225L90.7632 216.962L144.875 186.055L113.872 168.246L59.905 199.225Z" fill="#48486A"/>
<path opacity="0.07" d="M61.2178 198.471L92.0825 216.207L144.876 186.055L113.873 168.246L61.2178 198.471Z" fill="#48486A"/>
<path opacity="0.1" d="M62.53 197.716L93.4014 215.453L144.876 186.055L113.872 168.246L62.53 197.716Z" fill="#48486A"/>
<path opacity="0.12" d="M63.8486 196.955L94.7134 214.705L144.875 186.055L113.872 168.246L63.8486 196.955Z" fill="#48486A"/>
<path opacity="0.15" d="M65.1614 196.2L96.0327 213.95L144.876 186.055L113.872 168.246L65.1614 196.2Z" fill="#48486A"/>
<path opacity="0.17" d="M66.4741 195.439L97.3521 213.195L144.876 186.055L113.873 168.246L66.4741 195.439Z" fill="#48486A"/>
<path opacity="0.2" d="M67.7869 194.684L98.6714 212.447L144.876 186.055L113.873 168.246L67.7869 194.684Z" fill="#48486A"/>
<path opacity="0.22" d="M69.1055 193.93L99.9834 211.693L144.876 186.055L113.873 168.246L69.1055 193.93Z" fill="#48486A"/>
<path opacity="0.24" d="M70.4182 193.168L101.303 210.938L144.876 186.055L113.873 168.246L70.4182 193.168Z" fill="#48486A"/>
<path opacity="0.27" d="M71.73 192.414L102.621 210.19L144.876 186.055L113.872 168.246L71.73 192.414Z" fill="#48486A"/>
<path opacity="0.29" d="M73.0483 191.653L103.939 209.436L144.875 186.055L113.872 168.246L73.0483 191.653Z" fill="#48486A"/>
<path opacity="0.32" d="M74.3611 190.898L105.259 208.681L144.875 186.055L113.872 168.246L74.3611 190.898Z" fill="#48486A"/>
<path opacity="0.34" d="M75.6741 190.137L106.572 207.933L144.876 186.055L113.873 168.246L75.6741 190.137Z" fill="#48486A"/>
<path opacity="0.37" d="M76.9868 189.382L107.891 207.178L144.876 186.055L113.873 168.246L76.9868 189.382Z" fill="#48486A"/>
<path opacity="0.39" d="M78.2979 188.628L109.209 206.424L144.875 186.055L113.871 168.246L78.2979 188.628Z" fill="#48486A"/>
<path opacity="0.41" d="M79.6179 187.866L110.529 205.676L144.876 186.055L113.873 168.246L79.6179 187.866Z" fill="#48486A"/>
<path opacity="0.44" d="M80.9292 187.112L111.847 204.921L144.875 186.055L113.871 168.246L80.9292 187.112Z" fill="#48486A"/>
<path opacity="0.46" d="M82.2429 186.35L113.16 204.166L144.876 186.055L113.873 168.246L82.2429 186.35Z" fill="#48486A"/>
<path opacity="0.49" d="M83.5615 185.596L114.479 203.418L144.876 186.055L113.872 168.246L83.5615 185.596Z" fill="#48486A"/>
<path opacity="0.51" d="M84.8743 184.835L115.798 202.663L144.876 186.055L113.873 168.246L84.8743 184.835Z" fill="#48486A"/>
<path opacity="0.54" d="M86.1855 184.08L117.116 201.909L144.875 186.055L113.871 168.246L86.1855 184.08Z" fill="#48486A"/>
<path opacity="0.56" d="M87.4998 183.325L118.437 201.154L144.877 186.055L113.873 168.246L87.4998 183.325Z" fill="#48486A"/>
<path opacity="0.59" d="M88.8184 182.564L119.749 200.406L144.876 186.055L113.873 168.246L88.8184 182.564Z" fill="#48486A"/>
<path opacity="0.61" d="M90.1311 181.81L121.068 199.652L144.877 186.055L113.873 168.246L90.1311 181.81Z" fill="#48486A"/>
<path opacity="0.63" d="M91.4429 181.048L122.387 198.897L144.876 186.055L113.873 168.246L91.4429 181.048Z" fill="#48486A"/>
<path opacity="0.66" d="M92.7546 180.294L123.705 198.149L144.875 186.055L113.872 168.246L92.7546 180.294Z" fill="#48486A"/>
<path opacity="0.68" d="M94.0742 179.539L125.025 197.394L144.876 186.055L113.873 168.246L94.0742 179.539Z" fill="#48486A"/>
<path opacity="0.71" d="M95.386 178.778L126.337 196.64L144.875 186.055L113.872 168.246L95.386 178.778Z" fill="#48486A"/>
<path opacity="0.73" d="M96.6985 178.023L127.656 195.892L144.875 186.055L113.872 168.246L96.6985 178.023Z" fill="#48486A"/>
<path opacity="0.76" d="M98.0181 177.262L128.975 195.137L144.876 186.055L113.873 168.246L98.0181 177.262Z" fill="#48486A"/>
<path opacity="0.78" d="M99.3308 176.508L130.294 194.382L144.876 186.055L113.873 168.246L99.3308 176.508Z" fill="#48486A"/>
<path opacity="0.8" d="M100.643 175.746L131.613 193.628L144.875 186.055L113.872 168.246L100.643 175.746Z" fill="#48486A"/>
<path opacity="0.83" d="M101.956 174.992L132.926 192.88L144.876 186.055L113.873 168.246L101.956 174.992Z" fill="#48486A"/>
<path opacity="0.85" d="M103.274 174.237L134.245 192.125L144.876 186.055L113.873 168.246L103.274 174.237Z" fill="#48486A"/>
<path opacity="0.88" d="M104.587 173.476L135.564 191.37L144.876 186.055L113.873 168.246L104.587 173.476Z" fill="#48486A"/>
<path opacity="0.9" d="M105.898 172.721L136.882 190.622L144.875 186.055L113.872 168.246L105.898 172.721Z" fill="#48486A"/>
<path opacity="0.93" d="M107.211 171.96L138.195 189.868L144.875 186.055L113.872 168.246L107.211 171.96Z" fill="#48486A"/>
<path opacity="0.95" d="M108.531 171.205L139.515 189.113L144.877 186.055L113.873 168.246L108.531 171.205Z" fill="#48486A"/>
<path opacity="0.98" d="M109.843 170.444L140.833 188.365L144.875 186.055L113.872 168.246L109.843 170.444Z" fill="#48486A"/>
<path opacity="0.3" d="M111.155 169.69L142.152 187.61L144.876 186.055L113.872 168.246L111.155 169.69Z" fill="#48486A"/>
</g>
<path d="M143.663 107.141L103.472 129.655L143.412 152.602L183.352 130.692L143.663 107.141Z" fill="#6D6D88"/>
<path d="M143.649 108.309L105.517 129.668L143.412 151.434L181.307 130.653L143.649 108.309Z" fill="#48486A"/>
<path d="M143.602 116.301L112.539 133.704L143.411 151.434L174.282 134.504L143.602 116.301Z" fill="#363650"/>
<path d="M103.472 129.655L112.541 168.942L143.412 186.895V152.603L103.472 129.655Z" fill="#48486A"/>
<path d="M183.351 130.692L171.869 170.55L143.412 186.896V152.603L183.351 130.692Z" fill="#515171"/>
<path d="M134.641 145.765L100.5 121C100.5 121 141.414 131.959 143.412 142.517L134.641 145.765Z" fill="url(#paint0_linear_2202_358)"/>
<path d="M148.563 144.84C148.563 144.84 135.442 121.313 124 105C112.413 88.4835 91.1198 96.1236 87.3211 115.901C87.2881 116.059 87.2617 116.21 87.2288 116.367C87.2288 116.367 107.093 84.1676 138.874 148.409L148.563 144.84Z" fill="url(#paint1_linear_2202_358)"/>
<path d="M154.514 142.745C154.514 142.745 154.095 90.9898 166.837 72.3546C166.837 72.3546 155.583 73.7413 143.954 136.858L154.514 142.745Z" fill="url(#paint2_linear_2202_358)"/>
<path d="M143.412 151.434C143.412 151.434 166.89 62.5322 192.459 120.442C192.459 120.442 168.5 86.5 154.208 145.239L143.412 151.434Z" fill="url(#paint3_linear_2202_358)"/>
<path d="M143.412 151.434C143.412 151.434 162.773 133.28 137 73.5C137 73.5 139.435 136.309 130.545 144.046L143.412 151.434Z" fill="url(#paint4_linear_2202_358)"/>
<path opacity="0.02" d="M113.823 192.628C99.6354 184.463 76.4102 184.463 62.2411 192.628C48.0719 200.793 48.0539 214.162 62.2411 222.309C76.4282 230.456 99.6354 230.474 113.823 222.309C128.01 214.144 127.992 200.793 113.823 192.628Z" fill="#FBFBFD"/>
<path opacity="0.04" d="M88.0232 228.123C107.84 228.123 123.905 218.876 123.905 207.468C123.905 196.061 107.84 186.814 88.0232 186.814C68.2061 186.814 52.1411 196.061 52.1411 207.468C52.1411 218.876 68.2061 228.123 88.0232 228.123Z" fill="#F7F8FB"/>
<path opacity="0.06" d="M88.023 227.782C107.522 227.782 123.329 218.688 123.329 207.469C123.329 196.25 107.522 187.155 88.023 187.155C68.524 187.155 52.717 196.25 52.717 207.469C52.717 218.688 68.524 227.782 88.023 227.782Z" fill="#F2F4FA"/>
<path opacity="0.08" d="M112.562 193.328C99.0775 185.558 76.9865 185.558 63.4835 193.328C49.9804 201.098 49.9804 213.821 63.4835 221.573C76.9865 229.326 99.0775 229.344 112.562 221.573C126.048 213.803 126.066 201.116 112.562 193.328Z" fill="#EEF0F8"/>
<path opacity="0.1" d="M112.221 193.597C98.9516 185.953 77.2388 185.953 63.9698 193.597C50.7008 201.242 50.7008 213.731 63.9698 221.358C77.2388 228.984 98.9516 229.002 112.221 221.358C125.49 213.713 125.418 201.224 112.221 193.597Z" fill="#EAECF6"/>
<path opacity="0.12" d="M111.734 193.83C98.6995 186.329 77.3467 186.329 64.3118 193.83C51.2768 201.331 51.2588 213.57 64.3118 221.125C77.3647 228.679 98.6995 228.625 111.734 221.125C124.769 213.624 124.823 201.331 111.734 193.83Z" fill="#E6E9F4"/>
<path opacity="0.14" d="M111.32 194.064C98.5015 186.689 77.5448 186.689 64.726 194.064C51.9071 201.439 51.9071 213.516 64.726 220.981C77.5448 228.446 98.5015 228.339 111.32 220.981C124.139 213.624 124.139 201.439 111.32 194.064Z" fill="#E1E5F2"/>
<path opacity="0.16" d="M110.906 194.315C98.3034 187.137 77.7248 187.137 65.14 194.315C52.5551 201.493 52.5371 213.409 65.14 220.64C77.7428 227.872 98.3214 227.818 110.906 220.64C123.491 213.462 123.491 201.547 110.906 194.315Z" fill="#DDE1F0"/>
<path opacity="0.18" d="M88.023 225.754C105.573 225.754 119.8 217.568 119.8 207.469C119.8 197.37 105.573 189.183 88.023 189.183C70.473 189.183 56.2458 197.37 56.2458 207.469C56.2458 217.568 70.473 225.754 88.023 225.754Z" fill="#D9DEEF"/>
<path opacity="0.2" d="M88.0231 225.414C105.245 225.414 119.206 217.379 119.206 207.469C119.206 197.558 105.245 189.524 88.0231 189.524C70.8012 189.524 56.8401 197.558 56.8401 207.469C56.8401 217.379 70.8012 225.414 88.0231 225.414Z" fill="#D5DAED"/>
<path opacity="0.22" d="M88.0229 225.073C104.927 225.073 118.63 217.191 118.63 207.469C118.63 197.746 104.927 189.865 88.0229 189.865C71.1192 189.865 57.416 197.746 57.416 207.469C57.416 217.191 71.1192 225.073 88.0229 225.073Z" fill="#D1D6EB"/>
<path opacity="0.24" d="M88.023 224.732C104.599 224.732 118.036 217.003 118.036 207.469C118.036 197.935 104.599 190.206 88.023 190.206C71.4474 190.206 58.0103 197.935 58.0103 207.469C58.0103 217.003 71.4474 224.732 88.023 224.732Z" fill="#CCD3E9"/>
<path opacity="0.25" d="M108.836 195.499C97.3851 188.914 78.6609 188.914 67.2103 195.499C55.7598 202.085 55.7778 212.87 67.2103 219.456C78.6429 226.042 97.3851 226.042 108.836 219.456C120.286 212.87 120.268 202.085 108.836 195.499Z" fill="#C8CFE7"/>
<path opacity="0.27" d="M108.422 195.751C97.2051 189.29 78.841 189.29 67.6425 195.751C56.4439 202.211 56.4259 212.762 67.6425 219.204C78.859 225.647 97.2051 225.665 108.422 219.204C119.638 212.744 119.62 202.193 108.422 195.751Z" fill="#C4CBE5"/>
<path opacity="0.29" d="M107.99 195.984C97.0073 189.667 79.0393 189.667 68.0568 195.984C57.0744 202.3 57.0564 212.655 68.0568 218.971C79.0573 225.288 97.0073 225.288 107.99 218.971C118.972 212.655 118.99 202.3 107.99 195.984Z" fill="#C0C7E4"/>
<path opacity="0.31" d="M107.575 196.217C96.7731 190.026 79.2191 190.026 68.4707 196.217C57.7223 202.408 57.6683 212.547 68.4707 218.738C79.2732 224.929 96.8271 224.929 107.575 218.738C118.324 212.547 118.342 202.408 107.575 196.217Z" fill="#BCC4E2"/>
<path opacity="0.33" d="M88.0231 223.045C102.978 223.045 115.101 216.071 115.101 207.469C115.101 198.866 102.978 191.892 88.0231 191.892C73.0683 191.892 60.9451 198.866 60.9451 207.469C60.9451 216.071 73.0683 223.045 88.0231 223.045Z" fill="#B7C0E0"/>
<path opacity="0.35" d="M88.023 222.704C102.65 222.704 114.507 215.883 114.507 207.469C114.507 199.054 102.65 192.233 88.023 192.233C73.3963 192.233 61.5391 199.054 61.5391 207.469C61.5391 215.883 73.3963 222.704 88.023 222.704Z" fill="#B3BCDE"/>
<path opacity="0.37" d="M106.333 196.917C96.2689 191.121 79.7772 191.121 69.7129 196.917C59.6486 202.713 59.6306 212.206 69.7129 218.002C79.7952 223.798 96.2689 223.798 106.333 218.002C116.397 212.206 116.415 202.731 106.333 196.917Z" fill="#AFB9DC"/>
<path opacity="0.39" d="M105.919 197.168C96.0169 191.534 79.9753 191.534 70.1271 197.168C60.2789 202.803 60.2789 212.116 70.1271 217.769C79.9753 223.422 96.0709 223.44 105.919 217.769C115.767 212.098 115.821 202.839 105.919 197.168Z" fill="#ABB5DB"/>
<path opacity="0.41" d="M105.505 197.419C95.8906 191.874 80.1551 191.874 70.5409 197.419C60.9268 202.964 60.9268 212.009 70.5409 217.536C80.1551 223.063 95.8906 223.063 105.505 217.536C115.119 212.009 115.119 202.946 105.505 197.419Z" fill="#A6B1D9"/>
<path opacity="0.43" d="M105.019 197.653C95.6389 192.269 80.2635 192.269 70.8114 197.653C61.3593 203.036 61.4313 211.901 70.8114 217.392C80.1915 222.883 95.5669 222.776 105.019 217.392C114.471 212.009 114.471 203.054 105.019 197.653Z" fill="#A2ADD7"/>
<path opacity="0.45" d="M104.677 197.886C95.5126 192.628 80.5333 192.628 71.3692 197.886C62.2052 203.144 62.2232 211.793 71.3692 217.051C80.5153 222.309 95.5126 222.327 104.677 217.051C113.841 211.775 113.841 203.162 104.677 197.886Z" fill="#9EAAD5"/>
<path opacity="0.47" d="M104.263 198.137C95.2606 192.987 80.7133 192.987 71.8553 198.137C62.9973 203.288 62.8533 211.686 71.8553 216.818C80.8573 221.95 95.4046 221.95 104.263 216.818C113.121 211.686 113.193 203.27 104.263 198.137Z" fill="#9AA6D3"/>
<path opacity="0.49" d="M103.849 198.371C95.1346 193.364 80.9114 193.364 72.1974 198.371C63.4835 203.377 63.5015 211.578 72.1974 216.585C80.8934 221.591 95.1346 221.591 103.849 216.585C112.562 211.578 112.544 203.377 103.849 198.371Z" fill="#96A2D1"/>
<path opacity="0.51" d="M103.434 198.604C94.9545 193.741 81.0914 193.741 72.6115 198.604C64.1316 203.467 64.1496 211.47 72.6115 216.333C81.0734 221.196 94.9545 221.214 103.434 216.333C111.914 211.452 111.896 203.485 103.434 198.604Z" fill="#919FD0"/>
<path opacity="0.53" d="M103.02 198.855C94.7745 194.099 81.2714 194.099 73.0436 198.855C64.8158 203.61 64.7978 211.416 73.0436 216.1C81.2895 220.783 94.7745 220.837 103.02 216.1C111.266 211.362 111.248 203.592 103.02 198.855Z" fill="#8D9BCE"/>
<path opacity="0.55" d="M88.0231 219.33C99.4082 219.33 108.638 214.02 108.638 207.469C108.638 200.918 99.4082 195.607 88.0231 195.607C76.6379 195.607 67.4084 200.918 67.4084 207.469C67.4084 214.02 76.6379 219.33 88.0231 219.33Z" fill="#8997CC"/>
<path opacity="0.57" d="M88.0232 218.989C99.0802 218.989 108.044 213.831 108.044 207.469C108.044 201.106 99.0802 195.948 88.0232 195.948C76.9662 195.948 68.0027 201.106 68.0027 207.469C68.0027 213.831 76.9662 218.989 88.0232 218.989Z" fill="#8594CA"/>
<path opacity="0.59" d="M101.76 199.573C97.5022 197.422 92.7961 196.302 88.0229 196.302C83.2496 196.302 78.5435 197.422 74.2858 199.573C66.7241 203.915 66.7241 211.039 74.2858 215.382C78.5485 217.516 83.2527 218.627 88.0229 218.627C92.793 218.627 97.4972 217.516 101.76 215.382C109.322 211.039 109.322 203.915 101.76 199.573Z" fill="#8190C8"/>
<path opacity="0.61" d="M101.418 199.806C97.2866 197.727 92.7232 196.644 88.0951 196.644C83.467 196.644 78.9036 197.727 74.7721 199.806C67.4445 204.023 67.4445 210.932 74.7721 215.149C78.9036 217.228 83.467 218.311 88.0951 218.311C92.7232 218.311 97.2866 217.228 101.418 215.149C108.62 210.932 108.62 204.095 101.418 199.806Z" fill="#7C8CC6"/>
<path opacity="0.63" d="M100.932 200.039C96.9251 198.038 92.505 196.995 88.023 196.995C83.541 196.995 79.1209 198.038 75.1141 200.039C67.9125 204.131 67.9125 210.806 75.1141 214.898C79.1163 216.915 83.5383 217.966 88.023 217.966C92.5077 217.966 96.9297 216.915 100.932 214.898C108.043 210.824 108.043 204.095 100.932 200.039Z" fill="#7888C5"/>
<path opacity="0.65" d="M88.023 217.643C97.7874 217.643 105.703 213.088 105.703 207.468C105.703 201.849 97.7874 197.294 88.023 197.294C78.2586 197.294 70.343 201.849 70.343 207.468C70.343 213.088 78.2586 217.643 88.023 217.643Z" fill="#7485C3"/>
<path opacity="0.67" d="M88.0231 217.302C97.4593 217.302 105.109 212.9 105.109 207.469C105.109 202.038 97.4593 197.635 88.0231 197.635C78.5868 197.635 70.9373 202.038 70.9373 207.469C70.9373 212.9 78.5868 217.302 88.0231 217.302Z" fill="#7081C1"/>
<path opacity="0.69" d="M99.6176 200.757C95.9887 198.931 91.9803 197.979 87.915 197.979C83.8497 197.979 79.8412 198.931 76.2124 200.757C69.8029 204.454 69.8029 210.501 76.2124 214.18C79.8387 216.015 83.8482 216.971 87.915 216.971C91.9818 216.971 95.9913 216.015 99.6176 214.18C106.099 210.501 106.099 204.454 99.6176 200.757Z" fill="#6B7DBF"/>
<path opacity="0.71" d="M88.023 216.62C96.8129 216.62 103.939 212.523 103.939 207.469C103.939 202.414 96.8129 198.317 88.023 198.317C79.2331 198.317 72.1074 202.414 72.1074 207.469C72.1074 212.523 79.2331 216.62 88.023 216.62Z" fill="#677ABD"/>
<path opacity="0.73" d="M98.8617 201.242C95.5095 199.564 91.8104 198.69 88.0593 198.69C84.3082 198.69 80.609 199.564 77.2569 201.242C71.2975 204.669 71.2975 210.214 77.2569 213.803C80.609 215.481 84.3082 216.355 88.0593 216.355C91.8104 216.355 95.5095 215.481 98.8617 213.803C104.821 210.286 104.821 204.669 98.8617 201.242Z" fill="#6376BC"/>
<path opacity="0.75" d="M98.4473 201.475C95.2126 199.856 91.6428 199.012 88.023 199.012C84.4031 199.012 80.8334 199.856 77.5987 201.475C71.8734 204.777 71.8734 210.178 77.5987 213.462C80.8309 215.09 84.4016 215.938 88.023 215.938C91.6444 215.938 95.2151 215.09 98.4473 213.462C104.173 210.178 104.173 204.777 98.4473 201.475Z" fill="#5F72BA"/>
<path opacity="0.76" d="M98.0334 201.726C94.9304 200.161 91.5012 199.345 88.0232 199.345C84.5452 199.345 81.116 200.161 78.013 201.726C72.5217 204.885 72.5217 210.071 78.013 213.229C81.116 214.795 84.5452 215.611 88.0232 215.611C91.5012 215.611 94.9304 214.795 98.0334 213.229C103.525 210.071 103.525 204.885 98.0334 201.726Z" fill="#5B6EB8"/>
<path opacity="0.78" d="M97.619 201.96C94.6458 200.464 91.3621 199.685 88.0318 199.685C84.7016 199.685 81.4178 200.464 78.4447 201.96C73.1695 204.992 73.1695 209.963 78.4447 212.996C81.4178 214.491 84.7016 215.27 88.0318 215.27C91.3621 215.27 94.6458 214.491 97.619 212.996C102.876 209.963 102.876 204.992 97.619 201.96Z" fill="#566BB6"/>
<path opacity="0.8" d="M97.1872 202.193C94.3439 200.768 91.2056 200.026 88.0231 200.026C84.8406 200.026 81.7023 200.768 78.859 202.193C73.7999 205.1 73.7999 209.855 78.859 212.762C81.7023 214.187 84.8406 214.929 88.0231 214.929C91.2056 214.929 94.3439 214.187 97.1872 212.762C102.246 209.855 102.246 205.1 97.1872 202.193Z" fill="#5267B4"/>
<path opacity="0.82" d="M96.7733 202.444C94.0618 201.073 91.064 200.358 88.0233 200.358C84.9827 200.358 81.9849 201.073 79.2734 202.444C74.4483 205.208 74.4483 209.748 79.2734 212.511C81.9849 213.883 84.9827 214.597 88.0233 214.597C91.064 214.597 94.0618 213.883 96.7733 212.511C101.598 209.748 101.598 205.208 96.7733 202.444Z" fill="#4E63B2"/>
<path opacity="0.84" d="M96.3589 202.677C93.7741 201.376 90.9188 200.698 88.023 200.698C85.1273 200.698 82.272 201.376 79.6872 202.677C75.0961 205.315 75.0961 209.64 79.6872 212.278C82.272 213.579 85.1273 214.257 88.023 214.257C90.9188 214.257 93.7741 213.579 96.3589 212.278C100.95 209.64 100.95 205.315 96.3589 202.677Z" fill="#4A60B1"/>
<path opacity="0.86" d="M96.0168 202.911C93.5612 201.671 90.8474 201.025 88.095 201.025C85.3426 201.025 82.6288 201.671 80.1732 202.911C75.8163 205.423 75.8163 209.532 80.1732 212.044C82.6317 213.274 85.3444 213.914 88.095 213.914C90.8457 213.914 93.5583 213.274 96.0168 212.044C100.302 209.478 100.302 205.423 96.0168 202.911Z" fill="#465CAF"/>
<path opacity="0.88" d="M95.5305 203.162C93.2042 201.984 90.6319 201.371 88.0228 201.371C85.4137 201.371 82.8415 201.984 80.5151 203.162C76.3742 205.531 76.3742 209.425 80.5151 211.793C82.8415 212.971 85.4137 213.584 88.0228 213.584C90.6319 213.584 93.2042 212.971 95.5305 211.793C99.6174 209.478 99.6174 205.531 95.5305 203.162Z" fill="#4158AD"/>
<path opacity="0.9" d="M95.1166 203.395C92.9166 202.289 90.487 201.713 88.023 201.713C85.5591 201.713 83.1295 202.289 80.9294 203.395C77.0225 205.638 77.0225 209.317 80.9294 211.56C83.1295 212.666 85.5591 213.242 88.023 213.242C90.487 213.242 92.9166 212.666 95.1166 211.56C99.0235 209.317 99.0235 205.638 95.1166 203.395Z" fill="#3D55AB"/>
<path opacity="0.92" d="M94.7024 203.628C92.6316 202.585 90.3435 202.041 88.0229 202.041C85.7023 202.041 83.4142 202.585 81.3434 203.628C77.7426 205.746 77.7426 209.209 81.3434 211.327C83.4167 212.362 85.7038 212.902 88.0229 212.902C90.342 212.902 92.6291 212.362 94.7024 211.327C98.3752 209.209 98.3752 205.746 94.7024 203.628Z" fill="#3951A9"/>
<path opacity="0.94" d="M94.2163 203.88C92.2655 202.886 90.1058 202.367 87.9149 202.367C85.724 202.367 83.5643 202.886 81.6135 203.88C78.1747 205.854 78.1747 209.102 81.6135 211.058C83.5643 212.051 85.724 212.57 87.9149 212.57C90.1058 212.57 92.2655 212.051 94.2163 211.058C97.8171 209.102 97.8171 205.889 94.2163 203.88Z" fill="#354DA7"/>
<path opacity="0.96" d="M93.8745 204.095C92.0596 203.183 90.0556 202.708 88.0232 202.708C85.9908 202.708 83.9867 203.183 82.1718 204.095C78.9671 205.889 78.9671 208.976 82.1718 210.824C83.9867 211.736 85.9908 212.211 88.0232 212.211C90.0556 212.211 92.0596 211.736 93.8745 210.824C97.0972 208.994 97.0972 205.889 93.8745 204.095Z" fill="#3049A6"/>
<path opacity="0.98" d="M93.4604 204.346C91.7842 203.508 89.9346 203.072 88.0592 203.072C86.1838 203.072 84.3343 203.508 82.658 204.346C79.6693 206.141 79.6693 208.886 82.658 210.609C84.3371 211.438 86.1855 211.869 88.0592 211.869C89.9329 211.869 91.7813 211.438 93.4604 210.609C96.4491 208.886 96.4491 206.069 93.4604 204.346Z" fill="#2C46A4"/>
<path d="M93.0461 204.597C91.4897 203.809 89.7686 203.398 88.0229 203.398C86.2772 203.398 84.5562 203.809 82.9998 204.597C80.2452 206.176 80.2452 208.778 82.9998 210.357C84.5562 211.146 86.2772 211.556 88.0229 211.556C89.7686 211.556 91.4897 211.146 93.0461 210.357C95.8007 208.778 95.8007 206.176 93.0461 204.597Z" fill="#2842A2"/>
<path d="M113.769 200.506H111.375C110.131 199.071 108.651 197.858 107 196.917C97.9976 191.713 83.1982 191.713 74.1782 196.917C72.5197 197.848 71.0388 199.063 69.8032 200.506H67.4627V205.513C67.0306 209.227 69.2631 213.031 74.1602 215.867C83.1622 221.053 97.9435 221.053 106.982 215.867C111.897 213.031 114.183 209.227 113.679 205.513L113.769 200.506Z" fill="#FFC107"/>
<path d="M78.8588 194.943C78.0846 195.194 77.3104 195.499 76.5723 195.822V217.087C77.3104 217.41 78.0846 217.697 78.8588 217.966V194.943Z" fill="#FFB333"/>
<path d="M71.9995 198.46V214.431C72.6939 214.967 73.4215 215.459 74.178 215.903H74.286V196.917H74.178C73.4165 197.38 72.6886 197.896 71.9995 198.46Z" fill="#FFB333"/>
<path d="M83.4137 193.759C82.6395 193.902 81.8654 194.064 81.1272 194.261V218.63C81.8654 218.828 82.6395 218.989 83.4137 219.133V193.759Z" fill="#FFB333"/>
<path d="M108.62 198.065V214.862C109.45 214.273 110.221 213.606 110.924 212.87V200.075C110.223 199.333 109.451 198.66 108.62 198.065Z" fill="#FFB333"/>
<path d="M113.211 209.263C113.664 208.08 113.83 206.808 113.697 205.549V200.506H113.139L113.211 209.263Z" fill="#FFB333"/>
<path d="M101.76 194.764C101.004 194.513 100.248 194.297 99.4736 194.118V218.774C100.248 218.594 101.004 218.379 101.76 218.146V194.764Z" fill="#FFB333"/>
<path d="M69.7128 212.26V200.506H67.4623V205.513C67.3432 206.732 67.4819 207.962 67.8696 209.124C68.2572 210.287 68.8851 211.355 69.7128 212.26Z" fill="#FFB333"/>
<path d="M106.333 196.666C105.592 196.264 104.828 195.905 104.046 195.589V217.303C104.839 216.98 105.613 216.621 106.333 216.244V196.666Z" fill="#FFB333"/>
<path d="M88.0231 193.203C87.2489 193.203 86.4927 193.31 85.7366 193.4V219.492C86.4927 219.492 87.2489 219.653 88.0231 219.707V193.203Z" fill="#FFB333"/>
<path d="M92.5958 219.743V193.167C91.8397 193.167 91.0835 193.167 90.3093 193.167V219.833C91.0835 219.797 91.8397 219.779 92.5958 219.743Z" fill="#FFB333"/>
<path d="M97.1871 193.651C96.4309 193.525 95.6567 193.418 94.8826 193.346V219.563C95.6567 219.474 96.4309 219.366 97.1871 219.24V193.651Z" fill="#FFB333"/>
<path d="M90.5795 213.175C103.397 213.175 113.787 207.198 113.787 199.824C113.787 192.451 103.397 186.473 90.5795 186.473C77.7625 186.473 67.3723 192.451 67.3723 199.824C67.3723 207.198 77.7625 213.175 90.5795 213.175Z" fill="#FFCD39"/>
<path d="M105.361 190.906C97.2408 186.222 83.9359 186.222 75.798 190.906C67.6602 195.589 67.6782 203.234 75.798 207.899C83.9179 212.565 97.2408 212.583 105.361 207.899C113.48 203.216 113.48 195.571 105.361 190.906Z" fill="#FFB333"/>
<path d="M90.5796 209.568C100.702 209.568 108.908 204.932 108.908 199.214C108.908 193.495 100.702 188.86 90.5796 188.86C80.4572 188.86 72.2515 193.495 72.2515 199.214C72.2515 204.932 80.4572 209.568 90.5796 209.568Z" fill="#FFCD39"/>
<path d="M92.3085 204.364H85.863C84.3867 204.364 83.1804 203.664 83.1804 202.802V201.995H87.0153V202.138H92.4165C93.4427 202.138 94.2169 201.654 94.2169 201.062C94.2169 200.469 93.6768 200.362 93.0106 200.362H88.2035C85.4309 200.362 83.1804 199.052 83.1804 197.455V197.042C83.1804 195.248 85.719 193.758 88.8517 193.758H95.2971C96.7915 193.758 97.9977 194.458 97.9977 195.319V196.217H94.2169V195.983H88.8157C87.7895 195.983 87.0153 196.45 87.0153 197.042V197.455C87.0153 197.832 87.5554 198.155 88.2215 198.155H92.9566C95.7292 198.155 97.9977 199.465 97.9977 201.062C97.9977 202.659 95.4412 204.364 92.3085 204.364Z" fill="#BF9105"/>
<path d="M92.5067 192.682H88.6719V205.745H92.5067V192.682Z" fill="#BF9105"/>
<path d="M113.769 192.305H111.375C110.131 190.87 108.651 189.657 107 188.716C97.9976 183.53 83.1982 183.53 74.1782 188.716C72.5197 189.647 71.0388 190.862 69.8032 192.305H67.4627V197.312C67.0306 201.026 69.2631 204.831 74.1602 207.666C83.1622 212.852 97.9435 212.852 106.982 207.666C111.897 204.831 114.183 201.026 113.679 197.312L113.769 192.305Z" fill="#FFC107"/>
<path d="M78.8588 186.707C78.0846 186.976 77.3104 187.263 76.5723 187.586V208.851C77.3104 209.174 78.0846 209.461 78.8588 209.73V186.707Z" fill="#FFB333"/>
<path d="M71.9993 190.242V206.195C72.6936 206.731 73.4213 207.222 74.1778 207.666H74.2858V188.717H74.1778C73.4128 189.168 72.6844 189.678 71.9993 190.242Z" fill="#FFB333"/>
<path d="M83.414 185.522C82.6398 185.666 81.8656 185.845 81.1274 186.025V210.412C81.8656 210.591 82.6398 210.771 83.414 210.914V185.522Z" fill="#FFB333"/>
<path d="M108.619 189.829V206.607C109.454 206.023 110.226 205.356 110.924 204.616V191.821C110.217 191.09 109.446 190.423 108.619 189.829Z" fill="#FFB333"/>
<path d="M113.21 201.045C113.664 199.856 113.83 198.577 113.697 197.312V192.306H113.138L113.21 201.045Z" fill="#FFB333"/>
<path d="M101.76 186.527C101.004 186.294 100.248 186.079 99.4734 185.881V210.556C100.248 210.358 101.004 210.143 101.76 209.91V186.527Z" fill="#FFB333"/>
<path d="M69.7126 204.095V192.359H67.4621V197.366C67.3489 198.582 67.4905 199.808 67.878 200.966C68.2654 202.125 68.8901 203.19 69.7126 204.095Z" fill="#FFB333"/>
<path d="M106.333 188.43C105.592 188.028 104.829 187.668 104.047 187.353V209.084C104.829 208.769 105.592 208.409 106.333 208.007V188.43Z" fill="#FFB333"/>
<path d="M88.0228 184.966C87.2487 184.966 86.4925 185.092 85.7363 185.181V211.273C86.4925 211.273 87.2487 211.435 88.0228 211.489V184.966Z" fill="#FFB333"/>
<path d="M92.5956 211.507V184.93C91.8394 184.93 91.0833 184.93 90.3091 184.93V211.614C91.0833 211.56 91.8394 211.542 92.5956 211.507Z" fill="#FFB333"/>
<path d="M97.1868 185.415C96.4307 185.289 95.6565 185.199 94.8823 185.11V211.273C95.6565 211.183 96.4307 211.094 97.1868 210.968V185.415Z" fill="#FFB333"/>
<path d="M90.5795 204.938C103.397 204.938 113.787 198.961 113.787 191.587C113.787 184.214 103.397 178.236 90.5795 178.236C77.7625 178.236 67.3723 184.214 67.3723 191.587C67.3723 198.961 77.7625 204.938 90.5795 204.938Z" fill="#FFCD39"/>
<path d="M105.361 182.669C97.2408 177.985 83.9359 177.985 75.798 182.669C67.6602 187.352 67.6782 194.997 75.798 199.68C83.9179 204.364 97.2408 204.346 105.361 199.68C113.48 195.015 113.48 187.352 105.361 182.669Z" fill="#FFB333"/>
<path d="M90.5796 201.331C100.702 201.331 108.908 196.696 108.908 190.977C108.908 185.259 100.702 180.623 90.5796 180.623C80.4572 180.623 72.2515 185.259 72.2515 190.977C72.2515 196.696 80.4572 201.331 90.5796 201.331Z" fill="#FFCD39"/>
<path d="M92.3085 196.127H85.863C84.3867 196.127 83.1804 195.427 83.1804 194.566V193.776H87.0153V193.902H92.4165C93.4427 193.902 94.2169 193.435 94.2169 192.843C94.2169 192.251 93.6768 192.143 93.0106 192.143H88.2035C85.4309 192.143 83.1804 190.833 83.1804 189.218V188.824C83.1804 187.029 85.719 185.522 88.8517 185.522H95.2971C96.7915 185.522 97.9977 186.222 97.9977 187.083V187.944H94.2169V187.693H88.8157C87.7895 187.693 87.0153 188.178 87.0153 188.77V189.165C87.0153 189.541 87.5554 189.864 88.2215 189.864H92.9566C95.7292 189.864 97.9977 191.174 97.9977 192.789C97.9977 194.404 95.4412 196.127 92.3085 196.127Z" fill="#BF9105"/>
<path d="M92.5067 184.445H88.6719V197.509H92.5067V184.445Z" fill="#BF9105"/>
<path d="M113.769 184.068H111.375C110.131 182.634 108.651 181.42 107 180.479C97.9976 175.293 83.1982 175.293 74.1782 180.479C72.5197 181.41 71.0388 182.625 69.8032 184.068H67.4627V189.075C67.0306 192.808 69.2631 196.612 74.1602 199.429C83.1622 204.633 97.9435 204.633 106.982 199.429C111.897 196.612 114.183 192.808 113.679 189.075L113.769 184.068Z" fill="#FFC107"/>
<path d="M78.8588 178.47C78.0846 178.739 77.3104 179.026 76.5723 179.349V200.613C77.3104 200.937 78.0846 201.224 78.8588 201.493V178.47Z" fill="#FFB333"/>
<path d="M71.9993 182.005V197.958C72.6893 198.499 73.4173 198.991 74.1778 199.429H74.2858V180.408H74.1778C73.4147 180.888 72.6867 181.422 71.9993 182.005Z" fill="#FFB333"/>
<path d="M83.414 177.303C82.6398 177.447 81.8656 177.608 81.1274 177.806V202.175C81.8656 202.354 82.6398 202.534 83.414 202.677V177.303Z" fill="#FFB333"/>
<path d="M108.619 181.61V198.388C109.45 197.793 110.222 197.12 110.924 196.379V183.584C110.217 182.858 109.445 182.198 108.619 181.61Z" fill="#FFB333"/>
<path d="M113.21 192.808C113.665 191.619 113.831 190.34 113.697 189.075V184.068H113.138L113.21 192.808Z" fill="#FFB333"/>
<path d="M101.76 178.29C101.004 178.057 100.248 177.841 99.4734 177.662V202.3C100.248 202.121 101.004 201.887 101.76 201.654V178.29Z" fill="#FFB333"/>
<path d="M69.7126 195.804V184.068H67.4621V189.075C67.3489 190.291 67.4905 191.517 67.878 192.675C68.2654 193.834 68.8901 194.899 69.7126 195.804Z" fill="#FFB333"/>
<path d="M106.333 180.192C105.613 179.815 104.839 179.457 104.047 179.116V200.847C104.829 200.531 105.592 200.172 106.333 199.77V180.192Z" fill="#FFB333"/>
<path d="M88.0228 176.729C87.2487 176.729 86.4925 176.854 85.7363 176.944V203.018C86.4925 203.126 87.2487 203.198 88.0228 203.233V176.729Z" fill="#FFB333"/>
<path d="M92.5956 203.269V176.693C91.8394 176.693 91.0833 176.693 90.3091 176.693V203.359C91.0833 203.323 91.8394 203.305 92.5956 203.269Z" fill="#FFB333"/>
<path d="M97.1868 177.178C96.4307 177.052 95.6565 176.944 94.8823 176.855V203.072C95.6565 203.072 96.4307 202.893 97.1868 202.767V177.178Z" fill="#FFB333"/>
<path d="M90.5795 196.72C103.397 196.72 113.787 190.742 113.787 183.369C113.787 175.995 103.397 170.018 90.5795 170.018C77.7625 170.018 67.3723 175.995 67.3723 183.369C67.3723 190.742 77.7625 196.72 90.5795 196.72Z" fill="#FFCD39"/>
<path d="M105.361 174.432C97.2408 169.767 83.9359 169.767 75.798 174.432C67.6602 179.098 67.6782 186.76 75.798 191.444C83.9179 196.128 97.2408 196.128 105.361 191.444C113.48 186.76 113.48 179.116 105.361 174.432Z" fill="#FFB333"/>
<path d="M90.5796 193.113C100.702 193.113 108.908 188.477 108.908 182.759C108.908 177.04 100.702 172.404 90.5796 172.404C80.4572 172.404 72.2515 177.04 72.2515 182.759C72.2515 188.477 80.4572 193.113 90.5796 193.113Z" fill="#FFCD39"/>
<path d="M92.3085 187.945H85.863C84.3867 187.945 83.1804 187.245 83.1804 186.384V185.594H87.0153V185.738H92.4165C93.4427 185.738 94.2169 185.253 94.2169 184.661C94.2169 184.069 93.6768 183.961 93.0106 183.961H88.2035C85.4309 183.961 83.1804 182.651 83.1804 181.036V180.641C83.1804 178.847 85.719 177.339 88.8517 177.339H95.2971C96.7915 177.339 97.9977 178.039 97.9977 178.901V179.816H94.2169V179.565H88.8157C87.7895 179.565 87.0153 180.049 87.0153 180.641V181.036C87.0153 181.431 87.5554 181.736 88.2215 181.736H92.9566C95.7292 181.736 97.9977 183.046 97.9977 184.661C97.9977 186.276 95.4412 187.945 92.3085 187.945Z" fill="#BF9105"/>
<path d="M92.5067 176.209H88.6719V189.273H92.5067V176.209Z" fill="#BF9105"/>
<g style="mix-blend-mode:multiply">
<path style="mix-blend-mode:multiply" opacity="0.02" d="M92.6199 241.376V239.734L180.665 188.188C181.42 187.632 182.31 187.285 183.244 187.183C184.177 187.081 185.121 187.227 185.98 187.606L232.195 214.08C232.638 214.335 232.998 214.712 233.231 215.166L233.471 215.695C233.946 216.664 234.035 217.777 233.719 218.809C233.403 219.84 232.707 220.715 231.77 221.255L145.293 270.921C144.362 271.391 143.333 271.636 142.29 271.636C141.246 271.636 140.217 271.391 139.287 270.921L95.0648 245.559C94.3267 245.134 93.7128 244.525 93.2839 243.791C92.855 243.057 92.6261 242.225 92.6199 241.376Z" fill="url(#paint5_linear_2202_358)"/>
<path style="mix-blend-mode:multiply" opacity="0.05" d="M92.8062 241.243V239.496L180.506 188.162C181.261 187.606 182.151 187.259 183.084 187.156C184.018 187.054 184.962 187.2 185.821 187.579L231.903 213.921C232.348 214.166 232.702 214.546 232.913 215.007L233.179 215.536C233.652 216.502 233.74 217.61 233.424 218.637C233.109 219.665 232.413 220.534 231.478 221.07L145.346 270.577C144.415 271.047 143.387 271.291 142.343 271.291C141.3 271.291 140.271 271.047 139.34 270.577L95.2245 245.4C94.4898 244.98 93.8793 244.375 93.4547 243.645C93.03 242.915 92.8063 242.087 92.8062 241.243Z" fill="url(#paint6_linear_2202_358)"/>
<path style="mix-blend-mode:multiply" opacity="0.07" d="M93.0198 241.111V239.496L180.48 188.321C181.228 187.749 182.119 187.392 183.056 187.289C183.993 187.187 184.941 187.342 185.795 187.738L231.718 214.001C232.151 214.26 232.502 214.636 232.728 215.086L232.967 215.589C233.442 216.548 233.533 217.65 233.222 218.672C232.911 219.695 232.221 220.561 231.293 221.096L145.347 270.471C144.417 270.928 143.394 271.166 142.357 271.166C141.32 271.166 140.297 270.928 139.368 270.471L95.4382 245.267C94.7035 244.848 94.093 244.243 93.6683 243.513C93.2437 242.783 93.02 241.954 93.0198 241.111Z" fill="url(#paint7_linear_2202_358)"/>
<path style="mix-blend-mode:multiply" opacity="0.1" d="M93.2315 240.978V239.496L180.373 188.374C181.128 187.817 182.018 187.47 182.952 187.368C183.885 187.266 184.829 187.412 185.688 187.791L231.425 213.974C231.868 214.209 232.222 214.581 232.435 215.033L232.7 215.563C233.171 216.52 233.258 217.621 232.941 218.639C232.625 219.658 231.931 220.518 231 221.043L145.346 270.233C144.426 270.69 143.412 270.927 142.383 270.927C141.355 270.927 140.34 270.69 139.42 270.233L95.6233 245.135C94.8918 244.714 94.2851 244.108 93.865 243.378C93.4449 242.648 93.2263 241.82 93.2315 240.978Z" fill="url(#paint8_linear_2202_358)"/>
<path style="mix-blend-mode:multiply" opacity="0.12" d="M93.4439 240.872V239.231L180.266 188.427C181.007 187.894 181.873 187.561 182.781 187.459C183.689 187.357 184.607 187.489 185.449 187.844L231.052 213.921C231.48 214.188 231.828 214.562 232.062 215.007L232.301 215.51C232.764 216.464 232.846 217.558 232.531 218.571C232.215 219.583 231.525 220.439 230.601 220.964L145.373 269.994C144.456 270.464 143.44 270.708 142.409 270.708C141.379 270.708 140.363 270.464 139.446 269.994L95.8357 244.976C95.1083 244.564 94.5036 243.967 94.0835 243.246C93.6633 242.525 93.4426 241.706 93.4439 240.872Z" fill="url(#paint9_linear_2202_358)"/>
<path style="mix-blend-mode:multiply" opacity="0.15" d="M93.6299 240.74V239.125L180.107 188.48C180.839 187.939 181.703 187.602 182.609 187.505C183.515 187.407 184.431 187.552 185.263 187.924L230.68 213.895C231.123 214.13 231.478 214.501 231.69 214.954L231.956 215.484C232.434 216.432 232.532 217.525 232.231 218.542C231.93 219.56 231.252 220.425 230.335 220.964L145.293 269.809C144.377 270.266 143.367 270.504 142.343 270.504C141.319 270.504 140.309 270.266 139.393 269.809L96.0217 244.791C95.3021 244.383 94.7025 243.795 94.2828 243.084C93.8631 242.373 93.6379 241.565 93.6299 240.74Z" fill="url(#paint10_linear_2202_358)"/>
<path style="mix-blend-mode:multiply" opacity="0.17" d="M93.8428 240.608V238.993L180.107 188.533C180.837 187.997 181.696 187.663 182.597 187.566C183.497 187.468 184.408 187.61 185.236 187.977L230.415 213.869C230.845 214.121 231.195 214.487 231.425 214.928L231.664 215.457C232.158 216.404 232.269 217.503 231.972 218.528C231.675 219.553 230.994 220.425 230.069 220.964L145.559 269.545C144.648 270.001 143.642 270.239 142.622 270.239C141.603 270.239 140.597 270.001 139.686 269.545L96.2081 244.791C95.4756 244.367 94.8702 243.755 94.4544 243.02C94.0385 242.285 93.8274 241.452 93.8428 240.608Z" fill="url(#paint11_linear_2202_358)"/>
<path style="mix-blend-mode:multiply" opacity="0.2" d="M94.0555 240.475V238.887L179.974 188.585C180.704 188.05 181.563 187.716 182.464 187.618C183.365 187.521 184.276 187.662 185.104 188.029L230.282 213.842C230.712 214.085 231.055 214.455 231.265 214.901L231.531 215.404C231.944 216.339 232.002 217.391 231.694 218.365C231.386 219.34 230.733 220.169 229.857 220.699L145.559 269.306C144.648 269.762 143.642 270 142.622 270C141.603 270 140.597 269.762 139.686 269.306L96.4207 244.552C95.6985 244.143 95.0988 243.55 94.6831 242.833C94.2674 242.117 94.0508 241.303 94.0555 240.475Z" fill="url(#paint12_linear_2202_358)"/>
<path style="mix-blend-mode:multiply" opacity="0.22" d="M94.2415 240.369V238.755L179.868 188.638C180.605 188.119 181.463 187.796 182.36 187.699C183.258 187.602 184.165 187.734 184.997 188.082L229.937 213.789C230.357 214.053 230.704 214.417 230.946 214.848L231.186 215.378C231.623 216.309 231.694 217.369 231.384 218.35C231.074 219.33 230.405 220.159 229.511 220.672L145.559 269.094C144.653 269.55 143.651 269.788 142.636 269.788C141.62 269.788 140.619 269.55 139.712 269.094L96.6067 244.42C95.8902 244.011 95.2945 243.421 94.8793 242.71C94.4641 241.999 94.2441 241.192 94.2415 240.369Z" fill="url(#paint13_linear_2202_358)"/>
<path style="mix-blend-mode:multiply" opacity="0.24" d="M94.4539 240.237V238.649L179.788 188.718C180.508 188.185 181.356 187.85 182.248 187.748C183.139 187.646 184.041 187.78 184.864 188.135L229.671 213.763C230.1 214.006 230.444 214.376 230.654 214.822L230.893 215.325C231.333 216.253 231.407 217.311 231.102 218.291C230.797 219.271 230.135 220.102 229.245 220.62L145.559 268.856C144.652 269.312 143.651 269.55 142.635 269.55C141.62 269.55 140.619 269.312 139.712 268.856L96.7925 244.288C96.0828 243.873 95.4938 243.282 95.0837 242.571C94.6736 241.861 94.4565 241.057 94.4539 240.237Z" fill="url(#paint14_linear_2202_358)"/>
<path style="mix-blend-mode:multiply" opacity="0.27" d="M94.6665 240.105V238.516L179.708 188.771C180.429 188.237 181.279 187.904 182.171 187.806C183.063 187.709 183.965 187.85 184.784 188.215L229.405 213.736C229.835 213.979 230.178 214.349 230.388 214.795L230.654 215.298C231.087 216.227 231.159 217.283 230.854 218.262C230.55 219.24 229.891 220.071 229.006 220.593L145.559 268.618C144.662 269.075 143.669 269.314 142.662 269.314C141.655 269.314 140.662 269.075 139.765 268.618L97.0052 244.129C96.2921 243.725 95.6998 243.139 95.2888 242.432C94.8778 241.725 94.6631 240.922 94.6665 240.105Z" fill="url(#paint15_linear_2202_358)"/>
<path style="mix-blend-mode:multiply" opacity="0.29" d="M94.8525 239.973V238.384L179.576 188.824C180.29 188.29 181.136 187.957 182.024 187.859C182.912 187.761 183.81 187.902 184.625 188.268L229.113 213.71C229.535 213.95 229.877 214.309 230.096 214.742L230.335 215.245C230.781 216.172 230.859 217.233 230.553 218.215C230.248 219.197 229.581 220.027 228.687 220.54L145.559 268.406C144.663 268.849 143.676 269.08 142.675 269.08C141.675 269.08 140.688 268.849 139.792 268.406L97.2709 243.997C96.5467 243.599 95.9413 243.017 95.5164 242.31C95.0916 241.603 94.8625 240.796 94.8525 239.973Z" fill="url(#paint16_linear_2202_358)"/>
<path style="mix-blend-mode:multiply" opacity="0.32" d="M95.065 239.84V238.278L179.496 188.876C180.211 188.355 181.051 188.029 181.933 187.931C182.814 187.834 183.705 187.968 184.519 188.32L228.847 213.656C229.263 213.908 229.596 214.276 229.803 214.715L230.069 215.218C230.509 216.146 230.583 217.205 230.278 218.185C229.973 219.165 229.311 219.996 228.421 220.513L145.559 268.167C144.667 268.625 143.678 268.863 142.675 268.863C141.672 268.863 140.684 268.625 139.792 268.167L97.4036 243.864C96.6906 243.46 96.0982 242.874 95.6872 242.167C95.2763 241.46 95.0615 240.657 95.065 239.84Z" fill="url(#paint17_linear_2202_358)"/>
<path style="mix-blend-mode:multiply" opacity="0.34" d="M95.2781 239.734V238.146L179.39 188.93C180.105 188.408 180.946 188.082 181.827 187.985C182.708 187.887 183.6 188.021 184.413 188.374L228.555 213.63C228.977 213.87 229.32 214.23 229.538 214.663L229.777 215.166C230.219 216.091 230.298 217.147 229.998 218.126C229.698 219.106 229.041 219.939 228.156 220.461L145.559 267.956C144.668 268.401 143.686 268.632 142.689 268.632C141.692 268.632 140.71 268.401 139.819 267.956L97.723 243.705C96.9962 243.322 96.3859 242.751 95.9559 242.052C95.5258 241.354 95.2918 240.553 95.2781 239.734Z" fill="url(#paint18_linear_2202_358)"/>
<path style="mix-blend-mode:multiply" opacity="0.37" d="M95.4638 239.496V237.934L179.283 188.876C179.994 188.355 180.829 188.029 181.707 187.931C182.584 187.833 183.471 187.968 184.28 188.32L228.289 213.498C228.705 213.738 229.038 214.098 229.245 214.53L229.511 215.033C229.964 215.959 230.045 217.022 229.739 218.005C229.433 218.989 228.762 219.82 227.864 220.328L145.559 267.717C144.673 268.162 143.694 268.394 142.702 268.394C141.71 268.394 140.731 268.162 139.845 267.717L97.7227 243.573C97.0184 243.152 96.4384 242.554 96.0417 241.837C95.6449 241.121 95.4455 240.313 95.4638 239.496Z" fill="url(#paint19_linear_2202_358)"/>
<path style="mix-blend-mode:multiply" opacity="0.39" d="M95.6765 239.496V237.934L179.177 189.062C179.89 188.544 180.727 188.223 181.604 188.13C182.481 188.037 183.367 188.176 184.173 188.533L227.943 213.577C228.372 213.809 228.717 214.171 228.927 214.61L229.166 215.113C229.627 216.034 229.716 217.097 229.414 218.082C229.113 219.067 228.444 219.899 227.545 220.408L145.559 267.479C144.673 267.924 143.694 268.155 142.702 268.155C141.71 268.155 140.731 267.924 139.845 267.479L97.9886 243.441C97.2904 243.042 96.7094 242.468 96.3037 241.776C95.8979 241.084 95.6817 240.297 95.6765 239.496Z" fill="url(#paint20_linear_2202_358)"/>
<path style="mix-blend-mode:multiply" opacity="0.41" d="M95.8892 239.337V237.801L179.097 189.194C179.797 188.672 180.624 188.345 181.493 188.247C182.362 188.15 183.241 188.285 184.041 188.638L227.731 213.604C228.147 213.844 228.48 214.204 228.688 214.636L228.927 215.139C229.39 216.058 229.483 217.118 229.187 218.102C228.89 219.087 228.227 219.921 227.332 220.434L145.559 267.267C144.677 267.712 143.703 267.943 142.715 267.943C141.727 267.943 140.753 267.712 139.872 267.267L98.1747 243.281C97.4778 242.884 96.8992 242.309 96.4977 241.616C96.0962 240.923 95.8863 240.137 95.8892 239.337Z" fill="url(#paint21_linear_2202_358)"/>
<path style="mix-blend-mode:multiply" opacity="0.44" d="M96.1016 239.204V237.669L178.991 189.194C179.691 188.672 180.518 188.345 181.387 188.247C182.256 188.15 183.135 188.285 183.934 188.638L227.465 213.524C227.871 213.776 228.202 214.133 228.422 214.557L228.661 215.06C229.129 215.98 229.221 217.045 228.919 218.032C228.617 219.019 227.943 219.851 227.04 220.355L145.692 267.029C144.815 267.473 143.845 267.705 142.861 267.705C141.878 267.705 140.908 267.473 140.031 267.029L98.3871 243.202C97.6804 242.802 97.0951 242.22 96.6929 241.516C96.2907 240.812 96.0864 240.014 96.1016 239.204Z" fill="url(#paint22_linear_2202_358)"/>
<path style="mix-blend-mode:multiply" opacity="0.46" d="M96.2876 239.099V237.537L178.885 189.195C179.588 188.68 180.414 188.358 181.282 188.26C182.149 188.163 183.027 188.293 183.828 188.639L227.172 213.445C227.594 213.679 227.929 214.041 228.129 214.478L228.368 214.954C228.838 215.871 228.935 216.934 228.638 217.92C228.341 218.907 227.673 219.741 226.774 220.249L145.692 266.844C144.819 267.288 143.854 267.519 142.875 267.519C141.895 267.519 140.93 267.288 140.058 266.844L98.5731 243.017C97.8819 242.62 97.3073 242.049 96.9063 241.361C96.5054 240.674 96.292 239.894 96.2876 239.099Z" fill="url(#paint23_linear_2202_358)"/>
<path style="mix-blend-mode:multiply" opacity="0.49" d="M96.5002 238.967V237.431L178.778 189.195C179.477 188.68 180.299 188.357 181.162 188.26C182.025 188.162 182.899 188.293 183.695 188.639L226.907 213.366C227.315 213.604 227.647 213.953 227.864 214.372L228.103 214.875C228.573 215.792 228.669 216.855 228.372 217.841C228.075 218.827 227.407 219.662 226.508 220.17L145.718 266.606C144.847 267.037 143.887 267.262 142.915 267.262C141.942 267.262 140.982 267.037 140.111 266.606L98.7592 242.779C98.0848 242.391 97.5224 241.836 97.1267 241.168C96.7309 240.501 96.5151 239.742 96.5002 238.967Z" fill="url(#paint24_linear_2202_358)"/>
<path style="mix-blend-mode:multiply" opacity="0.51" d="M96.7127 238.834V237.298L178.698 189.327C179.394 188.816 180.213 188.498 181.072 188.405C181.931 188.312 182.799 188.447 183.588 188.797L226.614 213.418C227.034 213.642 227.369 213.995 227.571 214.424L227.81 214.901C228.247 215.803 228.325 216.836 228.03 217.794C227.734 218.751 227.086 219.562 226.216 220.063L145.745 266.341C144.882 266.784 143.925 267.016 142.954 267.016C141.983 267.016 141.027 266.784 140.164 266.341L98.9716 242.725C98.2821 242.335 97.7093 241.769 97.3123 241.085C96.9153 240.401 96.7083 239.624 96.7127 238.834Z" fill="url(#paint25_linear_2202_358)"/>
<path style="mix-blend-mode:multiply" opacity="0.54" d="M96.8987 238.702V237.193L178.592 189.38C179.286 188.876 180.1 188.562 180.953 188.469C181.806 188.377 182.669 188.508 183.455 188.85L226.348 213.366C226.757 213.604 227.088 213.953 227.305 214.372L227.544 214.875C227.98 215.773 228.057 216.802 227.761 217.755C227.466 218.708 226.818 219.514 225.95 220.011L145.771 266.103C144.908 266.546 143.952 266.777 142.981 266.777C142.01 266.777 141.053 266.546 140.19 266.103L99.1576 242.593C98.4717 242.199 97.9019 241.632 97.5054 240.949C97.109 240.265 96.8997 239.491 96.8987 238.702Z" fill="url(#paint26_linear_2202_358)"/>
<path style="mix-blend-mode:multiply" opacity="0.56" d="M97.1116 238.569V237.06L178.486 189.406C179.179 188.9 179.993 188.585 180.847 188.492C181.7 188.399 182.564 188.531 183.349 188.876L226.083 213.312C226.483 213.552 226.806 213.901 227.013 214.318L227.252 214.795C227.69 215.69 227.771 216.717 227.481 217.67C227.19 218.622 226.548 219.43 225.684 219.931L145.798 265.97C144.936 266.401 143.985 266.625 143.021 266.625C142.057 266.625 141.106 266.401 140.244 265.97L99.3439 242.434C98.6632 242.043 98.0983 241.479 97.7064 240.8C97.3144 240.122 97.1092 239.352 97.1116 238.569Z" fill="url(#paint27_linear_2202_358)"/>
<path style="mix-blend-mode:multiply" opacity="0.59" d="M97.3242 238.463V236.848L178.406 189.406C179.094 188.9 179.903 188.584 180.753 188.491C181.603 188.398 182.462 188.531 183.243 188.877L225.764 213.233C226.178 213.464 226.512 213.815 226.721 214.239L226.934 214.716C227.394 215.623 227.48 216.675 227.172 217.645C226.864 218.615 226.187 219.426 225.286 219.905L145.825 265.652C144.968 266.083 144.021 266.307 143.061 266.307C142.101 266.307 141.154 266.083 140.297 265.652L99.5566 242.302C98.878 241.915 98.3141 241.356 97.9221 240.682C97.5301 240.008 97.3238 239.242 97.3242 238.463Z" fill="url(#paint28_linear_2202_358)"/>
<path style="mix-blend-mode:multiply" opacity="0.61" d="M97.5103 238.331V236.849L178.3 189.592C178.983 189.088 179.787 188.772 180.631 188.675C181.475 188.577 182.33 188.702 183.11 189.036L225.631 213.313C226.036 213.535 226.361 213.878 226.561 214.292L226.801 214.795C227.235 215.683 227.315 216.701 227.024 217.645C226.733 218.589 226.092 219.387 225.233 219.878L145.851 265.441C144.994 265.872 144.047 266.096 143.087 266.096C142.127 266.096 141.181 265.872 140.324 265.441L99.7426 242.143C99.0679 241.758 98.5065 241.204 98.1148 240.535C97.723 239.866 97.5145 239.106 97.5103 238.331Z" fill="url(#paint29_linear_2202_358)"/>
<path style="mix-blend-mode:multiply" opacity="0.63" d="M97.7227 238.199V236.69L178.194 189.618C178.877 189.114 179.682 188.8 180.527 188.707C181.372 188.614 182.227 188.746 183.004 189.089L225.286 213.233C225.699 213.457 226.026 213.811 226.216 214.239L226.455 214.716C226.885 215.601 226.966 216.615 226.68 217.557C226.395 218.499 225.764 219.299 224.914 219.799L145.878 265.203C145.025 265.633 144.083 265.857 143.127 265.857C142.171 265.857 141.229 265.633 140.377 265.203L99.955 242.143C99.2546 241.754 98.6756 241.18 98.2817 240.484C97.8879 239.788 97.6944 238.997 97.7227 238.199Z" fill="url(#paint30_linear_2202_358)"/>
<path style="mix-blend-mode:multiply" opacity="0.66" d="M97.9353 238.066V236.584L178.087 189.671C178.759 189.195 179.543 188.9 180.363 188.817C181.183 188.733 182.01 188.864 182.765 189.195L224.86 213.26C225.261 213.5 225.583 213.849 225.791 214.266L226.03 214.742C226.455 215.623 226.53 216.631 226.239 217.565C225.948 218.498 225.313 219.287 224.462 219.773L145.878 264.964C145.03 265.394 144.092 265.619 143.14 265.619C142.189 265.619 141.251 265.394 140.403 264.964L100.141 241.879C99.4713 241.49 98.9153 240.934 98.5283 240.265C98.1413 239.596 97.9369 238.838 97.9353 238.066Z" fill="url(#paint31_linear_2202_358)"/>
<path style="mix-blend-mode:multiply" opacity="0.68" d="M98.1479 237.934V236.452L178.008 189.724C178.683 189.225 179.479 188.913 180.314 188.82C181.15 188.727 181.996 188.856 182.765 189.195L224.701 213.18C225.093 213.41 225.408 213.751 225.605 214.16L225.844 214.637C226.278 215.513 226.36 216.521 226.074 217.456C225.787 218.391 225.154 219.181 224.302 219.667L145.904 264.673C145.057 265.091 144.125 265.308 143.18 265.308C142.235 265.308 141.303 265.091 140.456 264.673L100.38 241.746C99.7038 241.364 99.1409 240.809 98.7489 240.14C98.3568 239.47 98.1495 238.709 98.1479 237.934Z" fill="url(#paint32_linear_2202_358)"/>
<path style="mix-blend-mode:multiply" opacity="0.71" d="M98.3337 237.828V236.345L177.901 189.777C178.586 189.257 179.398 188.929 180.253 188.827C181.108 188.724 181.975 188.851 182.764 189.194L224.515 213.021C224.919 213.244 225.244 213.586 225.445 214.001L225.684 214.477C226.11 215.351 226.188 216.353 225.902 217.281C225.616 218.21 224.987 218.996 224.143 219.481L146.037 264.488C145.209 264.888 144.3 265.096 143.379 265.096C142.459 265.096 141.55 264.888 140.722 264.488L100.858 241.561C100.134 241.23 99.5143 240.707 99.0688 240.048C98.6234 239.39 98.369 238.621 98.3337 237.828Z" fill="url(#paint33_linear_2202_358)"/>
<path style="mix-blend-mode:multiply" opacity="0.73" d="M98.5469 237.695V236.213L177.795 189.83C178.468 189.335 179.261 189.027 180.092 188.939C180.924 188.85 181.764 188.984 182.526 189.327L224.143 213.154C224.536 213.383 224.85 213.724 225.047 214.133L225.286 214.61C225.712 215.483 225.79 216.485 225.504 217.414C225.218 218.342 224.589 219.128 223.745 219.613L145.958 264.276C145.133 264.688 144.223 264.903 143.3 264.903C142.377 264.903 141.467 264.688 140.643 264.276L100.779 241.455C100.105 241.083 99.5428 240.538 99.1503 239.877C98.7579 239.216 98.5496 238.463 98.5469 237.695Z" fill="url(#paint34_linear_2202_358)"/>
<path style="mix-blend-mode:multiply" opacity="0.76" d="M98.7595 237.563V236.08L177.716 189.883C178.386 189.395 179.174 189.091 180 189.003C180.826 188.915 181.66 189.045 182.42 189.38L223.851 213.207C224.241 213.448 224.561 213.785 224.781 214.186L225.02 214.663C225.439 215.533 225.512 216.529 225.227 217.451C224.941 218.374 224.317 219.155 223.479 219.64L145.984 264.064C145.157 264.468 144.248 264.678 143.327 264.678C142.406 264.678 141.496 264.468 140.669 264.064L100.939 241.322C100.274 240.943 99.7229 240.396 99.3401 239.736C98.9573 239.075 98.757 238.326 98.7595 237.563Z" fill="url(#paint35_linear_2202_358)"/>
<path style="mix-blend-mode:multiply" opacity="0.78" d="M98.9454 237.431V235.975L177.609 189.962C178.27 189.465 179.052 189.153 179.875 189.06C180.698 188.967 181.531 189.096 182.286 189.433L223.585 213.021C223.988 213.238 224.306 213.583 224.489 214.001L224.728 214.451C225.148 215.319 225.226 216.312 224.945 217.234C224.665 218.156 224.046 218.939 223.213 219.428L146.144 263.799C145.318 264.208 144.408 264.42 143.486 264.42C142.564 264.42 141.654 264.208 140.829 263.799L101.125 241.164C100.461 240.791 99.9084 240.249 99.5253 239.593C99.1422 238.936 98.942 238.19 98.9454 237.431Z" fill="url(#paint36_linear_2202_358)"/>
<path style="mix-blend-mode:multiply" opacity="0.8" d="M99.158 237.325V235.842L177.45 190.015C178.113 189.523 178.895 189.214 179.717 189.121C180.538 189.028 181.37 189.154 182.127 189.486L223.319 213.021C223.703 213.25 224.016 213.58 224.223 213.974L224.435 214.451C224.859 215.31 224.939 216.297 224.657 217.212C224.376 218.127 223.755 218.901 222.921 219.375L146.037 263.588C145.211 263.996 144.302 264.208 143.38 264.208C142.458 264.208 141.548 263.996 140.722 263.588L101.311 241.031C100.657 240.656 100.115 240.115 99.7367 239.465C99.3589 238.814 99.1593 238.076 99.158 237.325Z" fill="url(#paint37_linear_2202_358)"/>
<path style="mix-blend-mode:multiply" opacity="0.83" d="M99.3706 237.193V235.737L177.45 190.068C178.116 189.583 178.898 189.28 179.718 189.187C180.538 189.094 181.368 189.215 182.127 189.539L223.027 213.022C223.419 213.251 223.734 213.592 223.93 214.001L224.17 214.478C224.586 215.333 224.661 216.315 224.38 217.223C224.099 218.132 223.482 218.901 222.655 219.375L146.037 263.323C145.214 263.741 144.304 263.959 143.38 263.959C142.456 263.959 141.545 263.741 140.722 263.323L101.523 240.899C100.87 240.523 100.327 239.983 99.9494 239.333C99.5716 238.682 99.372 237.944 99.3706 237.193Z" fill="url(#paint38_linear_2202_358)"/>
<path style="mix-blend-mode:multiply" opacity="0.85" d="M99.5564 237.06V235.604L177.45 190.121C178.105 189.632 178.879 189.328 179.693 189.24C180.506 189.151 181.328 189.282 182.074 189.618L222.761 213.021C223.146 213.26 223.458 213.599 223.664 214.001L223.877 214.451C224.296 215.304 224.375 216.282 224.099 217.191C223.823 218.099 223.212 218.87 222.389 219.349L146.064 263.137C145.242 263.56 144.331 263.78 143.406 263.78C142.481 263.78 141.57 263.56 140.749 263.137L101.709 240.74C101.054 240.373 100.509 239.838 100.131 239.191C99.7527 238.544 99.5543 237.809 99.5564 237.06Z" fill="url(#paint39_linear_2202_358)"/>
<path style="mix-blend-mode:multiply" opacity="0.88" d="M99.7693 236.848V235.419L177.211 190.094C177.869 189.614 178.643 189.314 179.455 189.226C180.267 189.137 181.088 189.264 181.835 189.591L222.469 213.021C222.865 213.234 223.182 213.568 223.373 213.974L223.612 214.451C224.02 215.304 224.091 216.279 223.81 217.182C223.529 218.084 222.918 218.849 222.097 219.322L146.091 262.926C145.265 263.334 144.355 263.546 143.433 263.546C142.511 263.546 141.601 263.334 140.775 262.926L101.895 240.608C101.241 240.222 100.7 239.672 100.327 239.012C99.9536 238.352 99.7613 237.606 99.7693 236.848Z" fill="url(#paint40_linear_2202_358)"/>
<path style="mix-blend-mode:multiply" opacity="0.9" d="M99.9814 236.848V235.419L177.051 190.28C177.706 189.804 178.476 189.507 179.282 189.419C180.089 189.33 180.904 189.454 181.648 189.777L222.203 213.021C222.593 213.241 222.908 213.574 223.106 213.975L223.319 214.425C223.736 215.273 223.814 216.248 223.538 217.152C223.262 218.056 222.652 218.822 221.831 219.296L146.117 262.687C145.293 263.102 144.382 263.318 143.459 263.318C142.536 263.318 141.626 263.102 140.802 262.687L102.107 240.475C101.467 240.107 100.934 239.579 100.561 238.943C100.189 238.307 99.9887 237.585 99.9814 236.848Z" fill="url(#paint41_linear_2202_358)"/>
<path style="mix-blend-mode:multiply" opacity="0.93" d="M100.195 236.69V235.233L176.998 190.227C177.654 189.751 178.423 189.454 179.23 189.366C180.036 189.277 180.852 189.401 181.596 189.724L221.937 212.81C222.318 213.021 222.624 213.345 222.814 213.736L223.054 214.213C223.461 215.062 223.531 216.033 223.25 216.931C222.969 217.829 222.358 218.589 221.539 219.058L146.144 262.449C145.325 262.88 144.413 263.106 143.486 263.106C142.56 263.106 141.648 262.88 140.829 262.449L102.294 240.316C101.655 239.949 101.125 239.42 100.756 238.784C100.387 238.147 100.194 237.425 100.195 236.69Z" fill="url(#paint42_linear_2202_358)"/>
<path style="mix-blend-mode:multiply" opacity="0.95" d="M100.381 236.557V235.128L176.918 190.333C177.565 189.859 178.325 189.563 179.123 189.475C179.921 189.386 180.728 189.509 181.463 189.83L221.645 212.81C222.03 213.037 222.343 213.367 222.549 213.763L222.761 214.213C223.175 215.054 223.252 216.021 222.976 216.916C222.699 217.811 222.09 218.568 221.273 219.031L146.17 262.238C145.347 262.656 144.437 262.874 143.513 262.874C142.589 262.874 141.678 262.656 140.855 262.238L102.507 240.184C101.865 239.818 101.33 239.29 100.957 238.654C100.584 238.017 100.385 237.294 100.381 236.557Z" fill="url(#paint43_linear_2202_358)"/>
<path style="mix-blend-mode:multiply" opacity="0.98" d="M100.593 236.425V234.995L176.812 190.412C177.458 189.938 178.219 189.642 179.016 189.554C179.814 189.466 180.621 189.588 181.356 189.909L221.379 212.783C221.762 213.005 222.068 213.337 222.256 213.736L222.469 214.186C222.884 215.02 222.963 215.98 222.692 216.871C222.42 217.761 221.818 218.515 221.007 218.978L146.197 261.999C145.375 262.422 144.464 262.642 143.539 262.642C142.615 262.642 141.703 262.422 140.882 261.999L102.692 240.052C102.054 239.684 101.523 239.155 101.154 238.519C100.786 237.882 100.592 237.16 100.593 236.425Z" fill="url(#paint44_linear_2202_358)"/>
<path style="mix-blend-mode:multiply" d="M100.806 236.292V234.889L176.706 190.465C177.352 189.991 178.112 189.695 178.91 189.607C179.708 189.519 180.515 189.641 181.25 189.962L221.113 212.757C221.5 212.961 221.808 213.287 221.99 213.683L222.23 214.133C222.636 214.971 222.708 215.932 222.432 216.821C222.156 217.71 221.552 218.462 220.741 218.925L146.33 261.761C145.526 262.166 144.639 262.377 143.739 262.377C142.838 262.377 141.951 262.166 141.147 261.761L102.879 239.893C102.248 239.524 101.726 238.998 101.362 238.367C100.999 237.735 100.807 237.02 100.806 236.292Z" fill="url(#paint45_linear_2202_358)"/>
</g>
<path d="M94.1353 238.278V236.849L178.539 187.448C179.255 186.926 180.095 186.6 180.976 186.503C181.858 186.405 182.749 186.539 183.562 186.892L227.944 212.095C228.373 212.339 228.717 212.709 228.927 213.154L229.166 213.657C229.614 214.581 229.696 215.639 229.396 216.621C229.095 217.602 228.434 218.435 227.545 218.952L144.682 266.606C143.791 267.051 142.808 267.283 141.812 267.283C140.815 267.283 139.833 267.051 138.942 266.606L96.4208 242.303C95.7213 241.888 95.1425 241.299 94.7417 240.593C94.3408 239.887 94.1318 239.089 94.1353 238.278Z" fill="url(#paint46_linear_2202_358)"/>
<path d="M95.3047 237.908C94.9576 237.79 94.6561 237.568 94.4426 237.271C94.2291 236.974 94.1143 236.618 94.1143 236.253C94.1143 235.888 94.2291 235.532 94.4426 235.235C94.6561 234.938 94.9576 234.716 95.3047 234.598L178.3 186.944C179.196 186.501 180.183 186.271 181.184 186.271C182.184 186.271 183.171 186.501 184.067 186.944L227.598 211.989C229.193 212.916 229.193 214.398 227.598 215.299L144.602 262.953C143.715 263.41 142.731 263.648 141.732 263.648C140.733 263.648 139.749 263.41 138.862 262.953L95.3047 237.908Z" fill="#F9F7F9"/>
<path d="M105.297 231.951L173.942 192.213L217.765 217.443L149.147 257.181L105.297 231.951Z" fill="#D3DAED"/>
<path d="M121.907 250.563C124.681 250.563 126.93 249.271 126.93 247.677C126.93 246.083 124.681 244.791 121.907 244.791C119.133 244.791 116.884 246.083 116.884 247.677C116.884 249.271 119.133 250.563 121.907 250.563Z" fill="#F1F2F2"/>
<path d="M239.533 174.296H238.891C238.033 172.832 236.783 171.635 235.281 170.837C232.094 169.237 228.574 168.403 225.004 168.403C221.434 168.403 217.914 169.237 214.727 170.837C213.223 171.627 211.977 172.826 211.133 174.296H210.475V176.474C210.353 178.699 211.744 180.938 214.681 182.569C217.868 184.169 221.388 185.003 224.958 185.003C228.528 185.003 232.048 184.169 235.236 182.569C238.187 180.877 239.579 178.638 239.457 176.474L239.533 174.296Z" fill="url(#paint47_linear_2202_358)"/>
<path d="M235.266 180.192C240.925 176.946 240.925 171.645 235.266 168.4C232.079 166.799 228.559 165.965 224.989 165.965C221.419 165.965 217.899 166.799 214.712 168.4C209.068 171.645 209.068 176.946 214.712 180.192C217.899 181.792 221.419 182.626 224.989 182.626C228.559 182.626 232.079 181.792 235.266 180.192Z" fill="#48486A"/>
<path d="M219.407 164.363V172.285C219.467 172.74 219.638 173.174 219.904 173.548C220.171 173.922 220.525 174.226 220.936 174.433C222.165 175.049 223.522 175.37 224.897 175.37C226.273 175.37 227.63 175.049 228.858 174.433C229.305 174.251 229.697 173.958 229.997 173.582C230.297 173.206 230.494 172.759 230.571 172.285V164.363H219.407Z" fill="url(#paint48_linear_2202_358)"/>
<path d="M229.072 168.141C227.806 168.779 226.408 169.112 224.989 169.112C223.57 169.112 222.171 168.779 220.905 168.141C220.244 167.811 219.707 167.276 219.376 166.617V165.992H219.192V168.445C219.266 168.924 219.457 169.377 219.747 169.765C220.038 170.152 220.42 170.463 220.859 170.67C222.128 171.298 223.526 171.625 224.943 171.625C226.36 171.625 227.757 171.298 229.026 170.67C229.471 170.469 229.858 170.16 230.152 169.771C230.446 169.382 230.637 168.927 230.709 168.445V166.191L230.525 166.282V166.648C230.206 167.282 229.699 167.803 229.072 168.141Z" fill="#FFE188"/>
<path d="M229.072 168.841C227.804 169.47 226.406 169.796 224.989 169.796C223.572 169.796 222.174 169.47 220.906 168.841C220.466 168.635 220.084 168.324 219.794 167.936C219.503 167.548 219.312 167.095 219.239 166.617V169.131C219.32 169.607 219.513 170.056 219.803 170.443C220.093 170.83 220.471 171.142 220.906 171.355C222.174 171.983 223.572 172.31 224.989 172.31C226.406 172.31 227.804 171.983 229.072 171.355C229.516 171.153 229.903 170.844 230.196 170.455C230.49 170.067 230.682 169.612 230.755 169.131V166.617C230.683 167.098 230.492 167.554 230.198 167.943C229.904 168.331 229.517 168.64 229.072 168.841Z" fill="url(#paint49_linear_2202_358)"/>
<path d="M204.832 129.535L210.766 126.198C211.568 125.748 212.477 125.522 213.398 125.544C214.318 125.565 215.216 125.833 215.996 126.32L219.652 128.636L214.085 131.759L210.292 129.352C209.565 128.83 208.676 128.582 207.783 128.651L204.832 129.535Z" fill="url(#paint50_linear_2202_358)"/>
<path d="M206.866 144.084L212.846 140.717C210.949 139.406 209.505 137.543 208.711 135.383C207.918 133.223 207.813 130.872 208.411 128.651C207.336 128.72 206.291 129.027 205.352 129.55C204.585 130.067 203.971 130.779 203.573 131.612C203.175 132.445 203.008 133.369 203.088 134.288L206.866 144.084Z" fill="url(#paint51_linear_2202_358)"/>
<path d="M207.416 146.385L203.012 134.821C202.891 134.489 202.829 134.138 202.828 133.785C202.827 132.817 203.083 131.866 203.57 131.028C204.056 130.19 204.756 129.495 205.599 129.013C206.441 128.53 207.396 128.278 208.368 128.282C209.34 128.285 210.293 128.544 211.133 129.032L214.39 131.241L214.008 131.82L210.766 130.647C209.236 129.778 208.227 129.123 206.697 130.052C205.936 130.423 205.287 130.99 204.819 131.695C204.351 132.399 204.081 133.216 204.036 134.059C204.036 134.329 204.083 134.597 204.174 134.851L208.059 146.141L207.416 146.385Z" fill="#FFDA6A"/>
<g filter="url(#filter0_d_2202_358)">
<path d="M239.228 157.278C244.688 150.391 246.875 133.267 239.228 128.895C231.581 124.522 219.101 124.522 211.485 128.895C203.868 133.267 206.361 150.224 211.485 157.278C215.339 162.61 220.309 166.8 225.341 166.8C230.372 166.8 235.802 161.62 239.228 157.278Z" fill="url(#paint52_linear_2202_358)" fill-opacity="0.991703"/>
</g>
<path d="M237.774 142.119C244.596 138.219 244.596 131.835 237.774 127.935C230.953 124.035 219.82 124.035 213.044 127.935C206.269 131.835 206.254 138.219 213.044 142.119C219.835 146.019 230.953 146.019 237.774 142.119Z" fill="#FFDA6A"/>
<path d="M237.362 141.647C243.953 137.929 243.953 131.835 237.362 128.118C230.77 124.4 220.003 124.4 213.534 128.102C207.065 131.805 206.973 137.914 213.534 141.631C220.095 145.349 230.77 145.364 237.362 141.647Z" fill="url(#paint53_linear_2202_358)"/>
<path d="M230.953 162.961C233.466 162.886 235.964 162.538 238.401 161.925C239.808 161.559 243.188 159.929 244.045 157.43C245.008 154.597 245.85 150.559 244.213 147.558C243.575 146.461 242.69 145.526 241.629 144.825C240.568 144.125 239.359 143.678 238.096 143.521L237.637 145.989C238.189 145.739 238.794 145.629 239.399 145.666C240.004 145.703 240.591 145.887 241.108 146.202C241.823 146.706 242.426 147.352 242.879 148.099C243.331 148.847 243.624 149.679 243.739 150.544C244.079 152.017 244.062 153.549 243.69 155.014C243.317 156.479 242.6 157.835 241.598 158.969C241.598 158.969 235.389 162.153 231.58 161.925L230.953 162.961Z" fill="#FFDA6A"/>
<path d="M238.172 143.52L242.592 140.29C242.592 140.29 255.622 150.346 241.231 160.599C241.986 159.833 242.672 159.002 243.28 158.116C245.223 154.596 247.486 147.116 238.172 143.52Z" fill="url(#paint54_linear_2202_358)"/>
<path d="M231.657 161.925L236.245 159.167C236.245 159.167 240.39 160.188 241.781 158.801C241.812 158.801 239.533 161.925 231.657 161.925Z" fill="url(#paint55_linear_2202_358)"/>
<defs>
<filter id="filter0_d_2202_358" x="196.662" y="120.615" width="57.5142" height="61.1847" filterUnits="userSpaceOnUse" color-interpolation-filters="sRGB">
<feFlood flood-opacity="0" result="BackgroundImageFix"/>
<feColorMatrix in="SourceAlpha" type="matrix" values="0 0 0 0 0 0 0 0 0 0 0 0 0 0 0 0 0 0 127 0" result="hardAlpha"/>
<feOffset dy="5"/>
<feGaussianBlur stdDeviation="5"/>
<feColorMatrix type="matrix" values="0 0 0 0 0.988235 0 0 0 0 0.407843 0 0 0 0 0.227451 0 0 0 0.25 0"/>
<feBlend mode="normal" in2="BackgroundImageFix" result="effect1_dropShadow_2202_358"/>
<feBlend mode="normal" in="SourceGraphic" in2="effect1_dropShadow_2202_358" result="shape"/>
</filter>
<linearGradient id="paint0_linear_2202_358" x1="128.062" y1="107.648" x2="125.403" y2="152.18" gradientUnits="userSpaceOnUse">
<stop offset="0.1321" stop-color="#00A373"/>
<stop offset="1" stop-color="#1ABBC0"/>
</linearGradient>
<linearGradient id="paint1_linear_2202_358" x1="126.623" y1="67.7074" x2="118.318" y2="161.592" gradientUnits="userSpaceOnUse">
<stop offset="0.1321" stop-color="#00A373"/>
<stop offset="1" stop-color="#1ABBC0"/>
</linearGradient>
<linearGradient id="paint2_linear_2202_358" x1="184.002" y1="38.7071" x2="181.479" y2="156.294" gradientUnits="userSpaceOnUse">
<stop offset="0.1321" stop-color="#00A373"/>
<stop offset="1" stop-color="#1ABBC0"/>
</linearGradient>
<linearGradient id="paint3_linear_2202_358" x1="174.914" y1="73.5766" x2="165.282" y2="163.833" gradientUnits="userSpaceOnUse">
<stop offset="0.1321" stop-color="#00A373"/>
<stop offset="1" stop-color="#1ABBC0"/>
</linearGradient>
<linearGradient id="paint4_linear_2202_358" x1="143.292" y1="31.4831" x2="94.2435" y2="152.19" gradientUnits="userSpaceOnUse">
<stop offset="0.1321" stop-color="#00A373"/>
<stop offset="1" stop-color="#1ABBC0"/>
</linearGradient>
<linearGradient id="paint5_linear_2202_358" x1="103.923" y1="17437.2" x2="7613.22" y2="17437.2" gradientUnits="userSpaceOnUse">
<stop stop-color="#000071"/>
<stop offset="1" stop-color="#1D4CB9"/>
</linearGradient>
<linearGradient id="paint6_linear_2202_358" x1="113.927" y1="17369.8" x2="7572.35" y2="17369.8" gradientUnits="userSpaceOnUse">
<stop stop-color="#000071"/>
<stop offset="1" stop-color="#1D4CB9"/>
</linearGradient>
<linearGradient id="paint7_linear_2202_358" x1="125.308" y1="17314.5" x2="7534.74" y2="17314.5" gradientUnits="userSpaceOnUse">
<stop stop-color="#000071"/>
<stop offset="1" stop-color="#1D4CB9"/>
</linearGradient>
<linearGradient id="paint8_linear_2202_358" x1="136.6" y1="17246.6" x2="7495.2" y2="17246.6" gradientUnits="userSpaceOnUse">
<stop stop-color="#000071"/>
<stop offset="1" stop-color="#1D4CB9"/>
</linearGradient>
<linearGradient id="paint9_linear_2202_358" x1="147.761" y1="17181.3" x2="7447.21" y2="17181.3" gradientUnits="userSpaceOnUse">
<stop stop-color="#000071"/>
<stop offset="1" stop-color="#1D4CB9"/>
</linearGradient>
<linearGradient id="paint10_linear_2202_358" x1="157.465" y1="17126.9" x2="7406.93" y2="17126.9" gradientUnits="userSpaceOnUse">
<stop stop-color="#000071"/>
<stop offset="1" stop-color="#1D4CB9"/>
</linearGradient>
<linearGradient id="paint11_linear_2202_358" x1="168.52" y1="17058.1" x2="7366.68" y2="17058.1" gradientUnits="userSpaceOnUse">
<stop stop-color="#000071"/>
<stop offset="1" stop-color="#1D4CB9"/>
</linearGradient>
<linearGradient id="paint12_linear_2202_358" x1="179.513" y1="16995.5" x2="7327.59" y2="16995.5" gradientUnits="userSpaceOnUse">
<stop stop-color="#000071"/>
<stop offset="1" stop-color="#1D4CB9"/>
</linearGradient>
<linearGradient id="paint13_linear_2202_358" x1="189.001" y1="16933.6" x2="7287.72" y2="16933.6" gradientUnits="userSpaceOnUse">
<stop stop-color="#000071"/>
<stop offset="1" stop-color="#1D4CB9"/>
</linearGradient>
<linearGradient id="paint14_linear_2202_358" x1="199.815" y1="16873" x2="7246.73" y2="16873" gradientUnits="userSpaceOnUse">
<stop stop-color="#000071"/>
<stop offset="1" stop-color="#1D4CB9"/>
</linearGradient>
<linearGradient id="paint15_linear_2202_358" x1="210.584" y1="16810.1" x2="7207.92" y2="16810.1" gradientUnits="userSpaceOnUse">
<stop stop-color="#000071"/>
<stop offset="1" stop-color="#1D4CB9"/>
</linearGradient>
<linearGradient id="paint16_linear_2202_358" x1="219.866" y1="16748.4" x2="7169" y2="16748.4" gradientUnits="userSpaceOnUse">
<stop stop-color="#000071"/>
<stop offset="1" stop-color="#1D4CB9"/>
</linearGradient>
<linearGradient id="paint17_linear_2202_358" x1="230.463" y1="16687.3" x2="7129" y2="16687.3" gradientUnits="userSpaceOnUse">
<stop stop-color="#000071"/>
<stop offset="1" stop-color="#1D4CB9"/>
</linearGradient>
<linearGradient id="paint18_linear_2202_358" x1="240.969" y1="16627" x2="7089.79" y2="16627" gradientUnits="userSpaceOnUse">
<stop stop-color="#000071"/>
<stop offset="1" stop-color="#1D4CB9"/>
</linearGradient>
<linearGradient id="paint19_linear_2202_358" x1="250.09" y1="16586.9" x2="7052.36" y2="16586.9" gradientUnits="userSpaceOnUse">
<stop stop-color="#000071"/>
<stop offset="1" stop-color="#1D4CB9"/>
</linearGradient>
<linearGradient id="paint20_linear_2202_358" x1="260.39" y1="16495" x2="7009.63" y2="16495" gradientUnits="userSpaceOnUse">
<stop stop-color="#000071"/>
<stop offset="1" stop-color="#1D4CB9"/>
</linearGradient>
<linearGradient id="paint21_linear_2202_358" x1="270.732" y1="16425.3" x2="6973.48" y2="16425.3" gradientUnits="userSpaceOnUse">
<stop stop-color="#000071"/>
<stop offset="1" stop-color="#1D4CB9"/>
</linearGradient>
<linearGradient id="paint22_linear_2202_358" x1="280.961" y1="16374.4" x2="6934.59" y2="16374.4" gradientUnits="userSpaceOnUse">
<stop stop-color="#000071"/>
<stop offset="1" stop-color="#1D4CB9"/>
</linearGradient>
<linearGradient id="paint23_linear_2202_358" x1="289.766" y1="16331.8" x2="6895.86" y2="16331.8" gradientUnits="userSpaceOnUse">
<stop stop-color="#000071"/>
<stop offset="1" stop-color="#1D4CB9"/>
</linearGradient>
<linearGradient id="paint24_linear_2202_358" x1="299.844" y1="16277.1" x2="6858.33" y2="16277.1" gradientUnits="userSpaceOnUse">
<stop stop-color="#000071"/>
<stop offset="1" stop-color="#1D4CB9"/>
</linearGradient>
<linearGradient id="paint25_linear_2202_358" x1="309.732" y1="16193.8" x2="6816.02" y2="16193.8" gradientUnits="userSpaceOnUse">
<stop stop-color="#000071"/>
<stop offset="1" stop-color="#1D4CB9"/>
</linearGradient>
<linearGradient id="paint26_linear_2202_358" x1="318.355" y1="16130" x2="6779.91" y2="16130" gradientUnits="userSpaceOnUse">
<stop stop-color="#000071"/>
<stop offset="1" stop-color="#1D4CB9"/>
</linearGradient>
<linearGradient id="paint27_linear_2202_358" x1="328.168" y1="16092.2" x2="6740.31" y2="16092.2" gradientUnits="userSpaceOnUse">
<stop stop-color="#000071"/>
<stop offset="1" stop-color="#1D4CB9"/>
</linearGradient>
<linearGradient id="paint28_linear_2202_358" x1="337.878" y1="16025.2" x2="6700.21" y2="16025.2" gradientUnits="userSpaceOnUse">
<stop stop-color="#000071"/>
<stop offset="1" stop-color="#1D4CB9"/>
</linearGradient>
<linearGradient id="paint29_linear_2202_358" x1="346.508" y1="15942.7" x2="6670" y2="15942.7" gradientUnits="userSpaceOnUse">
<stop stop-color="#000071"/>
<stop offset="1" stop-color="#1D4CB9"/>
</linearGradient>
<linearGradient id="paint30_linear_2202_358" x1="355.977" y1="15884.6" x2="6627.75" y2="15884.6" gradientUnits="userSpaceOnUse">
<stop stop-color="#000071"/>
<stop offset="1" stop-color="#1D4CB9"/>
</linearGradient>
<linearGradient id="paint31_linear_2202_358" x1="365.17" y1="15810.6" x2="6580.94" y2="15810.6" gradientUnits="userSpaceOnUse">
<stop stop-color="#000071"/>
<stop offset="1" stop-color="#1D4CB9"/>
</linearGradient>
<linearGradient id="paint32_linear_2202_358" x1="374.83" y1="15745.6" x2="6548.94" y2="15745.6" gradientUnits="userSpaceOnUse">
<stop stop-color="#000071"/>
<stop offset="1" stop-color="#1D4CB9"/>
</linearGradient>
<linearGradient id="paint33_linear_2202_358" x1="383.189" y1="15699.8" x2="6517.16" y2="15699.8" gradientUnits="userSpaceOnUse">
<stop stop-color="#000071"/>
<stop offset="1" stop-color="#1D4CB9"/>
</linearGradient>
<linearGradient id="paint34_linear_2202_358" x1="392.21" y1="15633.2" x2="6473.95" y2="15633.2" gradientUnits="userSpaceOnUse">
<stop stop-color="#000071"/>
<stop offset="1" stop-color="#1D4CB9"/>
</linearGradient>
<linearGradient id="paint35_linear_2202_358" x1="401.425" y1="15572.4" x2="6435.74" y2="15572.4" gradientUnits="userSpaceOnUse">
<stop stop-color="#000071"/>
<stop offset="1" stop-color="#1D4CB9"/>
</linearGradient>
<linearGradient id="paint36_linear_2202_358" x1="409.313" y1="15506.6" x2="6398.4" y2="15506.6" gradientUnits="userSpaceOnUse">
<stop stop-color="#000071"/>
<stop offset="1" stop-color="#1D4CB9"/>
</linearGradient>
<linearGradient id="paint37_linear_2202_358" x1="418.347" y1="15449" x2="6361.05" y2="15449" gradientUnits="userSpaceOnUse">
<stop stop-color="#000071"/>
<stop offset="1" stop-color="#1D4CB9"/>
</linearGradient>
<linearGradient id="paint38_linear_2202_358" x1="427.333" y1="15382.4" x2="6323.15" y2="15382.4" gradientUnits="userSpaceOnUse">
<stop stop-color="#000071"/>
<stop offset="1" stop-color="#1D4CB9"/>
</linearGradient>
<linearGradient id="paint39_linear_2202_358" x1="435.01" y1="15332.4" x2="6287.37" y2="15332.4" gradientUnits="userSpaceOnUse">
<stop stop-color="#000071"/>
<stop offset="1" stop-color="#1D4CB9"/>
</linearGradient>
<linearGradient id="paint40_linear_2202_358" x1="443.831" y1="15285.6" x2="6249.41" y2="15285.6" gradientUnits="userSpaceOnUse">
<stop stop-color="#000071"/>
<stop offset="1" stop-color="#1D4CB9"/>
</linearGradient>
<linearGradient id="paint41_linear_2202_358" x1="452.58" y1="15198" x2="6211.69" y2="15198" gradientUnits="userSpaceOnUse">
<stop stop-color="#000071"/>
<stop offset="1" stop-color="#1D4CB9"/>
</linearGradient>
<linearGradient id="paint42_linear_2202_358" x1="461.243" y1="15163.5" x2="6175.17" y2="15163.5" gradientUnits="userSpaceOnUse">
<stop stop-color="#000071"/>
<stop offset="1" stop-color="#1D4CB9"/>
</linearGradient>
<linearGradient id="paint43_linear_2202_358" x1="468.655" y1="15091.5" x2="6138.86" y2="15091.5" gradientUnits="userSpaceOnUse">
<stop stop-color="#000071"/>
<stop offset="1" stop-color="#1D4CB9"/>
</linearGradient>
<linearGradient id="paint44_linear_2202_358" x1="477.145" y1="15026.2" x2="6100.98" y2="15026.2" gradientUnits="userSpaceOnUse">
<stop stop-color="#000071"/>
<stop offset="1" stop-color="#1D4CB9"/>
</linearGradient>
<linearGradient id="paint45_linear_2202_358" x1="485.667" y1="14959.5" x2="6066.15" y2="14959.5" gradientUnits="userSpaceOnUse">
<stop stop-color="#000071"/>
<stop offset="1" stop-color="#1D4CB9"/>
</linearGradient>
<linearGradient id="paint46_linear_2202_358" x1="94.1353" y1="226.789" x2="229.511" y2="226.789" gradientUnits="userSpaceOnUse">
<stop stop-color="#D3DAED"/>
<stop offset="1" stop-color="#99A7D8"/>
</linearGradient>
<linearGradient id="paint47_linear_2202_358" x1="1256.83" y1="3918.63" x2="1808.79" y2="3918.63" gradientUnits="userSpaceOnUse">
<stop stop-color="#48486A"/>
<stop offset="0.22" stop-color="#4D4F78"/>
<stop offset="0.71" stop-color="#585D94"/>
<stop offset="1" stop-color="#5C629E"/>
</linearGradient>
<linearGradient id="paint48_linear_2202_358" x1="686.529" y1="2601.47" x2="768.141" y2="2601.47" gradientUnits="userSpaceOnUse">
<stop offset="0.15" stop-color="#FF9800"/>
<stop offset="1" stop-color="#FFC107"/>
</linearGradient>
<linearGradient id="paint49_linear_2202_358" x1="219.223" y1="169.466" x2="230.77" y2="169.466" gradientUnits="userSpaceOnUse">
<stop stop-color="#FFC107"/>
<stop offset="0.85" stop-color="#FF9800"/>
</linearGradient>
<linearGradient id="paint50_linear_2202_358" x1="683.657" y1="1333.79" x2="827.705" y2="1333.79" gradientUnits="userSpaceOnUse">
<stop offset="0.15" stop-color="#FF9800"/>
<stop offset="1" stop-color="#FFC107"/>
</linearGradient>
<linearGradient id="paint51_linear_2202_358" x1="508.212" y1="3206.52" x2="570.199" y2="3206.52" gradientUnits="userSpaceOnUse">
<stop offset="0.15" stop-color="#FF9800"/>
<stop offset="1" stop-color="#FFC107"/>
</linearGradient>
<linearGradient id="paint52_linear_2202_358" x1="244.176" y1="146.207" x2="206.662" y2="146.207" gradientUnits="userSpaceOnUse">
<stop stop-color="#FFA979"/>
<stop offset="1" stop-color="#FF6231"/>
</linearGradient>
<linearGradient id="paint53_linear_2202_358" x1="1817.5" y1="4176.11" x2="1786.7" y2="3811.3" gradientUnits="userSpaceOnUse">
<stop offset="0.15" stop-color="#F8B95C"/>
<stop offset="1" stop-color="#FFE189"/>
</linearGradient>
<linearGradient id="paint54_linear_2202_358" x1="769.965" y1="4378.29" x2="833.159" y2="4378.29" gradientUnits="userSpaceOnUse">
<stop offset="0.15" stop-color="#FF9800"/>
<stop offset="1" stop-color="#FFC107"/>
</linearGradient>
<linearGradient id="paint55_linear_2202_358" x1="736.379" y1="830.858" x2="803.608" y2="830.858" gradientUnits="userSpaceOnUse">
<stop offset="0.15" stop-color="#FF9800"/>
<stop offset="1" stop-color="#FFC107"/>
</linearGradient>
</defs>
</svg>
